<svg id="электрические" xmlns="http://www.w3.org/2000/svg" xmlns:xlink="http://www.w3.org/1999/xlink" viewBox="0 0 600 490"><defs><clipPath id="clip-path-2"><path class="cls-1" d="M201.47 273.49h8.45v8.45h-8.45z"/></clipPath><clipPath id="clip-path-11"><path class="cls-1" d="M170.63 304.57a22.6 22.6 0 004.6-.37 21.9 21.9 0 01-4.6.37m7.99-2.84a3.74 3.74 0 00-.17-2.07c0-.5 2.67-2 .86-4 1.82 2-.86 3.49-.86 4a3.74 3.74 0 01.17 2.07m.34-6.4c3.61-2.13.74-4.2 0-4.93.73.73 3.6 2.8 0 4.93m-3.74-12.41l-.4-.13.4.13m-.5-.42l-.07-.18c-.07-.16-.15-.32-.23-.47a5.14 5.14 0 01.23.47l.07.18m-5.4-3.69a10.77 10.77 0 00-.68-3.29 14.92 14.92 0 01-.54-1.94 16.7 16.7 0 00.54 1.94 9.52 9.52 0 01.56 2.16q0 .31.09.69v.44m3.86-1.35a17.25 17.25 0 00-.31-2.74 17.25 17.25 0 01.31 2.74"/></clipPath><clipPath id="clip-path-3"><path class="cls-1" d="M176.28 286.08h25.27v29.42h-25.27z"/></clipPath><clipPath id="clip-path-4"><path class="cls-1" d="M201.47 298.63h8.45v16.86h-8.45z"/></clipPath><clipPath id="clip-path-5"><path class="cls-1" d="M167.91 302.82h8.45v12.68h-8.45z"/></clipPath><clipPath id="clip-path-6"><path class="cls-1" d="M172.55 273.57h-4.42c-.06-.32-.11-.63-.14-.91v-1.27c.14-1.13.67-1.72 1.35-1.72s1.43.53 2.14 1.63a9.64 9.64 0 011.07 2.27"/></clipPath><clipPath id="clip-path-7"><path class="cls-1" d="M207.94 273.57H204a21 21 0 01.37-3.67 10.23 10.23 0 011.88-4h2.87a6.29 6.29 0 01-.11 3.45 14.2 14.2 0 01-.43 1.38 10.59 10.59 0 00-.65 2.86"/></clipPath><clipPath id="clip-path-8"><path class="cls-1" d="M168 308v-.27h.2l-.2.27"/></clipPath><clipPath id="clip-path-9"><path class="cls-1" d="M168.9 306.73c-.24-8.36-.31-17.09.06-23.82 0-.08 0-.15.05-.23a13.25 13.25 0 00.3-3.88v-.84a.27.27 0 00-.13-.29 9.52 9.52 0 00-.56-2.16 16.7 16.7 0 01-.54-1.94h4.42c.13.36.24.74.35 1.14a17.25 17.25 0 01.31 2.74c.07 1.47.07 2.86.07 2.86a6.24 6.24 0 011.17 1.53c.08.15.16.31.23.47l.07.18a2.47 2.47 0 01.1.29l.4.13.28.09c7.11 2.46 4 6.81 3.47 7.39.73.73 3.6 2.8 0 4.93a3.8 3.8 0 01.35.34c1.81 2-.86 3.49-.86 4a3.74 3.74 0 01.17 2.07c-.34 1.4-1.75 2.11-3.39 2.47a22.6 22.6 0 01-4.6.37h-.21c-.51.74-1 1.46-1.52 2.16"/></clipPath><clipPath id="clip-path-10"><path class="cls-1" d="M168.19 307.72H168v-24.51a3.41 3.41 0 011-.3c-.37 6.73-.3 15.46-.06 23.82l-.71 1m1.13-29.36q0-.37-.09-.69a.27.27 0 01.13.29v.4"/></clipPath><clipPath id="clip-path"><path class="cls-1" d="M167.91 273.49h33.64v12.68h-33.64z"/></clipPath><clipPath id="clip-path-12"><path class="cls-1" d="M209.84 281.51v-2.64 2.64"/></clipPath><clipPath id="clip-path-13"><path class="cls-1" d="M209.84 304.12v-22.61 22.61"/></clipPath><clipPath id="clip-path-14"><path class="cls-1" d="M208.7 302.55c-.64-.89-1.29-1.82-2-2.78h-.69a23.33 23.33 0 01-3.41-.24c-2.62-.42-5-1.57-3.93-4.69 0-.21-.43-.58-.83-1.08-.65-.8-1.19-1.94.34-3.25a7 7 0 01-.67-.45c-2.54-2 0-3.81.68-4.49-.5-.58-3.63-4.93 3.49-7.37l.49-.16.19-.06c.05-.16.11-.32.17-.47a6.42 6.42 0 01.39-.74 6.26 6.26 0 011-1.25v-1.93h3.93a13.74 13.74 0 00.25 4.31.36.36 0 010 .1v.12l.26.05c.06 1 .12 1.93.17 2.88.45 8.73.25 16.34 0 21.46m1.14-21c-.2-1.16-.42-2.21-.65-3.13a2 2 0 01.65.49v2.64"/></clipPath><clipPath id="clip-path-15"><path class="cls-1" d="M209.84 304.12c-.37-.51-.76-1-1.14-1.57.24-5.12.44-12.73 0-21.46-.05-.95-.11-1.91-.17-2.88a3.5 3.5 0 01.67.22c.23.92.45 2 .65 3.13v22.61"/></clipPath><clipPath id="clip-path-16"><path class="cls-1" d="M209.84 304.12c-1-1.34-2-2.79-3.1-4.35.67 1 1.32 1.89 2 2.78.38.54.77 1.06 1.14 1.57m-7.2-4.6c-2.62-.42-5-1.57-3.93-4.69 0-.21-.43-.58-.83-1.08.4.5.84.87.83 1.08-1 3.12 1.31 4.27 3.93 4.69m-4.42-9a5.55 5.55 0 01-.67-.45 7 7 0 00.67.45m10-12.38v-.12.12m-6.06-.14l.19-.06c.05-.16.11-.32.17-.47a6.42 6.42 0 01.39-.74 6.42 6.42 0 00-.39.74c-.06.15-.12.31-.17.47l-.19.06"/></clipPath><clipPath id="clip-path-17"><path d="M209.84 315.41H168V308l.2-.27.71-1c.5-.7 1-1.42 1.52-2.16h.21a21.9 21.9 0 004.6-.37c1.64-.36 3.05-1.07 3.39-2.47a3.74 3.74 0 00-.17-2.07c0-.5 2.68-2 .86-4a3.8 3.8 0 00-.35-.34c3.61-2.13.74-4.2 0-4.93.49-.58 3.64-4.93-3.47-7.39l-.28-.09-.4-.13a2.47 2.47 0 00-.1-.29l-.07-.18a5.14 5.14 0 00-.23-.47 6.24 6.24 0 00-1.17-1.53s0-1.39-.07-2.86a17.25 17.25 0 00-.31-2.74c-.11-.4-.22-.78-.35-1.14H204v1.93a6.26 6.26 0 00-1 1.25 6.42 6.42 0 00-.39.74c-.06.15-.12.31-.17.47l-.19.06-.49.16c-7.12 2.44-4 6.79-3.49 7.37-.69.68-3.22 2.51-.68 4.49a5.55 5.55 0 00.67.45c-1.53 1.31-1 2.45-.34 3.25.4.5.83.87.83 1.08-1 3.12 1.31 4.27 3.93 4.69a23.33 23.33 0 003.41.24h.69c1.08 1.56 2.12 3 3.1 4.35v11.29M168 283.21v-9.64h.14a14.92 14.92 0 00.54 1.94 10.77 10.77 0 01.68 3.29 13.25 13.25 0 01-.3 3.88c0 .08 0 .15-.05.23a3.41 3.41 0 00-1 .3m41.85-4.34a2 2 0 00-.65-.49 3.5 3.5 0 00-.67-.22l-.26-.05v-.12a.36.36 0 000-.1 13.74 13.74 0 01-.25-4.31h1.9v5.3" clip-path="url(#clip-path)" fill="none"/></clipPath><linearGradient id="Безымянный_градиент_9" x1="300" x2="300" y2="438" gradientUnits="userSpaceOnUse"><stop offset="0" stop-color="#b5867c"/><stop offset="1" stop-color="#966f66"/></linearGradient><linearGradient id="Безымянный_градиент_29" x1="300" x2="300" y2="438" gradientUnits="userSpaceOnUse"><stop offset="0" stop-color="#4d4d4d"/><stop offset="1" stop-color="#b3b3b3"/></linearGradient><linearGradient id="Безымянный_градиент_4" x1="302.29" y1="84" x2="302.29" y2="96" gradientUnits="userSpaceOnUse"><stop offset="0" stop-color="#fff"/><stop offset="1" stop-color="#ccc"/></linearGradient><style>.cls-1,.cls-12,.cls-24,.cls-33{fill:none}.cls-8{fill:url(#Безымянный_градиент_9)}.cls-12{stroke:#3d2f2f;stroke-width:.5px}.cls-12,.cls-24,.cls-33{stroke-miterlimit:10}.cls-14{fill:#fff}.cls-18{fill:#626c70}.cls-21{fill:#4c403a}.cls-24{stroke:#4c403a;stroke-width:2px}.cls-26{fill:#bcbcbc}.cls-27{fill:#9b9b9b}.cls-28{fill:#474747}.cls-33{stroke:#000;stroke-width:.25px}.cls-36{fill:#4f4f4f}.cls-37{font-size:5.82px;font-family:MyriadPro-Regular,Myriad Pro}.cls-43{fill:#e7ab6e}.cls-44{fill:#df9058}.cls-45{fill:#61b22f}.cls-46{fill:#71b62c}.cls-50{fill:#e8b075}.cls-53{fill:#662e1d}.cls-57{fill:#4b2c1b}.cls-58{fill:#fbfdf9}.cls-59{fill:#423233}.cls-60{fill:#ebe6e6}.cls-73{fill:#b79672}</style></defs><g id="_1_комната" data-name="1 комната"><g id="Слой_1" data-name="Слой 1"><g id="Фон"><path fill="#a1796d" d="M0 0h600v438H0z"/><path class="cls-8" d="M0 0h600v438H0z"/><path class="cls-8" d="M0 0h600v438H0z"/><path fill="url(#Безымянный_градиент_29)" d="M0 0h600v438H0z"/><path fill="#c9c9c9" d="M0 0h600v438H0z"/><g opacity=".25"><path class="cls-12" d="M9.92 0h38.09v13.44H9.92z"/><path class="cls-12" d="M48.01 0H86.1v13.44H48.01zM86.1 0h38.09v13.44H86.1zM30.09 13.44h38.09v13.44H30.09z"/><path class="cls-12" d="M-8 13.44h38.09v13.44H-8zm76.18 0h38.09v13.44H68.18zM124.19 0h38.09v13.44h-38.09zm38.09 0h38.09v13.44h-38.09zm38.09 0h38.09v13.44h-38.09zm-56.01 13.44h38.09v13.44h-38.09z"/><path class="cls-12" d="M106.27 13.44h38.09v13.44h-38.09zm76.18 0h38.09v13.44h-38.09zM238.46 0h38.09v13.44h-38.09z"/><path class="cls-12" d="M276.55 0h38.09v13.44h-38.09zm38.09 0h38.09v13.44h-38.09zm-56.01 13.44h38.09v13.44h-38.09zm-38.09 0h38.09v13.44h-38.09zm76.18 0h38.09v13.44h-38.09zM352.73 0h38.09v13.44h-38.09z"/><path class="cls-12" d="M390.82 0h38.09v13.44h-38.09zm38.09 0H467v13.44h-38.09zM372.9 13.44h38.09v13.44H372.9zm-38.09 0h38.09v13.44h-38.09zm76.18 0h38.09v13.44h-38.09z"/><path class="cls-12" d="M466.73 0h38.09v13.44h-38.09z"/><path class="cls-12" d="M504.82 0h38.09v13.44h-38.09zm38.09 0H581v13.44h-38.09zM486.9 13.44h38.09v13.44H486.9zm-38.09 0h38.09v13.44h-38.09zm76.18 0h38.09v13.44h-38.09z"/><path class="cls-12" d="M601 2v11.44h-20.27V0H600v2h1zm-38.19 11.44h38.09v13.44h-38.09zM9.92 27h38.09v13.44H9.92z"/><path class="cls-12" d="M48.01 27H86.1v13.44H48.01zm38.09 0h38.09v13.44H86.1zM30.09 40.44h38.09v13.44H30.09z"/><path class="cls-12" d="M-8 40.44h38.09v13.44H-8zm76.18 0h38.09v13.44H68.18zM124.19 27h38.09v13.44h-38.09zm38.09 0h38.09v13.44h-38.09zm38.09 0h38.09v13.44h-38.09zm-56.01 13.44h38.09v13.44h-38.09z"/><path class="cls-12" d="M106.27 40.44h38.09v13.44h-38.09zm76.18 0h38.09v13.44h-38.09zM238.46 27h38.09v13.44h-38.09z"/><path class="cls-12" d="M276.55 27h38.09v13.44h-38.09zm38.09 0h38.09v13.44h-38.09zm-56.01 13.44h38.09v13.44h-38.09zm-38.09 0h38.09v13.44h-38.09zm76.18 0h38.09v13.44h-38.09zM352.73 27h38.09v13.44h-38.09z"/><path class="cls-12" d="M390.82 27h38.09v13.44h-38.09zm38.09 0H467v13.44h-38.09zM372.9 40.44h38.09v13.44H372.9zm-38.09 0h38.09v13.44h-38.09zm76.18 0h38.09v13.44h-38.09z"/><path class="cls-12" d="M466.73 27h38.09v13.44h-38.09z"/><path class="cls-12" d="M504.82 27h38.09v13.44h-38.09zm38.09 0H581v13.44h-38.09zM486.9 40.44h38.09v13.44H486.9zm-38.09 0h38.09v13.44h-38.09zm76.18 0h38.09v13.44h-38.09z"/><path class="cls-12" d="M580.73 27H601v13.44h-20.27zm-17.92 13.44h38.09v13.44h-38.09zM9.92 54h38.09v13.44H9.92z"/><path class="cls-12" d="M48.01 54H86.1v13.44H48.01zm38.09 0h38.09v13.44H86.1zM30.09 67.44h38.09v13.44H30.09z"/><path class="cls-12" d="M-8 67.44h38.09v13.44H-8zm76.18 0h38.09v13.44H68.18zM124.19 54h38.09v13.44h-38.09zm38.09 0h38.09v13.44h-38.09zm38.09 0h38.09v13.44h-38.09zm-56.01 13.44h38.09v13.44h-38.09z"/><path class="cls-12" d="M106.27 67.44h38.09v13.44h-38.09zm76.18 0h38.09v13.44h-38.09zM238.46 54h38.09v13.44h-38.09z"/><path class="cls-12" d="M276.55 54h38.09v13.44h-38.09zm38.09 0h38.09v13.44h-38.09zm-56.01 13.44h38.09v13.44h-38.09zm-38.09 0h38.09v13.44h-38.09zm76.18 0h38.09v13.44h-38.09zM352.73 54h38.09v13.44h-38.09z"/><path class="cls-12" d="M390.82 54h38.09v13.44h-38.09zm38.09 0H467v13.44h-38.09zM372.9 67.44h38.09v13.44H372.9zm-38.09 0h38.09v13.44h-38.09zm76.18 0h38.09v13.44h-38.09z"/><path class="cls-12" d="M466.73 54h38.09v13.44h-38.09z"/><path class="cls-12" d="M504.82 54h38.09v13.44h-38.09zm38.09 0H581v13.44h-38.09zM486.9 67.44h38.09v13.44H486.9zm-38.09 0h38.09v13.44h-38.09zm76.18 0h38.09v13.44h-38.09z"/><path class="cls-12" d="M580.73 54H601v13.44h-20.27zm-17.92 13.44h38.09v13.44h-38.09zM9.92 81h38.09v13.44H9.92z"/><path class="cls-12" d="M48.01 81H86.1v13.44H48.01zm38.09 0h38.09v13.44H86.1zM30.09 94.44h38.09v13.44H30.09z"/><path class="cls-12" d="M-8 94.44h38.09v13.44H-8zm76.18 0h38.09v13.44H68.18zM124.19 81h38.09v13.44h-38.09zm38.09 0h38.09v13.44h-38.09zm38.09 0h38.09v13.44h-38.09zm-56.01 13.44h38.09v13.44h-38.09z"/><path class="cls-12" d="M106.27 94.44h38.09v13.44h-38.09zm76.18 0h38.09v13.44h-38.09zM238.46 81h38.09v13.44h-38.09z"/><path class="cls-12" d="M276.55 81h38.09v13.44h-38.09zm38.09 0h38.09v13.44h-38.09zm-56.01 13.44h38.09v13.44h-38.09zm-38.09 0h38.09v13.44h-38.09zm76.18 0h38.09v13.44h-38.09zM352.73 81h38.09v13.44h-38.09z"/><path class="cls-12" d="M390.82 81h38.09v13.44h-38.09zm38.09 0H467v13.44h-38.09zM372.9 94.44h38.09v13.44H372.9zm-38.09 0h38.09v13.44h-38.09zm76.18 0h38.09v13.44h-38.09z"/><path class="cls-12" d="M466.73 81h38.09v13.44h-38.09z"/><path class="cls-12" d="M504.82 81h38.09v13.44h-38.09zm38.09 0H581v13.44h-38.09zM486.9 94.44h38.09v13.44H486.9zm-38.09 0h38.09v13.44h-38.09zm76.18 0h38.09v13.44h-38.09z"/><path class="cls-12" d="M580.73 81H601v13.44h-20.27zm-17.92 13.44h38.09v13.44h-38.09zM9.92 108h38.09v13.44H9.92z"/><path class="cls-12" d="M48.01 108H86.1v13.44H48.01zm38.09 0h38.09v13.44H86.1zm-56.01 13.44h38.09v13.44H30.09z"/><path class="cls-12" d="M-8 121.44h38.09v13.44H-8zm76.18 0h38.09v13.44H68.18zM124.19 108h38.09v13.44h-38.09zm38.09 0h38.09v13.44h-38.09zm38.09 0h38.09v13.44h-38.09zm-56.01 13.44h38.09v13.44h-38.09z"/><path class="cls-12" d="M106.27 121.44h38.09v13.44h-38.09zm76.18 0h38.09v13.44h-38.09zM238.46 108h38.09v13.44h-38.09z"/><path class="cls-12" d="M276.55 108h38.09v13.44h-38.09zm38.09 0h38.09v13.44h-38.09zm-56.01 13.44h38.09v13.44h-38.09zm-38.09 0h38.09v13.44h-38.09zm76.18 0h38.09v13.44h-38.09zM352.73 108h38.09v13.44h-38.09z"/><path class="cls-12" d="M390.82 108h38.09v13.44h-38.09zm38.09 0H467v13.44h-38.09zm-56.01 13.44h38.09v13.44H372.9zm-38.09 0h38.09v13.44h-38.09zm76.18 0h38.09v13.44h-38.09z"/><path class="cls-12" d="M466.73 108h38.09v13.44h-38.09z"/><path class="cls-12" d="M504.82 108h38.09v13.44h-38.09zm38.09 0H581v13.44h-38.09zm-56.01 13.44h38.09v13.44H486.9zm-38.09 0h38.09v13.44h-38.09zm76.18 0h38.09v13.44h-38.09z"/><path class="cls-12" d="M580.73 108H601v13.44h-20.27zm-17.92 13.44h38.09v13.44h-38.09zM9.92 135h38.09v13.44H9.92z"/><path class="cls-12" d="M48.01 135H86.1v13.44H48.01zm38.09 0h38.09v13.44H86.1zm-56.01 13.44h38.09v13.44H30.09z"/><path class="cls-12" d="M-8 148.44h38.09v13.44H-8zm76.18 0h38.09v13.44H68.18zM124.19 135h38.09v13.44h-38.09zm38.09 0h38.09v13.44h-38.09zm38.09 0h38.09v13.44h-38.09zm-56.01 13.44h38.09v13.44h-38.09z"/><path class="cls-12" d="M106.27 148.44h38.09v13.44h-38.09zm76.18 0h38.09v13.44h-38.09zM238.46 135h38.09v13.44h-38.09z"/><path class="cls-12" d="M276.55 135h38.09v13.44h-38.09zm38.09 0h38.09v13.44h-38.09zm-56.01 13.44h38.09v13.44h-38.09zm-38.09 0h38.09v13.44h-38.09zm76.18 0h38.09v13.44h-38.09zM352.73 135h38.09v13.44h-38.09z"/><path class="cls-12" d="M390.82 135h38.09v13.44h-38.09zm38.09 0H467v13.44h-38.09zm-56.01 13.44h38.09v13.44H372.9zm-38.09 0h38.09v13.44h-38.09zm76.18 0h38.09v13.44h-38.09z"/><path class="cls-12" d="M466.73 135h38.09v13.44h-38.09z"/><path class="cls-12" d="M504.82 135h38.09v13.44h-38.09zm38.09 0H581v13.44h-38.09zm-56.01 13.44h38.09v13.44H486.9zm-38.09 0h38.09v13.44h-38.09zm76.18 0h38.09v13.44h-38.09z"/><path class="cls-12" d="M601 135v11h-1v2.44h-19.27V135H601zm-38.19 13.44h38.09v13.45h-38.09zM9.92 162h38.09v13.44H9.92z"/><path class="cls-12" d="M48.01 162H86.1v13.44H48.01zm38.09 0h38.09v13.44H86.1zm-56.01 13.44h38.09v13.44H30.09z"/><path class="cls-12" d="M-8 175.44h38.09v13.44H-8zm76.18 0h38.09v13.44H68.18zM124.19 162h38.09v13.44h-38.09zm38.09 0h38.09v13.44h-38.09zm38.09 0h38.09v13.44h-38.09zm-56.01 13.44h38.09v13.44h-38.09z"/><path class="cls-12" d="M106.27 175.44h38.09v13.44h-38.09zm76.18 0h38.09v13.44h-38.09zM238.46 162h38.09v13.44h-38.09z"/><path class="cls-12" d="M276.55 162h38.09v13.44h-38.09zm38.09 0h38.09v13.44h-38.09zm-56.01 13.44h38.09v13.44h-38.09zm-38.09 0h38.09v13.44h-38.09zm76.18 0h38.09v13.44h-38.09zM352.73 162h38.09v13.44h-38.09z"/><path class="cls-12" d="M390.82 162h38.09v13.44h-38.09zm38.09 0H467v13.44h-38.09zm-56.01 13.44h38.09v13.44H372.9zm-38.09 0h38.09v13.44h-38.09zm76.18 0h38.09v13.44h-38.09z"/><path class="cls-12" d="M466.73 162h38.09v13.44h-38.09z"/><path class="cls-12" d="M504.82 162h38.09v13.44h-38.09zm38.09 0H581v13.44h-38.09zm-56.01 13.44h38.09v13.44H486.9zm-38.09 0h38.09v13.44h-38.09zm76.18 0h38.09v13.44h-38.09z"/><path class="cls-12" d="M580.73 162H600v13.44h-19.27zm-17.92 13.44h38.09v13.45h-38.09zM9.92 189h38.09v13.44H9.92z"/><path class="cls-12" d="M48.01 189H86.1v13.44H48.01zm38.09 0h38.09v13.44H86.1zm-56.01 13.44h38.09v13.44H30.09z"/><path class="cls-12" d="M-8 202.44h38.09v13.44H-8zm76.18 0h38.09v13.44H68.18zM124.19 189h38.09v13.44h-38.09zm38.09 0h38.09v13.44h-38.09zm38.09 0h38.09v13.44h-38.09zm-56.01 13.44h38.09v13.44h-38.09z"/><path class="cls-12" d="M106.27 202.44h38.09v13.44h-38.09zm76.18 0h38.09v13.44h-38.09zM238.46 189h38.09v13.44h-38.09z"/><path class="cls-12" d="M276.55 189h38.09v13.44h-38.09zm38.09 0h38.09v13.44h-38.09zm-56.01 13.44h38.09v13.44h-38.09zm-38.09 0h38.09v13.44h-38.09zm76.18 0h38.09v13.44h-38.09zM352.73 189h38.09v13.44h-38.09z"/><path class="cls-12" d="M390.82 189h38.09v13.44h-38.09zm38.09 0H467v13.44h-38.09zm-56.01 13.44h38.09v13.44H372.9zm-38.09 0h38.09v13.44h-38.09zm76.18 0h38.09v13.44h-38.09z"/><path class="cls-12" d="M466.73 189h38.09v13.44h-38.09z"/><path class="cls-12" d="M504.82 189h38.09v13.44h-38.09zm38.09 0H581v13.44h-38.09zm-56.01 13.44h38.09v13.44H486.9zm-38.09 0h38.09v13.44h-38.09zm76.18 0h38.09v13.44h-38.09z"/><path class="cls-12" d="M580.73 189H600v13.44h-19.27zm-17.92 13.44h38.09v13.45h-38.09zM9.92 216h38.09v13.44H9.92z"/><path class="cls-12" d="M48.01 216H86.1v13.44H48.01zm38.09 0h38.09v13.44H86.1zm-56.01 13.44h38.09v13.44H30.09z"/><path class="cls-12" d="M-8 229.44h38.09v13.44H-8zm76.18 0h38.09v13.44H68.18zM124.19 216h38.09v13.44h-38.09zm38.09 0h38.09v13.44h-38.09zm38.09 0h38.09v13.44h-38.09zm-56.01 13.44h38.09v13.44h-38.09z"/><path class="cls-12" d="M106.27 229.44h38.09v13.44h-38.09zm76.18 0h38.09v13.44h-38.09zM238.46 216h38.09v13.44h-38.09z"/><path class="cls-12" d="M276.55 216h38.09v13.44h-38.09zm38.09 0h38.09v13.44h-38.09zm-56.01 13.44h38.09v13.44h-38.09zm-38.09 0h38.09v13.44h-38.09zm76.18 0h38.09v13.44h-38.09zM352.73 216h38.09v13.44h-38.09z"/><path class="cls-12" d="M390.82 216h38.09v13.44h-38.09zm38.09 0H467v13.44h-38.09zm-56.01 13.44h38.09v13.44H372.9zm-38.09 0h38.09v13.44h-38.09zm76.18 0h38.09v13.44h-38.09z"/><path class="cls-12" d="M466.73 216h38.09v13.44h-38.09z"/><path class="cls-12" d="M504.82 216h38.09v13.44h-38.09zm38.09 0H581v13.44h-38.09zm-56.01 13.44h38.09v13.44H486.9zm-38.09 0h38.09v13.44h-38.09zm76.18 0h38.09v13.44h-38.09z"/><path class="cls-12" d="M580.73 216H600v13.44h-19.27zm-17.92 13.44h38.09v13.45h-38.09zM9.92 243h38.09v13.44H9.92z"/><path class="cls-12" d="M48.01 243H86.1v13.44H48.01zm38.09 0h38.09v13.44H86.1zm-56.01 13.44h38.09v13.44H30.09z"/><path class="cls-12" d="M-8 256.44h38.09v13.44H-8zm76.18 0h38.09v13.44H68.18zM124.19 243h38.09v13.44h-38.09zm38.09 0h38.09v13.44h-38.09zm38.09 0h38.09v13.44h-38.09zm-56.01 13.44h38.09v13.44h-38.09z"/><path class="cls-12" d="M106.27 256.44h38.09v13.44h-38.09zm76.18 0h38.09v13.44h-38.09zM238.46 243h38.09v13.44h-38.09z"/><path class="cls-12" d="M276.55 243h38.09v13.44h-38.09zm38.09 0h38.09v13.44h-38.09zm-56.01 13.44h38.09v13.44h-38.09zm-38.09 0h38.09v13.44h-38.09zm76.18 0h38.09v13.44h-38.09zM352.73 243h38.09v13.44h-38.09z"/><path class="cls-12" d="M390.82 243h38.09v13.44h-38.09zm38.09 0H467v13.44h-38.09zm-56.01 13.44h38.09v13.44H372.9zm-38.09 0h38.09v13.44h-38.09zm76.18 0h38.09v13.44h-38.09z"/><path class="cls-12" d="M466.73 243h38.09v13.44h-38.09z"/><path class="cls-12" d="M504.82 243h38.09v13.44h-38.09zm38.09 0H581v13.44h-38.09zm-56.01 13.44h38.09v13.44H486.9zm-38.09 0h38.09v13.44h-38.09zm76.18 0h38.09v13.44h-38.09z"/><path class="cls-12" d="M580.73 243H600v13.44h-19.27zm-17.92 13.44h38.09v13.45h-38.09zM9.92 270h38.09v13.44H9.92z"/><path class="cls-12" d="M48.01 270H86.1v13.44H48.01zm38.09 0h38.09v13.44H86.1zm-56.01 13.44h38.09v13.44H30.09z"/><path class="cls-12" d="M-8 283.44h38.09v13.44H-8zm76.18 0h38.09v13.44H68.18zM124.19 270h38.09v13.44h-38.09zm38.09 0h38.09v13.44h-38.09zm38.09 0h38.09v13.44h-38.09zm-56.01 13.44h38.09v13.44h-38.09z"/><path class="cls-12" d="M106.27 283.44h38.09v13.44h-38.09zm76.18 0h38.09v13.44h-38.09zM238.46 270h38.09v13.44h-38.09z"/><path class="cls-12" d="M276.55 270h38.09v13.44h-38.09zm38.09 0h38.09v13.44h-38.09zm-56.01 13.44h38.09v13.44h-38.09zm-38.09 0h38.09v13.44h-38.09zm76.18 0h38.09v13.44h-38.09zM352.73 270h38.09v13.44h-38.09z"/><path class="cls-12" d="M390.82 270h38.09v13.44h-38.09zm38.09 0H467v13.44h-38.09zm-56.01 13.44h38.09v13.44H372.9zm-38.09 0h38.09v13.44h-38.09zm76.18 0h38.09v13.44h-38.09z"/><path class="cls-12" d="M466.73 270h38.09v13.44h-38.09z"/><path class="cls-12" d="M504.82 270h38.09v13.44h-38.09zm38.09 0H581v13.44h-38.09zm-56.01 13.44h38.09v13.44H486.9zm-38.09 0h38.09v13.44h-38.09zm76.18 0h38.09v13.44h-38.09z"/><path class="cls-12" d="M580.73 270H600v13.44h-19.27zm-17.92 13.44h38.09v13.45h-38.09zM9.92 297h38.09v13.44H9.92z"/><path class="cls-12" d="M48.01 297H86.1v13.44H48.01zm38.09 0h38.09v13.44H86.1zm-56.01 13.44h38.09v13.44H30.09z"/><path class="cls-12" d="M-8 310.44h38.09v13.44H-8zm76.18 0h38.09v13.44H68.18zM124.19 297h38.09v13.44h-38.09zm38.09 0h38.09v13.44h-38.09zm38.09 0h38.09v13.44h-38.09zm-56.01 13.44h38.09v13.44h-38.09z"/><path class="cls-12" d="M106.27 310.44h38.09v13.44h-38.09zm76.18 0h38.09v13.44h-38.09zM238.46 297h38.09v13.44h-38.09z"/><path class="cls-12" d="M276.55 297h38.09v13.44h-38.09zm38.09 0h38.09v13.44h-38.09zm-56.01 13.44h38.09v13.44h-38.09zm-38.09 0h38.09v13.44h-38.09zm76.18 0h38.09v13.44h-38.09zM352.73 297h38.09v13.44h-38.09z"/><path class="cls-12" d="M390.82 297h38.09v13.44h-38.09zm38.09 0H467v13.44h-38.09zm-56.01 13.44h38.09v13.44H372.9zm-38.09 0h38.09v13.44h-38.09zm76.18 0h38.09v13.44h-38.09z"/><path class="cls-12" d="M466.73 297h38.09v13.44h-38.09z"/><path class="cls-12" d="M504.82 297h38.09v13.44h-38.09zm38.09 0H581v13.44h-38.09zm-56.01 13.44h38.09v13.44H486.9zm-38.09 0h38.09v13.44h-38.09zm76.18 0h38.09v13.44h-38.09z"/><path class="cls-12" d="M580.73 297H601v13.44h-20.27zm-17.92 13.44h38.09v13.44h-38.09zM9.92 324h38.09v13.44H9.92z"/><path class="cls-12" d="M48.01 324H86.1v13.44H48.01zm38.09 0h38.09v13.44H86.1zm-56.01 13.44h38.09v13.44H30.09z"/><path class="cls-12" d="M-8 337.44h38.09v13.44H-8zm76.18 0h38.09v13.44H68.18zM124.19 324h38.09v13.44h-38.09zm38.09 0h38.09v13.44h-38.09zm38.09 0h38.09v13.44h-38.09zm-56.01 13.44h38.09v13.44h-38.09z"/><path class="cls-12" d="M106.27 337.44h38.09v13.44h-38.09zm76.18 0h38.09v13.44h-38.09zM238.46 324h38.09v13.44h-38.09z"/><path class="cls-12" d="M276.55 324h38.09v13.44h-38.09zm38.09 0h38.09v13.44h-38.09zm-56.01 13.44h38.09v13.44h-38.09zm-38.09 0h38.09v13.44h-38.09zm76.18 0h38.09v13.44h-38.09zM352.73 324h38.09v13.44h-38.09z"/><path class="cls-12" d="M390.82 324h38.09v13.44h-38.09zm38.09 0H467v13.44h-38.09zm-56.01 13.44h38.09v13.44H372.9zm-38.09 0h38.09v13.44h-38.09zm76.18 0h38.09v13.44h-38.09z"/><path class="cls-12" d="M466.73 324h38.09v13.44h-38.09z"/><path class="cls-12" d="M504.82 324h38.09v13.44h-38.09zm38.09 0H581v13.44h-38.09zm-56.01 13.44h38.09v13.44H486.9zm-38.09 0h38.09v13.44h-38.09zm76.18 0h38.09v13.44h-38.09z"/><path class="cls-12" d="M580.73 324H601v13.44h-20.27zm-17.92 13.44h38.09v13.44h-38.09zM9.92 351h38.09v13.44H9.92z"/><path class="cls-12" d="M48.01 351H86.1v13.44H48.01zm38.09 0h38.09v13.44H86.1zm-56.01 13.44h38.09v13.44H30.09z"/><path class="cls-12" d="M-8 364.44h38.09v13.44H-8zm76.18 0h38.09v13.44H68.18zM124.19 351h38.09v13.44h-38.09zm38.09 0h38.09v13.44h-38.09zm38.09 0h38.09v13.44h-38.09zm-56.01 13.44h38.09v13.44h-38.09z"/><path class="cls-12" d="M106.27 364.44h38.09v13.44h-38.09zm76.18 0h38.09v13.44h-38.09zM238.46 351h38.09v13.44h-38.09z"/><path class="cls-12" d="M276.55 351h38.09v13.44h-38.09zm38.09 0h38.09v13.44h-38.09zm-56.01 13.44h38.09v13.44h-38.09zm-38.09 0h38.09v13.44h-38.09zm76.18 0h38.09v13.44h-38.09zM352.73 351h38.09v13.44h-38.09z"/><path class="cls-12" d="M390.82 351h38.09v13.44h-38.09zm38.09 0H467v13.44h-38.09zm-56.01 13.44h38.09v13.44H372.9zm-38.09 0h38.09v13.44h-38.09zm76.18 0h38.09v13.44h-38.09z"/><path class="cls-12" d="M466.73 351h38.09v13.44h-38.09z"/><path class="cls-12" d="M504.82 351h38.09v13.44h-38.09zm38.09 0H581v13.44h-38.09zm-56.01 13.44h38.09v13.44H486.9zm-38.09 0h38.09v13.44h-38.09zm76.18 0h38.09v13.44h-38.09z"/><path class="cls-12" d="M580.73 351H601v13.44h-20.27zm-17.92 13.44h38.09v13.44h-38.09zM9.92 378h38.09v13.44H9.92z"/><path class="cls-12" d="M48.01 378H86.1v13.44H48.01zm38.09 0h38.09v13.44H86.1zm-56.01 13.44h38.09v13.44H30.09z"/><path class="cls-12" d="M-8 391.44h38.09v13.44H-8zm76.18 0h38.09v13.44H68.18zM124.19 378h38.09v13.44h-38.09zm38.09 0h38.09v13.44h-38.09zm38.09 0h38.09v13.44h-38.09zm-56.01 13.44h38.09v13.44h-38.09z"/><path class="cls-12" d="M106.27 391.44h38.09v13.44h-38.09zm76.18 0h38.09v13.44h-38.09zM238.46 378h38.09v13.44h-38.09z"/><path class="cls-12" d="M276.55 378h38.09v13.44h-38.09zm38.09 0h38.09v13.44h-38.09zm-56.01 13.44h38.09v13.44h-38.09zm-38.09 0h38.09v13.44h-38.09zm76.18 0h38.09v13.44h-38.09zM352.73 378h38.09v13.44h-38.09z"/><path class="cls-12" d="M390.82 378h38.09v13.44h-38.09zm38.09 0H467v13.44h-38.09zm-56.01 13.44h38.09v13.44H372.9zm-38.09 0h38.09v13.44h-38.09zm76.18 0h38.09v13.44h-38.09z"/><path class="cls-12" d="M466.73 378h38.09v13.44h-38.09z"/><path class="cls-12" d="M504.82 378h38.09v13.44h-38.09zm38.09 0H581v13.44h-38.09zm-56.01 13.44h38.09v13.44H486.9zm-38.09 0h38.09v13.44h-38.09zm76.18 0h38.09v13.44h-38.09z"/><path class="cls-12" d="M580.73 378H601v13.44h-20.27zm-17.92 13.44h38.09v13.44h-38.09zM9.92 405h38.09v13.44H9.92z"/><path class="cls-12" d="M48.01 405H86.1v13.44H48.01zm38.09 0h38.09v13.44H86.1zm-56.01 13.44h38.09v13.44H30.09z"/><path class="cls-12" d="M-8 418.44h38.09v13.44H-8zm76.18 0h38.09v13.44H68.18zM124.19 405h38.09v13.44h-38.09zm38.09 0h38.09v13.44h-38.09zm38.09 0h38.09v13.44h-38.09zm-56.01 13.44h38.09v13.44h-38.09z"/><path class="cls-12" d="M106.27 418.44h38.09v13.44h-38.09zm76.18 0h38.09v13.44h-38.09zM238.46 405h38.09v13.44h-38.09z"/><path class="cls-12" d="M276.55 405h38.09v13.44h-38.09zm38.09 0h38.09v13.44h-38.09zm-56.01 13.44h38.09v13.44h-38.09zm-38.09 0h38.09v13.44h-38.09zm76.18 0h38.09v13.44h-38.09zM352.73 405h38.09v13.44h-38.09z"/><path class="cls-12" d="M390.82 405h38.09v13.44h-38.09zm38.09 0H467v13.44h-38.09zm-56.01 13.44h38.09v13.44H372.9zm-38.09 0h38.09v13.44h-38.09zm76.18 0h38.09v13.44h-38.09z"/><path class="cls-12" d="M466.73 405h38.09v13.44h-38.09z"/><path class="cls-12" d="M504.82 405h38.09v13.44h-38.09zm38.09 0H581v13.44h-38.09zm-56.01 13.44h38.09v13.44H486.9zm-38.09 0h38.09v13.44h-38.09zm76.18 0h38.09v13.44h-38.09z"/><path class="cls-12" d="M580.73 405H601v13.44h-20.27zm-17.92 13.44h38.09v13.44h-38.09zM9.92 432h38.09v13.44H9.92z"/><path class="cls-12" d="M48.01 432H86.1v13.44H48.01zm38.09 0h38.09v13.44H86.1zm-56.01 13.44h38.09v13.44H30.09z"/><path class="cls-12" d="M-8 445.44h38.09v13.44H-8zm76.18 0h38.09v13.44H68.18zM124.19 432h38.09v13.44h-38.09zm38.09 0h38.09v13.44h-38.09zm38.09 0h38.09v13.44h-38.09zm-56.01 13.44h38.09v13.44h-38.09z"/><path class="cls-12" d="M106.27 445.44h38.09v13.44h-38.09zm76.18 0h38.09v13.44h-38.09zM238.46 432h38.09v13.44h-38.09z"/><path class="cls-12" d="M276.55 432h38.09v13.44h-38.09zm38.09 0h38.09v13.44h-38.09zm-56.01 13.44h38.09v13.44h-38.09zm-38.09 0h38.09v13.44h-38.09zm76.18 0h38.09v13.44h-38.09zM352.73 432h38.09v13.44h-38.09z"/><path class="cls-12" d="M390.82 432h38.09v13.44h-38.09zm38.09 0H467v13.44h-38.09zm-56.01 13.44h38.09v13.44H372.9zm-38.09 0h38.09v13.44h-38.09zm76.18 0h38.09v13.44h-38.09z"/><path class="cls-12" d="M466.73 432h38.09v13.44h-38.09z"/><path class="cls-12" d="M504.82 432h38.09v13.44h-38.09zm38.09 0H581v13.44h-38.09zm-56.01 13.44h38.09v13.44H486.9zm-38.09 0h38.09v13.44h-38.09zm76.18 0h38.09v13.44h-38.09z"/><path class="cls-12" d="M580.73 432H600v13.44h-19.27zm-17.92 13.44h38.09v13.45h-38.09zM9.92 459h38.09v13.44H9.92z"/><path class="cls-12" d="M48.01 459H86.1v13.44H48.01zm38.09 0h38.09v13.44H86.1zm-56.01 13.44h38.09v13.44H30.09z"/><path class="cls-12" d="M-8 472.44h38.09v13.44H-8zm76.18 0h38.09v13.44H68.18zM124.19 459h38.09v13.44h-38.09zm38.09 0h38.09v13.44h-38.09zm38.09 0h38.09v13.44h-38.09zm-56.01 13.44h38.09v13.44h-38.09z"/><path class="cls-12" d="M106.27 472.44h38.09v13.44h-38.09zm76.18 0h38.09v13.44h-38.09zM238.46 459h38.09v13.44h-38.09z"/><path class="cls-12" d="M276.55 459h38.09v13.44h-38.09zm38.09 0h38.09v13.44h-38.09zm-56.01 13.44h38.09v13.44h-38.09zm-38.09 0h38.09v13.44h-38.09zm76.18 0h38.09v13.44h-38.09zM352.73 459h38.09v13.44h-38.09z"/><path class="cls-12" d="M390.82 459h38.09v13.44h-38.09zm38.09 0H467v13.44h-38.09zm-56.01 13.44h38.09v13.44H372.9zm-38.09 0h38.09v13.44h-38.09zm76.18 0h38.09v13.44h-38.09z"/><path class="cls-12" d="M466.73 459h38.09v13.44h-38.09z"/><path class="cls-12" d="M504.82 459h38.09v13.44h-38.09zm38.09 0H581v13.44h-38.09zm-56.01 13.44h38.09v13.44H486.9zm-38.09 0h38.09v13.44h-38.09zm76.18 0h38.09v13.44h-38.09z"/><path class="cls-12" d="M580.73 459H600v13.44h-19.27zm-17.92 13.44h38.09v13.45h-38.09zM9.92 486h38.09v13.44H9.92z"/><path class="cls-12" d="M48.01 486H86.1v13.44H48.01zm38.09 0h38.09v13.44H86.1zm38.09 0h38.09v13.44h-38.09zm38.09 0h38.09v13.44h-38.09zm38.09 0h38.09v13.44h-38.09zm38.09 0h38.09v13.44h-38.09z"/><path class="cls-12" d="M276.55 486h38.09v13.44h-38.09zm38.09 0h38.09v4h-38.09zm38.09 0h38.09v4h-38.09z"/><path class="cls-12" d="M390.82 486h38.09v4h-38.09zm38.09 0H467v4h-38.09z"/><path class="cls-12" d="M466.73 486h38.09v4h-38.09z"/><path class="cls-12" d="M504.82 486h38.09v4h-38.09zm38.09 0H581v13.44h-38.09z"/><path class="cls-12" d="M600 486v4h-19v9.44h-.27V486H600z"/></g><path fill="#352a23" d="M0 432h600v6H0z"/></g><g id="Дверь"><path class="cls-14" d="M219 115h167v313H219z"/><path class="cls-14" d="M376 125v293H229V125h147m20-20H209v333h187V105z"/><path d="M378 123v297H227V123h151m18-18H209v333h187V105z" fill="#53463e"/><path d="M396 105v333H209V105h187m1-1H208v335h189V104z" fill="#1e0e05"/><path class="cls-14" d="M227 415h151v23H227z"/></g><path fill="#a3b4be" d="M0 438h600v52H0z"/><path class="cls-18" d="M0 464.54V438h130.33c7 2.93 12.24 5 12.91 5 1.93.06-111.74 16.88-143.24 21.54z"/><path fill="#dce5ea" d="M396 490H209l1.38-4 .04-.11 4.66-13.45 4.65-13.44.04-.11.77-2.23 3.88-11.22L227 438h151l2.58 7.44 4.65 13.45.04.11 4.65 13.44 4.66 13.45.04.11 1.38 4z"/><path fill="#b0c2cc" d="M226.12 438.42L209 490H0v-28l226.12-23.58z"/><path class="cls-21" d="M227 438L75 453V108l152 15v315z"/><path fill="#aeaaab" d="M221.5 127.47v306.05L81.55 446.9V114.1l139.95 13.37z"/><path fill="#dfdfdf" d="M221.5 157.9v275.62L95.52 445.56 221.5 157.9z"/><path class="cls-21" d="M144.41 315.73l-24.59.52V139.1l24.59 2.04v174.59z"/><path class="cls-24" d="M148.95 320.36l-33.82.8V133.9l33.82 2.9v183.56z"/><path class="cls-21" d="M189.62 314.79l-23.28.48V142.96l23.28 1.94v169.89z"/><path class="cls-24" d="M193.91 319.29l-32 .76V137.91l32 2.75v178.63z"/><path class="cls-21" d="M144.41 422.94l-24.59 2.08v-81.48l24.59-.91v80.31z"/><path class="cls-24" d="M148.95 426.3l-33.82 2.94v-89.35l33.82-1.18v87.59z"/><path class="cls-21" d="M189.62 419.1l-23.28 1.98v-79.27l23.28-.86v78.15z"/><path class="cls-24" d="M193.91 422.38l-32 2.79v-86.91l32-1.11v85.23z"/><path d="M95.56 314.59l-8.59.17v-30.45l8.59-.02v30.3zm0 16.24l-8.59.25v-8.7l8.59-.21v8.66z" fill="#d8d8d8"/><path class="cls-26" d="M94.49 301.62l-6.44.08v-7.61l6.44-.05v7.58z"/><path class="cls-27" d="M106.19 299.32l-15.99.18v-3.26l15.99-.14v3.22z"/><rect class="cls-26" x="95.56" y="298.35" width="1.07" transform="rotate(-.59 96.542 299.606)"/><path class="cls-27" d="M92.35 312.49l-2.15.04v-5.43l2.15-.03v5.42zm-3.77 13.65v-1.63l5.38-.13V326l-5.38.14zm0 2.18v-1.63l5.38-.15v1.63l-5.38.15z"/></g><g id="Слой_2" data-name="Слой 2"><g id="оборудование"><path class="cls-14" d="M230 96.12c-1.51 0-2.91-4.07-4.16-12.1a186 186 0 01-2-19.8V48.78a6.9 6.9 0 016.9-6.9h142.48a6.9 6.9 0 016.9 6.9v15.44c0 2.34-.42 12-1.38 19.8-1 8.14-2.22 12.1-3.74 12.1z"/><path d="M373.22 42a6.79 6.79 0 016.78 6.78v15.44c0 2.08-.39 11.67-1.38 19.78-.79 6.47-2 12-3.62 12H230c-1.66 0-3-5.53-4-12a189.23 189.23 0 01-2-19.78V48.78a6.79 6.79 0 016.78-6.78h142.44m0-.25H230.78a7 7 0 00-7 7v15.47a189.3 189.3 0 002 19.82c1.91 12.21 3.7 12.21 4.29 12.21H375c.59 0 2.38 0 3.87-12.22 1-7.84 1.38-17.47 1.38-19.81V48.78a7 7 0 00-7-7z"/><rect class="cls-28" x="236" y="48" width="1.24" height="8" rx=".5"/><rect class="cls-28" x="238.48" y="48" width="1.24" height="8" rx=".5"/><rect class="cls-28" x="240.96" y="48" width="1.24" height="8" rx=".5"/><rect class="cls-28" x="243.44" y="48" width="1.24" height="8" rx=".5"/><rect class="cls-28" x="245.92" y="48" width="1.24" height="8" rx=".5"/><rect class="cls-28" x="248.41" y="48" width="1.24" height="8" rx=".5"/><rect class="cls-28" x="250.89" y="48" width="1.24" height="8" rx=".5"/><rect class="cls-28" x="253.37" y="48" width="1.24" height="8" rx=".5"/><rect class="cls-28" x="255.85" y="48" width="1.24" height="8" rx=".5"/><rect class="cls-28" x="258.33" y="48" width="1.24" height="8" rx=".5"/><rect class="cls-28" x="260.81" y="48" width="1.24" height="8" rx=".5"/><rect class="cls-28" x="263.29" y="48" width="1.24" height="8" rx=".5"/><rect class="cls-28" x="265.77" y="48" width="1.24" height="8" rx=".5"/><rect class="cls-28" x="268.25" y="48" width="1.24" height="8" rx=".5"/><rect class="cls-28" x="270.73" y="48" width="1.24" height="8" rx=".5"/><rect class="cls-28" x="273.22" y="48" width="1.24" height="8" rx=".5"/><rect class="cls-28" x="275.7" y="48" width="1.24" height="8" rx=".5"/><rect class="cls-28" x="278.18" y="48" width="1.24" height="8" rx=".5"/><rect class="cls-28" x="280.66" y="48" width="1.24" height="8" rx=".5"/><rect class="cls-28" x="283.14" y="48" width="1.24" height="8" rx=".5"/><rect class="cls-28" x="285.62" y="48" width="1.24" height="8" rx=".5"/><rect class="cls-28" x="288.1" y="48" width="1.24" height="8" rx=".5"/><rect class="cls-28" x="290.58" y="48" width="1.24" height="8" rx=".5"/><rect class="cls-28" x="293.06" y="48" width="1.24" height="8" rx=".5"/><rect class="cls-28" x="295.54" y="48" width="1.24" height="8" rx=".5"/><rect class="cls-28" x="298.03" y="48" width="1.24" height="8" rx=".5"/><rect class="cls-28" x="300.51" y="48" width="1.24" height="8" rx=".5"/><rect class="cls-28" x="302.99" y="48" width="1.24" height="8" rx=".5"/><rect class="cls-28" x="305.47" y="48" width="1.24" height="8" rx=".5"/><rect class="cls-28" x="307.95" y="48" width="1.24" height="8" rx=".5"/><rect class="cls-28" x="310.43" y="48" width="1.24" height="8" rx=".5"/><rect class="cls-28" x="312.91" y="48" width="1.24" height="8" rx=".5"/><rect class="cls-28" x="315.39" y="48" width="1.24" height="8" rx=".5"/><rect class="cls-28" x="317.87" y="48" width="1.24" height="8" rx=".5"/><rect class="cls-28" x="320.35" y="48" width="1.24" height="8" rx=".5"/><rect class="cls-28" x="322.84" y="48" width="1.24" height="8" rx=".5"/><rect class="cls-28" x="325.32" y="48" width="1.24" height="8" rx=".5"/><rect class="cls-28" x="327.8" y="48" width="1.24" height="8" rx=".5"/><rect class="cls-28" x="330.28" y="48" width="1.24" height="8" rx=".5"/><rect class="cls-28" x="332.76" y="48" width="1.24" height="8" rx=".5"/><rect class="cls-28" x="236" y="57" width="1.24" height="8" rx=".5"/><rect class="cls-28" x="238.48" y="57" width="1.24" height="8" rx=".5"/><rect class="cls-28" x="240.96" y="57" width="1.24" height="8" rx=".5"/><rect class="cls-28" x="243.44" y="57" width="1.24" height="8" rx=".5"/><rect class="cls-28" x="245.92" y="57" width="1.24" height="8" rx=".5"/><rect class="cls-28" x="248.41" y="57" width="1.24" height="8" rx=".5"/><rect class="cls-28" x="250.89" y="57" width="1.24" height="8" rx=".5"/><rect class="cls-28" x="253.37" y="57" width="1.24" height="8" rx=".5"/><rect class="cls-28" x="255.85" y="57" width="1.24" height="8" rx=".5"/><rect class="cls-28" x="258.33" y="57" width="1.24" height="8" rx=".5"/><rect class="cls-28" x="260.81" y="57" width="1.24" height="8" rx=".5"/><rect class="cls-28" x="263.29" y="57" width="1.24" height="8" rx=".5"/><rect class="cls-28" x="265.77" y="57" width="1.24" height="8" rx=".5"/><rect class="cls-28" x="268.25" y="57" width="1.24" height="8" rx=".5"/><rect class="cls-28" x="270.73" y="57" width="1.24" height="8" rx=".5"/><rect class="cls-28" x="273.22" y="57" width="1.24" height="8" rx=".5"/><rect class="cls-28" x="275.7" y="57" width="1.24" height="8" rx=".5"/><rect class="cls-28" x="278.18" y="57" width="1.24" height="8" rx=".5"/><rect class="cls-28" x="280.66" y="57" width="1.24" height="8" rx=".5"/><rect class="cls-28" x="283.14" y="57" width="1.24" height="8" rx=".5"/><rect class="cls-28" x="285.62" y="57" width="1.24" height="8" rx=".5"/><rect class="cls-28" x="288.1" y="57" width="1.24" height="8" rx=".5"/><rect class="cls-28" x="290.58" y="57" width="1.24" height="8" rx=".5"/><rect class="cls-28" x="293.06" y="57" width="1.24" height="8" rx=".5"/><rect class="cls-28" x="295.54" y="57" width="1.24" height="8" rx=".5"/><rect class="cls-28" x="298.03" y="57" width="1.24" height="8" rx=".5"/><rect class="cls-28" x="300.51" y="57" width="1.24" height="8" rx=".5"/><rect class="cls-28" x="302.99" y="57" width="1.24" height="8" rx=".5"/><rect class="cls-28" x="305.47" y="57" width="1.24" height="8" rx=".5"/><rect class="cls-28" x="307.95" y="57" width="1.24" height="8" rx=".5"/><rect class="cls-28" x="310.43" y="57" width="1.24" height="8" rx=".5"/><rect class="cls-28" x="312.91" y="57" width="1.24" height="8" rx=".5"/><rect class="cls-28" x="315.39" y="57" width="1.24" height="8" rx=".5"/><rect class="cls-28" x="317.87" y="57" width="1.24" height="8" rx=".5"/><rect class="cls-28" x="320.35" y="57" width="1.24" height="8" rx=".5"/><rect class="cls-28" x="322.84" y="57" width="1.24" height="8" rx=".5"/><rect class="cls-28" x="325.32" y="57" width="1.24" height="8" rx=".5"/><rect class="cls-28" x="327.8" y="57" width="1.24" height="8" rx=".5"/><rect class="cls-28" x="330.28" y="57" width="1.24" height="8" rx=".5"/><rect class="cls-28" x="332.76" y="57" width="1.24" height="8" rx=".5"/><rect class="cls-28" x="236" y="66" width="1.24" height="8" rx=".5"/><rect class="cls-28" x="238.48" y="66" width="1.24" height="8" rx=".5"/><rect class="cls-28" x="240.96" y="66" width="1.24" height="8" rx=".5"/><rect class="cls-28" x="243.44" y="66" width="1.24" height="8" rx=".5"/><rect class="cls-28" x="245.92" y="66" width="1.24" height="8" rx=".5"/><rect class="cls-28" x="248.41" y="66" width="1.24" height="8" rx=".5"/><rect class="cls-28" x="250.89" y="66" width="1.24" height="8" rx=".5"/><rect class="cls-28" x="253.37" y="66" width="1.24" height="8" rx=".5"/><rect class="cls-28" x="255.85" y="66" width="1.24" height="8" rx=".5"/><rect class="cls-28" x="258.33" y="66" width="1.24" height="8" rx=".5"/><rect class="cls-28" x="260.81" y="66" width="1.24" height="8" rx=".5"/><rect class="cls-28" x="263.29" y="66" width="1.24" height="8" rx=".5"/><rect class="cls-28" x="265.77" y="66" width="1.24" height="8" rx=".5"/><rect class="cls-28" x="268.25" y="66" width="1.24" height="8" rx=".5"/><rect class="cls-28" x="270.73" y="66" width="1.24" height="8" rx=".5"/><rect class="cls-28" x="273.22" y="66" width="1.24" height="8" rx=".5"/><rect class="cls-28" x="275.7" y="66" width="1.24" height="8" rx=".5"/><rect class="cls-28" x="278.18" y="66" width="1.24" height="8" rx=".5"/><rect class="cls-28" x="280.66" y="66" width="1.24" height="8" rx=".5"/><rect class="cls-28" x="283.14" y="66" width="1.24" height="8" rx=".5"/><rect class="cls-28" x="285.62" y="66" width="1.24" height="8" rx=".5"/><rect class="cls-28" x="288.1" y="66" width="1.24" height="8" rx=".5"/><rect class="cls-28" x="290.58" y="66" width="1.24" height="8" rx=".5"/><rect class="cls-28" x="293.06" y="66" width="1.24" height="8" rx=".5"/><rect class="cls-28" x="295.54" y="66" width="1.24" height="8" rx=".5"/><rect class="cls-28" x="298.03" y="66" width="1.24" height="8" rx=".5"/><rect class="cls-28" x="300.51" y="66" width="1.24" height="8" rx=".5"/><rect class="cls-28" x="302.99" y="66" width="1.24" height="8" rx=".5"/><rect class="cls-28" x="305.47" y="66" width="1.24" height="8" rx=".5"/><rect class="cls-28" x="307.95" y="66" width="1.24" height="8" rx=".5"/><rect class="cls-28" x="310.43" y="66" width="1.24" height="8" rx=".5"/><rect class="cls-28" x="312.91" y="66" width="1.24" height="8" rx=".5"/><rect class="cls-28" x="315.39" y="66" width="1.24" height="8" rx=".5"/><rect class="cls-28" x="317.87" y="66" width="1.24" height="8" rx=".5"/><rect class="cls-28" x="320.35" y="66" width="1.24" height="8" rx=".5"/><rect class="cls-28" x="322.84" y="66" width="1.24" height="8" rx=".5"/><rect class="cls-28" x="325.32" y="66" width="1.24" height="8" rx=".5"/><rect class="cls-28" x="327.8" y="66" width="1.24" height="8" rx=".5"/><rect class="cls-28" x="330.28" y="66" width="1.24" height="8" rx=".5"/><rect class="cls-28" x="332.76" y="66" width="1.24" height="8" rx=".5"/><rect class="cls-28" x="236" y="75" width="1.24" height="8" rx=".5"/><rect class="cls-28" x="238.48" y="75" width="1.24" height="8" rx=".5"/><rect class="cls-28" x="240.96" y="75" width="1.24" height="8" rx=".5"/><rect class="cls-28" x="243.44" y="75" width="1.24" height="8" rx=".5"/><rect class="cls-28" x="245.92" y="75" width="1.24" height="8" rx=".5"/><rect class="cls-28" x="248.41" y="75" width="1.24" height="8" rx=".5"/><rect class="cls-28" x="250.89" y="75" width="1.24" height="8" rx=".5"/><rect class="cls-28" x="253.37" y="75" width="1.24" height="8" rx=".5"/><rect class="cls-28" x="255.85" y="75" width="1.24" height="8" rx=".5"/><rect class="cls-28" x="258.33" y="75" width="1.24" height="8" rx=".5"/><rect class="cls-28" x="260.81" y="75" width="1.24" height="8" rx=".5"/><rect class="cls-28" x="263.29" y="75" width="1.24" height="8" rx=".5"/><rect class="cls-28" x="265.77" y="75" width="1.24" height="8" rx=".5"/><rect class="cls-28" x="268.25" y="75" width="1.24" height="8" rx=".5"/><rect class="cls-28" x="270.73" y="75" width="1.24" height="8" rx=".5"/><rect class="cls-28" x="273.22" y="75" width="1.24" height="8" rx=".5"/><rect class="cls-28" x="275.7" y="75" width="1.24" height="8" rx=".5"/><rect class="cls-28" x="278.18" y="75" width="1.24" height="8" rx=".5"/><rect class="cls-28" x="280.66" y="75" width="1.24" height="8" rx=".5"/><rect class="cls-28" x="283.14" y="75" width="1.24" height="8" rx=".5"/><rect class="cls-28" x="285.62" y="75" width="1.24" height="8" rx=".5"/><rect class="cls-28" x="288.1" y="75" width="1.24" height="8" rx=".5"/><rect class="cls-28" x="290.58" y="75" width="1.24" height="8" rx=".5"/><rect class="cls-28" x="293.06" y="75" width="1.24" height="8" rx=".5"/><rect class="cls-28" x="295.54" y="75" width="1.24" height="8" rx=".5"/><rect class="cls-28" x="298.03" y="75" width="1.24" height="8" rx=".5"/><rect class="cls-28" x="300.51" y="75" width="1.24" height="8" rx=".5"/><rect class="cls-28" x="302.99" y="75" width="1.24" height="8" rx=".5"/><rect class="cls-28" x="305.47" y="75" width="1.24" height="8" rx=".5"/><rect class="cls-28" x="307.95" y="75" width="1.24" height="8" rx=".5"/><rect class="cls-28" x="310.43" y="75" width="1.24" height="8" rx=".5"/><rect class="cls-28" x="312.91" y="75" width="1.24" height="8" rx=".5"/><rect class="cls-28" x="315.39" y="75" width="1.24" height="8" rx=".5"/><rect class="cls-28" x="317.87" y="75" width="1.24" height="8" rx=".5"/><rect class="cls-28" x="320.35" y="75" width="1.24" height="8" rx=".5"/><rect class="cls-28" x="322.84" y="75" width="1.24" height="8" rx=".5"/><rect class="cls-28" x="325.32" y="75" width="1.24" height="8" rx=".5"/><rect class="cls-28" x="327.8" y="75" width="1.24" height="8" rx=".5"/><rect class="cls-28" x="330.28" y="75" width="1.24" height="8" rx=".5"/><rect class="cls-28" x="332.76" y="75" width="1.24" height="8" rx=".5"/><path d="M378.62 84c-.79 6.47-2 12-3.62 12H230c-1.66 0-3-5.53-4-12z" fill="url(#Безымянный_градиент_4)"/><use transform="matrix(.1 0 0 .1 337 65.75)" xlink:href="#image-2"/></g><use transform="translate(337 99)" xlink:href="#image"/><use transform="translate(345 99)" xlink:href="#image"/><use transform="translate(354 99)" xlink:href="#image"/><use transform="translate(363 99)" xlink:href="#image"/></g><g id="оборудование_провода" data-name="оборудование+ провода"><path stroke="#66cc01" stroke-miterlimit="10" fill="none" d="M437 212V77h-57"/><g id="Пулльт"><rect x="416" y="209" width="40" height="40" rx="1.72" fill="#eaeaea"/><path fill="#3101f7" d="M421 213h30v22h-30z"/><path class="cls-26" d="M449 239v4h-32.42a1.58 1.58 0 01-1.58-1.58v-.84a1.59 1.59 0 011.59-1.58z"/><path class="cls-33" d="M429.5 239v4m-6.5-4v4m12.5-4v4m5-4v4"/><path fill="#db2828" d="M446.5 239h2.5v4h-2.5z"/><path class="cls-33" d="M446.5 243v-4"/><use transform="matrix(.07 0 0 .07 423 245)" xlink:href="#image-2"/><path d="M419.62 240.39a.91.91 0 01.31.68.93.93 0 01-1.86 0 .91.91 0 01.31-.68m.62-.39v1m8.5-.85l-2 2m2 0l-2-2m1 2.41v-2.83m-1.41 1.42h2.82" stroke="#4f4f4f" stroke-width=".25" stroke-miterlimit="10" fill="none"/><path class="cls-36" d="M433.33 239.82a2.45 2.45 0 01-.53.66 2.11 2.11 0 00-.62.57 4.09 4.09 0 01-1.18 1.15 4.09 4.09 0 011.15-1.23 2.11 2.11 0 00.57-.62 2.45 2.45 0 01.66-.53z"/><path class="cls-36" d="M433.12 242.36a2.57 2.57 0 01-.57-.62 2.13 2.13 0 00-.48-.7 4 4 0 01-.95-1.39 4 4 0 011 1.32 2.4 2.4 0 00.53.65 2.28 2.28 0 01.43.74zm4.88-2.23l-1 1.74h2l-1-1.74zm5.5 1.74l1-1.74h-2l1 1.74z"/><path class="cls-33" d="M421 220h30m-30 7h30m-29-11h2m-2 16h2m3 0h2m3 0h2m3 0h2m4 0h2m-19-16h2m2 0h2"/><text class="cls-37" transform="matrix(.85 0 0 1 423.9 225.55)">25°</text><text class="cls-37" transform="matrix(.85 0 0 1 440.9 225.55)">27°</text></g></g><path class="cls-18" d="M220.28 465.72l-75.99 33.72-7.57-3.44 54.78-37 28.78 6.72zM155.73 463L107 490.6l13.34 2.12 61.21-27-25.82-2.72z"/><path d="M164.21 454.67v.6c-9.38 4.3-10 5.67-9 9.8l23.37-.19-9-10.21zm49.52 0v.6c9.38 4.3 10 5.67 9 9.8l-23.37-.19 9-10.21z" fill="#463016"/><path d="M214.57 454.29s-12.12 10.93-15.72 10.81a36.8 36.8 0 00-4.65 0l-2.8-4.85s5.58-56.88 2.82-92.06a94.81 94.81 0 00-2.82-18.07l-5.09-.13s-1.84 3.15-2.81 17.68c-1 15.19-1.06 42.79 2.93 92.21a31.39 31.39 0 01-2.69 5.19l-6-.22s-12.42-10.56-14.65-10.56l2.36-3.47 2.36-.25s6-28.93-1.37-101.44c.75-2.36 1.12-3.36 1.12-3.36l-.17-6.92v-3.13s25.8 2.25 39.28 0a30.68 30.68 0 003.68-.84v10.88l1.12 3.27s-7.82 61.46-1.24 101.32a4.85 4.85 0 002.23.37l2.19 3.6z" fill="#23282e"/><path d="M194.62 352.75l4.73 1.22-5.09.74v13.48a94.81 94.81 0 00-2.82-18.07l-5.09-.13s-1.84 3.15-2.81 17.68c0-.15-1-11.72-1.29-11.72s-6.08-1.41-6.08-1.41l6.83-1.32s-5.59-1.41-6.83-3.87c5.83.77 5 .1 7.7 0l-1.52-3.62a15.66 15.66 0 006.08 2.59c2.84.3 5.41-3.43 5.49-3.54-.06.16-2.62 7.3 7.2 5.34a45.44 45.44 0 01-6.46 2.63z" fill="#1d1f25"/><path d="M210.27 335.3v2.51a328.59 328.59 0 01-42.88 1v-3.13s25.8 2.25 39.28 0c1.26-.11 2.48-.24 3.68-.39z" fill="#1d2125"/><path d="M188.12 336.66c0 1 .08 1.95.1 2.93v5.83c0 .97-.05 1.95-.09 2.92l-.8-.4c.42-.36.85-.76 1.26-1.16s.81-.81 1.2-1.22a30.34 30.34 0 002.19-2.64c.34-.47.66-.94 1-1.43.15-.24.29-.49.43-.74s.27-.51.38-.77a9.58 9.58 0 00.91-3.31 7.41 7.41 0 010 1.76c0 .15 0 .3-.07.45l-.09.43c0 .15-.08.29-.11.43l-.06.22-.08.21a11.92 11.92 0 01-.68 1.65c-.13.27-.27.53-.42.79s-.3.52-.46.77a22.75 22.75 0 01-2.16 2.83c-.39.44-.8.87-1.22 1.28s-.86.81-1.32 1.21l-.86.72.05-1.12c0-1 .1-1.94.17-2.92s.13-1.94.21-2.91c0-.48.08-1 .13-1.45s.08-1 .14-1.45c.1-1 .21-1.94.35-2.91zm22.15 9.07a9.65 9.65 0 01-1.67-.32 11.44 11.44 0 01-1.61-.58 10.78 10.78 0 01-2.9-1.88 8.58 8.58 0 01-1.15-1.33 6.93 6.93 0 01-.81-1.55 6.22 6.22 0 01-.25-.84c0-.14-.06-.28-.09-.42v-1.72l.06-.42.06.42v.41c0 .07.05.28.08.41s.07.27.1.4l.05.2.07.2.12.39.16.37a2.48 2.48 0 00.17.37 3.13 3.13 0 00.19.36l.2.35.22.33a4 4 0 00.24.33l.12.16.13.15.26.31c.1.09.18.19.28.29l.29.28a14.54 14.54 0 002.65 1.91c.48.27 1 .52 1.48.76s1 .45 1.54.66zm-42.62 0c.53-.21 1-.42 1.54-.66s1-.49 1.48-.76a14.54 14.54 0 002.65-1.91l.29-.28c.1-.1.18-.2.28-.29l.26-.31.13-.15.12-.16a4 4 0 00.24-.33l.22-.33.2-.35a3.13 3.13 0 00.19-.36 2.48 2.48 0 00.17-.37l.16-.37.12-.39.07-.2v-.2c0-.13.07-.26.1-.4s.05-.27.08-.41 0-.13 0-.2v-.21l.06-.42.06.42v.21a1.62 1.62 0 000 .22v1.34c0 .14 0 .28-.07.42a8.16 8.16 0 01-.26.84 6.93 6.93 0 01-.81 1.55 8.58 8.58 0 01-1.15 1.33 10.78 10.78 0 01-2.9 1.88 11.44 11.44 0 01-1.61.58 9.65 9.65 0 01-1.67.32z" fill="#3b424a"/><path class="cls-43" d="M194.07 266.37l-12.67-1.12-4.59-2.06v-3a1.69 1.69 0 00.43-.08c.77-.23 2.39-1.14 3.73-4.71a23.67 23.67 0 00.85-2.85 44.45 44.45 0 001-6.32c0-.5.08-1 .11-1.56h.09c8-2.19 12.11 0 12.11 0a24.73 24.73 0 00.5 7.9 16.06 16.06 0 00.76 2.35 10.11 10.11 0 004.52 5.27c7.23 3.85-6.8 6.21-6.8 6.21"/><path class="cls-44" d="M195.59 252.54c-5.7 4.09-10.51 2.43-13.77 0a44.45 44.45 0 001-6.32c.07-.51.14-1 .2-1.59 8-2.19 12.11 0 12.11 0a24.73 24.73 0 00.5 7.9z"/><path class="cls-45" d="M210.16 309.48c-.66 4.36-1.38 8.21-2.09 11.58-1.07 5.08-2.12 9-3 11.9-.29 1-.57 1.86-.81 2.59-.12.37-.24.7-.34 1h-36.78a1.08 1.08 0 01-.29-.13h-.13l-.16-.17v-.05a1.8 1.8 0 01-.14-.31v-.22a2.61 2.61 0 010-.62 1.77 1.77 0 010-.2 2.25 2.25 0 010-.22c0-.07 0-.15.07-.23a6.93 6.93 0 01.33-.81l.1-.24.06-.15a2.13 2.13 0 00.09-.3c0-.05 0-.12.06-.18l.06-.22a.29.29 0 010-.09.64.64 0 010-.07 1.55 1.55 0 01.05-.23c0-.2.07-.41.11-.62s0-.22.05-.33.06-.41.08-.62v-.27c0-.42.08-.86.11-1.31v-.75a.71.71 0 000-.15v-.3c0-.68.05-1.36.05-2v-2.34a2.44 2.44 0 010-.27 2.44 2.44 0 000-.27v-1.36a.66.66 0 010-.13v-.11l.08-29.06V291a.29.29 0 00-.15-.16h-1.81l-11.94-.49h-.16a.31.31 0 01-.19-.33c.6-3.08 5.18-26 9.46-28.68a.19.19 0 01.09 0c3.52-.85 3-1 13.56-2.2a.3.3 0 01.27.11c5 6.3 18.64 7.13 23.87 0a.3.3 0 01.26-.12l1.27.11c1.25.13 2.62.3 4 .48 3.77.52 7.43 1.16 8.15 1.28a.34.34 0 01.2.13c.76 1.16 7.26 11.51 9.6 29.15 0 .1-.09.2-.26.28a7.22 7.22 0 01-1.86.38c-2.25.24-5.81.28-8.43.26h-3.18a.22.22 0 00-.1.09.09.09 0 000 .06.29.29 0 000 .09l-.16 18.16v.06"/><path class="cls-46" d="M210 332.08v.92a.13.13 0 010-.06v-.89zm14-42.72a6.24 6.24 0 01-1.66.36 82.3 82.3 0 01-8.55.29h-3.16a.3.3 0 00-.31.3l-.17 19.21c-.66 4.36-1.38 8.21-2.09 11.58l.65-.31c-1.07 5.08.73 7.69-.12 10.56l-1.12 2.48c-.3 1-.26.76-.5 1.49-11.31.41-38.64.45-39.64.44h-.07a1.24 1.24 0 01-.65-.45 5 5 0 01.26-.6c.83-1.75 1-6 1-9v-.58c0-1.54-.08-2.65-.08-2.75v-2l.08-28.18v-2.04a.3.3 0 00-.29-.3l-1.33.21-.45.07-12 .13c1.28-6.27 5.48-25.53 9.27-27.9a.19.19 0 01.09 0c3.52-.85 3-1 13.56-2.2a.27.27 0 01.27.11c5 6.29 18.64 7.13 23.87 0a.3.3 0 01.26-.12l1.23.11c1.69.16 3.6.41 5.39.67 3.25.47 6.15 1 6.78 1.09a.34.34 0 01.2.13c.73 1.12 6.81 10.79 9.34 27.31"/><path class="cls-45" d="M207.73 332.05c-.3 1-1.13 2.87-1.37 3.6-.12.37-2.32.61-2.42.91h-36.78a1.08 1.08 0 01-.29-.13h-.13l-.16-.17v-.05a1.8 1.8 0 01-.14-.31v-.22a2.61 2.61 0 010-.62 1.77 1.77 0 010-.2 2.25 2.25 0 010-.22c0-.07 0-.15.07-.23a6.93 6.93 0 01.33-.81l.1-.24.06-.15a2.13 2.13 0 00.09-.3c0-.05 0-.12.06-.18l.06-.22a.29.29 0 010-.09.64.64 0 010-.07 1.55 1.55 0 01.05-.23c0-.2.07-.41.11-.62s0-.22.05-.33.06-.41.08-.62v-.27c0-.42.08-.86.11-1.31v-.75a.71.71 0 000-.15v-.3c0-.68.05-1.36.05-2v-2.35a2.44 2.44 0 010-.27 2.44 2.44 0 000-.27v-1.36a.66.66 0 010-.13v-.11l.08-29.06V291a.33.33 0 00-.15-.16h-1.18a.31.31 0 01-.29-.35c0-.13 0-.26.05-.39a82.39 82.39 0 012.55-12.17.31.31 0 01.6.12c-1.39 12.07-.26 37 .43 49.27a8.53 8.53 0 008.39 8c6.52.1 15.66-.18 22-.42a18.49 18.49 0 007.51-2.81m2.69-6.62c-.35 2.25-.75.11-1.16-2s-.76-4-1.11-2.38c.15-5.65.28-11.12.28-12a249.62 249.62 0 00.34-28c-.05-.95-.11-1.91-.17-2.88a.31.31 0 01.6-.1 50.45 50.45 0 011.11 6c.26 1.87.48 3.87.67 5.89l.06.66a.31.31 0 01-.31.33h-.16a.22.22 0 00-.1.09.09.09 0 000 .06.29.29 0 000 .09l-.16 18.16.17 16.05"/><path class="cls-45" d="M207.73 331.56l.34-10.5.28-1.28 1.92 3.88v8.52s1.31 1.44.44 2.36-6.77 2-6.77 2"/><path d="M168.23 211.21c.36 3.79-.92 7-2.87 7.2s-3.82-2.73-4.18-6.52.92-7 2.87-7.2 3.81 2.73 4.18 6.52zm48.4.5c-.58 3.76-2.61 6.57-4.54 6.28s-3-3.59-2.46-7.35 2.61-6.57 4.54-6.28 3 3.59 2.46 7.35z" fill="#e5a46b"/><path class="cls-50" d="M168.12 225.39l-3.35-14.03v-14.45l2.48-9.26 2.48-3.85 7.08-.17 12.16.13 22.04 2.06 1.93 7.54 1.67 8.91-1.32 5.77-2.55 17.35-12.57 14.16-18.13-4.35-11.92-9.81z"/><path d="M188.85 224.59c5.84 8.5-14.28 4.53-14.28 4.53l-6.08-2.86-3.17-12.73-1.8-12.65 1.53-13.36 7.91-5.34 19.49 5.34s-13.08.46-7.83 23.64c.14.64.3 1.31.48 2l-.62 5.44a1.86 1.86 0 00.6 1.6 5 5 0 002.61 1.27c.07.21.14.42.22.63.3.81.61 1.65.94 2.5z" fill="#e0985d"/><path fill="#fdfdfd" d="M183.51 232.47l-1.86-3.85 6.9-.14 8.25.76-2.66 2.6-10.63.63z"/><path class="cls-53" d="M182.89 229.92c3.33 2.55 9 2.58 12.17 0zm-16.63-22c.22 1.35.22 9.6.35 10.44 1 6.49 5.44 9.86 11.91 8.87a29.88 29.88 0 005.61-1.39 13.62 13.62 0 019.46.05 28.11 28.11 0 005.86 1.4c6.38.8 10.86-2.91 11.54-9.37.08-.74 1.22-8.69 1.46-9.88.74-.87 1.85-2.56 2.11-1.37.33 1.56-1 15.3-1.34 16.88a29.65 29.65 0 01-4.86 12.25c-2.43 3.28-4.52 7.1-8.93 8.33-2.14.59-4.19 1.36-6.52 1.16a33.89 33.89 0 00-8.88-.1c-2.52.46-4.33-.69-6.31-1.42-5.53-2.05-7.79-7-10.53-11.75-1.9-3.28-2.06-6.79-3-10.18-.17-.59-.65-16.85-.65-17.4 0-1.51 1.74.5 2.74 3.48z"/><path d="M213.17 223.77a29.32 29.32 0 01-4.81 12c-2.43 3.28-4.52 7.1-8.93 8.33-2.14.59-4.19 1.36-6.52 1.16a33.89 33.89 0 00-8.88-.1c-2.52.47-4.33-.69-6.31-1.42-5.53-2.05-7.79-7-10.53-11.75-1.9-3.28-2.06-6.79-3-10.18-.06-.2-.15-2.08-.24-4.54 1.6 4.33 4.26 11.08 5.92 12.78 2.49 2.54 3.73 8.26 8.14 9.5s14.49 3 18.33 1.74c3.63-1.18 8.53-1.7 16.85-17.52z" fill="#512217"/><path class="cls-53" d="M218.56 195.82c-1 4.51-1.76 8.92-5.27 12.22l-.79-.07v-9.36a11.7 11.7 0 00-3.35-8.22c-2.77-2.81-5.82-4.29-9.9-3.27-3.82.95-7.71 1.6-11.57 2.38l.06.53H196v.59h-13.16l1.12.85 2 1.51a21.12 21.12 0 01-2.36-.39c-4.67-1-8.18-3.5-11.44-6.68-5.82 5.22-6.65 11.61-6.25 18.37.08 1.31.21 2.63.35 4-5.22-6.87-9.74-13.9-7.36-23.49l-1.86.94c-1.18-2.41 3-7.2 10.26-11.62l-3.56-1.53v-.34a22.29 22.29 0 012.46.27c.79.17 1.56.48 2.52.79-.12-1.11-.21-2-.31-2.82l.26-.07c.32.66.64 1.31 1.12 2.27 1.71-3.24 3.41-6.1 6.55-7.86s6.42-1.55 10.29-.95l-2.47 1.5c0 .13.06.26.08.4 2.48 0 5 .11 7.43 0s4.94-.55 8.11-.92l-3.1 2.33c4.81.91 9.68 1.34 12.77 5.09 2.89 3.51 6 7.22 7.53 11.37 3.16 8.36 2.39 8.43 1.58 12.25z"/><path d="M186.15 203.89l-1.67 14.7a1.86 1.86 0 00.6 1.6c1.14 1 3.6 2.43 6.88-.14-1.49 1.83-2.76 4.41-7.08 2.36-.72-.34-3.56-1.31-3.48-2.11.61-6 4.75-16.41 4.75-16.41z" fill="#d6703f"/><path d="M192 220.05a4.44 4.44 0 01-4.05 2 9.93 9.93 0 01-3.46-1.06 1.89 1.89 0 01-1.08-1.89c.25-2.41.74-5.34 1.25-8 .73-3.85 1.49-7.09 1.53-7.26l-1.05 9.25-.62 5.44a1.86 1.86 0 00.6 1.6 5 5 0 002.61 1.27 5.54 5.54 0 004.27-1.41z" fill="#e97546"/><path class="cls-57" d="M170.38 203c1-2.54 9.83-7.93 11.25 1.32"/><path class="cls-58" d="M181.26 205.4a5.43 5.43 0 01-1.91.66 16 16 0 01-4.85.07c-2-.27-3.83-.93-4.55-2.06a.65.65 0 01.05-.77c1.43-1.66 7.71-5.83 11.55.85a.94.94 0 01-.29 1.25z"/><path class="cls-59" d="M178.43 203.26a4.64 4.64 0 01-.13.76c-.34 1.36-1.29 2.32-2.34 2.24s-2-1.35-2-2.92v-.41a4.77 4.77 0 01.18-1 4 4 0 01.44-1 2.69 2.69 0 01.48-.57 5.7 5.7 0 012.67.24 3.79 3.79 0 01.69 2.58z"/><path class="cls-60" d="M175.13 201.6a.55.55 0 01-.58.55.55.55 0 01-.4-.19 4 4 0 01.44-1 .57.57 0 01.54.59z"/><path class="cls-57" d="M198.31 201.1a1.85 1.85 0 011.34-.55 1.9 1.9 0 011.34.69 6 6 0 00-2.68-.14zm-4.53 2.26c0 .07-.06.13-.08.19l3.6.42 4.37.51 3.28.39c-1.39-9-9.88-4.1-11.17-1.5z"/><path class="cls-58" d="M204.58 205.93a5.42 5.42 0 01-1.92.66 15.43 15.43 0 01-1.64.19h-1.29a17.55 17.55 0 01-1.91-.15 9 9 0 01-.93-.16l-.61-.14a5 5 0 01-3-1.76.65.65 0 010-.77 6.55 6.55 0 01.46-.47 9.69 9.69 0 014.53-2.26 6 6 0 012.68.14 6.87 6.87 0 013.88 3.44 1.42 1.42 0 01.08.18.93.93 0 01-.37 1.06z"/><path class="cls-59" d="M201.77 203.74a4.26 4.26 0 01-.1.74c-.29 1.35-1.21 2.32-2.26 2.28s-2-1.26-2.11-2.79v-.4a3.71 3.71 0 01.15-1 3.39 3.39 0 01.4-.93 2.94 2.94 0 01.46-.58 6 6 0 012.68.14 3.69 3.69 0 01.78 2.5z"/><path class="cls-60" d="M198.41 202.24a.54.54 0 01-.55.55.51.51 0 01-.41-.18 3.39 3.39 0 01.4-.93.55.55 0 01.55.56z"/><path class="cls-57" d="M194.31 195.24s.38-3.15 1.71-3.31 6 .8 13.23 6.76c-2.24.95-10.66-3.76-14.94-3.45zm-13.12-.43s-.35-2.91-1.61-3-5.7 1-12.54 6.75c2.11.8 10.1-3.87 14.15-3.73zm19.81 6.43a6 6 0 00-2.68-.14 1.85 1.85 0 011.34-.55 1.9 1.9 0 011.34.69z"/><path class="cls-50" d="M182.62 228.76c-.86 5.48 11.91 7.75 12.54.47-5.25-.16-12.54-.47-12.54-.47z"/><path d="M194 229.22a4 4 0 01-.7 1.95c-2.08 2.92-8 2-9.37-.76a2.65 2.65 0 01-.27-1.58h.27l9.25.35h.82z" fill="#8b3f48"/><path class="cls-14" d="M193.26 231.17c-2.08 2.92-8 2-9.37-.76v-1.57l9.25.35.12 2z"/><path class="cls-45" d="M208 330.19s-.87 2.61-2.49 3.1 2.76.5 2.76.5l.47-2.73-.74-.87z"/><path d="M147.49 291.47s-1.41.83 2 3.25 3.6-4.71 3.6-4.71l-5.57 1.46zm80.79-3.8s1.41.84-2 3.25-3.59-4.73-3.59-4.73l5.56 1.48z" fill="#4d8f33"/><path class="cls-46" d="M219.11 264.66a15.44 15.44 0 00-10.89-5.37 24 24 0 00-7.07-.37c-1 8.64-21.61 6.95-25.09.12 0 0-3.84.25-6.7.25-10.18.5-13.67 9.93-16.22 17.39-.34 5.6-2.54 9.73-5.65 14.79a9.75 9.75 0 013 .52h.12a28.46 28.46 0 017.72 4.45l1 .77.42.36.06.05c.73-.82 5-5.65 6-7s0-.09 0-.13c0-.65 0-1.23.08-1.74a8.32 8.32 0 01.62-2.66c.23-2.72 1.35-3.06 2.41-3.26 0-.08 0-.15.05-.23a12.64 12.64 0 00-.38-7.17c-2.53-7.17 2.34-8.08 4.23-.8a35.19 35.19 0 01.38 5.6 6.29 6.29 0 011.4 2c.06.15.12.31.17.47l.68.22c7.11 2.46 4 6.81 3.47 7.39.73.73 3.6 2.8 0 4.93 2.47 2.14-.51 3.8-.51 4.33 1.62 4.87-5 4.93-8.06 4.92-1.33 1.92-2.6 3.67-3.78 5.26l-.22.29v1.26a2.81 2.81 0 000 .3v.12a.28.28 0 010 .09v.98a2.35 2.35 0 010 .26v.94a.86.86 0 010 .16v1.2c0 .78 0 1.59-.07 2.41v1.33a2.35 2.35 0 010 .26v2.58a2.53 2.53 0 010 .28v3.19a.66.66 0 000 .14v.96a9.79 9.79 0 01-.14 1.26 11.35 11.35 0 001.23 8.67h5.57l31.29-.14h5.95l.17-.92.12-.61c-.4-3.37-.23-16.47-.1-23.46.05-2.68.09-4.46.09-4.46s.19-.67.56-1.75c-.18-.26-.37-.51-.56-.77l-.08-.11q-1.53-2.07-3.21-4.5c-3 0-9.68-.09-8-4.95 0-.53-3-2.21-.49-4.33-3.6-2.14-.73-4.2 0-4.94-.5-.58-3.63-4.93 3.49-7.37l.68-.22c.05-.16.11-.32.17-.47a6.29 6.29 0 011.41-2 34.93 34.93 0 01.41-5.6c1.9-7.28 6.77-6.35 4.21.81a12.63 12.63 0 00-.4 7.17 2.25 2.25 0 01.05.22c1.07.2 2.18.55 2.4 3.26v.07c0 .1.08.2.12.32v.09a1.18 1.18 0 01.07.2v.45a.31.31 0 000 .08v1.21a.41.41 0 010 .11 50.31 50.31 0 010 .43v1.55c.22.29.61.77 1.09 1.33a23.41 23.41 0 003.77 7.09l.09-.11a11.8 11.8 0 011.13-1.21l.08-.08h.06a21.34 21.34 0 019.21-4.49l.3-.07c.92-.21 1.49-.28 1.49-.28-7.74-11.08-2.67-13.07-9.46-23.41"/><path class="cls-46" d="M226.41 286.75l.16.28v.44l-.16-.72m.37 1.67l.3-.07h.11c.85-.19 1.38-.26 1.38-.26-7.74-11.08-2.67-13.07-9.46-23.41a15.44 15.44 0 00-10.89-5.37 24 24 0 00-7.07-.37c-1 8.64-21.61 6.95-25.09.12 0 0-3.84.25-6.7.25-10.18.5-13.67 9.93-16.22 17.39-.34 5.6-2.54 9.73-5.65 14.79a9.75 9.75 0 013 .52h.12v-.26l.17-.3 4.66.8c.17.2.4.48.66.81l.09.11.16.21.1.12.63.82.08.1.08.1.44.58.07.09.2.26a.39.39 0 00.08.1l.06.09.12.16.07.09.07.09.11.15a.21.21 0 010 .06l.11.14v.06l.06.09.11.15.18.24a.61.61 0 01.07.1l.09.11v.12l.42.36.06.05.83-.93.16-.18.63-.73.08-.09c.71-.8 1.53-1.74 2.28-2.61l.22-.26.51-.59.11-.13.23-.27a2 2 0 01.18-.21l.79-1a.59.59 0 010-.13v-.49a.76.76 0 010-.15v-.06a1941140897808.84 1941140897808.84 0 010-.44v-.52c0-.25.05-.49.08-.71v-.64a.29.29 0 010-.09.19.19 0 010-.08.85.85 0 010-.17v-.16l.09-.3a.56.56 0 000-.12l.05-.12a.5.5 0 01.05-.13.49.49 0 010-.11v-.1c.23-2.72 1.35-3.06 2.41-3.26 0-.08 0-.15.05-.23a12.64 12.64 0 00-.38-7.17c-2.53-7.17 2.34-8.08 4.23-.8a35.19 35.19 0 01.38 5.6 6.29 6.29 0 011.4 2c.06.15.12.31.17.47l.68.22c7.11 2.46 4 6.81 3.47 7.39.73.73 3.6 2.8 0 4.93 2.48 2.14-.51 3.8-.51 4.33 1.62 4.87-5 4.93-8.06 4.92-1.29 1.86-2.52 3.56-3.67 5.11l-.33.44a.22.22 0 010 .08v.39a.15.15 0 000 .07v.42a.07.07 0 000 .05v.33a2.81 2.81 0 000 .3v.12a.28.28 0 010 .09v.32a2.62 2.62 0 000 .28v.38a2.35 2.35 0 010 .26v.94a.86.86 0 010 .16v1.2c0 .78 0 1.59-.07 2.41v8.78a9.79 9.79 0 01-.14 1.26 11.35 11.35 0 001.23 8.67h5.57l31.29-.14h5.95l.17-.92.12-.61c-.4-3.37-.23-16.47-.1-23.46.05-2.68.09-4.46.09-4.46s.19-.67.56-1.75c-.18-.26-.37-.51-.56-.77l-.08-.11q-1.53-2.07-3.21-4.5h-.69c-3.24 0-8.87-.42-7.35-4.94 0-.53-3-2.21-.49-4.33-3.6-2.14-.73-4.2 0-4.94-.5-.58-3.63-4.93 3.49-7.37l.68-.22c.05-.16.11-.32.17-.47a6.29 6.29 0 011.41-2 34.93 34.93 0 01.41-5.6c.91-3.48 2.5-5.09 3.63-5s1.92 2.1.58 5.84a12.63 12.63 0 00-.4 7.17 2.25 2.25 0 01.05.22c1.07.2 2.18.55 2.4 3.26a4 4 0 01.15.39 1.89 1.89 0 01.06.18v.31a3.38 3.38 0 01.08.34v.47l.06.43v.16a.77.77 0 010 .15 1.5 1.5 0 010 .22.37.37 0 010 .11v.32a1.09 1.09 0 010 .18.76.76 0 010 .15v1.03c.22.29.61.77 1.09 1.33a23.41 23.41 0 003.77 7.09l.09-.11a11.8 11.8 0 011.13-1.21.46.46 0 01.07-.07h.06l.31-.28 8.9-4.21"/><path class="cls-43" d="M157.19 294.44l-.08-.1.16.2-.08-.1zm.94 1.23l-.01-.01m.58.76v-.06l.11.15-.06-.09zm-.05-.06l-.11-.14.1.12z"/><path class="cls-43" d="M179 295.32c2.48 2.14-.51 3.8-.51 4.33 1.62 4.87-5 4.93-8.06 4.92-1.29 1.86-2.52 3.56-3.67 5.11l-.33.44-.54.72-.27.35c-.13.18-.27.35-.4.52-1.78 2.33-3.34 4.23-4.6 5.72-.08.09-.15.18-.23.26-.51.61-1 1.14-1.39 1.6-.14.17-.28.32-.41.46-.35.39-.64.71-.89 1l-.18.19-.54.57-.09.1c-3.56 4.93-17 5.09-15.07-8.29.78-6.61 6.72-17.36 8.42-20.33l.45-.78V292a28.46 28.46 0 017.72 4.45l1 .77.16.21v.05l.1.14.13.17.1-.12.83-.93.16-.18.63-.73.08-.09c.71-.8 1.53-1.74 2.28-2.61l.22-.26.51-.59.11-.13.23-.27a2 2 0 01.18-.21l.79-1a.59.59 0 010-.13v-.49a.76.76 0 010-.15v-.06a1941140897808.84 1941140897808.84 0 010-.44v-.52c0-.25.05-.49.08-.71v-.64a.29.29 0 010-.09.19.19 0 010-.08.85.85 0 010-.17v-.16l.09-.3a.56.56 0 000-.12l.05-.12a.5.5 0 01.05-.13.49.49 0 010-.11v-.1c.23-2.72 1.35-3.06 2.41-3.26 0-.08 0-.15.05-.23a12.64 12.64 0 00-.38-7.17c-2.53-7.17 2.34-8.08 4.23-.8a35.19 35.19 0 01.38 5.6 6.29 6.29 0 011.4 2c.06.15.12.31.17.47l.68.22c7.11 2.46 4 6.81 3.47 7.39.73.73 3.6 2.8 0 4.93z"/><path class="cls-73" d="M144.26 308.53a1.59 1.59 0 01.15-.29l-.15.29z"/><path class="cls-44" d="M157.19 294.44l-.08-.1.16.2-.08-.1zm.59.77l-.07-.09m.94 1.24l-.11-.14.1.12zm.05.06v-.06l.11.15-.06-.09zm-8.06-4.42a28.46 28.46 0 017.72 4.45l1 .77.16.21v.05l.1.14.1.9-5 4.19s-8.32 2-10.33 5.5c3.78-7.24 2.8-2.34 12.31-9.69 1.23 0-5.38-4.75-6.52-5.56m20.13 11.4v.14s-4.44.53-4.42-12.93v-1a10.94 10.94 0 01.7-4.4 2.36 2.36 0 01.51-.8 4.47 4.47 0 01.39 2.27 2.66 2.66 0 01-1.29 1.39 6.17 6.17 0 00.83 4.27c.56.53-1.92 3.73.61 4.87 0 0 .39 4.71 2.69 6.19zm5.27-21.31l-6.6-.14c0-.08 0-.15.05-.23 1.09-.48 4.91-.39 5.63-.37.06.15.12.31.17.47l.68.22.05.05zm-5.07 5.32c1.4.23 2.79.44 4.19.65q1.05.17 2.1.3c.69.1 1.4.2 2.07.25l-.19 1.23c-.72-.17-1.39-.37-2.08-.57s-1.36-.4-2-.6a273 273 0 01-4.06-1.26zm8.59 7.47h-2.35c-.78 0-1.56-.09-2.33-.19a14.64 14.64 0 01-2.28-.47 8.46 8.46 0 01-1.09-.42 4.22 4.22 0 01-1-.62 4.39 4.39 0 001 .48 10.34 10.34 0 001.1.26 15.37 15.37 0 002.25.15c.76 0 1.51 0 2.26-.12l1.12-.13c.37 0 .75-.11 1.11-.18l.15 1.24zm-.66 4l-.15.06-.14.05-.28.08a5.54 5.54 0 01-.55.14l-.55.11-.55.08a11 11 0 01-2.22.05h-.54c-.19 0-.37 0-.55-.08l-.53-.1h-.27l-.26-.07-.26-.07h-.26l-.51-.19a3 3 0 01-.49-.21l-.49-.22.51.15a4.39 4.39 0 00.52.13l.52.11H174a9.88 9.88 0 002-.34l.49-.15.48-.17.47-.19.22-.11.11-.05h.09l.54 1.11z"/><path class="cls-43" d="M227.19 288.33c1.74 3.08 7.55 13.72 8.3 20.28 1.15 8.27-3.53 11.35-8.11 11.34-2.84 0-5.63-1.21-7-3.1a113.45 113.45 0 01-9.75-11.85c-1.18-1.59-2.44-3.34-3.76-5.26h-.54c-3.22 0-9.05-.35-7.5-4.94 0-.53-3-2.21-.5-4.33-3.6-2.14-.72-4.2 0-4.94-.49-.58-3.58-4.88 3.36-7.32l.14-.05.67-.22c.06-.16.11-.32.18-.47a6.29 6.29 0 011.41-2 34.6 34.6 0 01.4-5.6c.88-3.36 2.39-5 3.51-5 1.31-.07 2.09 2 .71 5.84a12.63 12.63 0 00-.4 7.17 1.42 1.42 0 00.05.22c1.06.2 2.17.55 2.39 3.26a10.81 10.81 0 01.69 4.4v.13c1 1.35 5.43 6.35 6 7a.23.23 0 01.05.07l.13-.17.18-.25a21.75 21.75 0 018.9-4.21"/><path class="cls-73" d="M232.9 303.81l-.15-.29.15.29z"/><path class="cls-44" d="M217.88 292.63a21.75 21.75 0 018.9-4.21c-1.61 1.15-7.47 5.37-6.3 5.37 9.48 7.38 8.52 2.48 12.27 9.73-2-3.49-10.31-5.53-10.31-5.53l-5-4.21.09-.74v-.13m8.87-6.18l.01.02m-19.56 12.8v.15s4.45.54 4.47-12.92v-1a10.81 10.81 0 00-.69-4.4 2.52 2.52 0 00-.51-.8 4.55 4.55 0 00-.4 2.27 2.69 2.69 0 001.29 1.4 6.17 6.17 0 01-.85 4.27c-.56.53 1.91 3.73-.62 4.86 0 0-.41 4.71-2.72 6.18zm-5.19-21.32l6.6-.12a2.25 2.25 0 00-.05-.22c-1.09-.49-4.91-.41-5.63-.39-.06.15-.12.31-.17.47l-.68.22-.05.05zm5.05 5.34l-4.06 1.24-2 .6c-.68.19-1.36.39-2.08.56l-.18-1.23c.67-.06 1.38-.15 2.07-.24l2.1-.3c1.4-.2 2.8-.41 4.19-.63zm-8.46 6.2c.36.07.74.13 1.11.18l1.12.13c.75.08 1.5.12 2.26.13a14.1 14.1 0 002.25-.15 8.33 8.33 0 001.1-.25 3.77 3.77 0 001-.48 4.2 4.2 0 01-1 .63 10.17 10.17 0 01-1.09.41 14.62 14.62 0 01-2.28.46 22.84 22.84 0 01-2.33.18h-2.35l.15-1.23zm1.04 4.12l.09.06.11.05.22.11.46.19.48.17.49.15a10 10 0 002 .35h2.65l.52-.1a4.84 4.84 0 00.51-.14l.52-.14-.49.22c-.17.07-.33.15-.5.21l-.51.18h-.26l-.26.07-.26.07h-.27l-.53.11a5 5 0 01-.54.07h-.55a11 11 0 01-2.22 0l-.55-.09-.55-.11a5.54 5.54 0 01-.55-.14l-.28-.08-.14-.05-.15-.06.55-1.12z"/><path class="cls-43" d="M166.42 310v.16l-.54.72-.27.35-.4.52c-1.78 2.33-3.34 4.23-4.6 5.72-.08.09-.15.18-.23.26-.51.61-1 1.14-1.39 1.6-.14.17-.28.32-.41.46-.35.39-.64.71-.89 1l-.18.19-.54.57-.09.1c-3.56 4.93-17 5.09-15.07-8.29.78-6.61 6.72-17.36 8.42-20.33l.45-.78V292a28.46 28.46 0 017.72 4.45l1 .77.16.21a.1.1 0 000 .05l.1.14.13.17.1-.12.22.2 6.08.6.2 11.4z"/><path class="cls-73" d="M144.26 308.53a1.59 1.59 0 01.15-.29l-.15.29z"/><path class="cls-44" d="M157.11 294.34l.16.2m1.43 1.88v-.06l.11.15-.06-.09zm-.05-.06l-.11-.14.1.12zm-8.01-4.36a28.46 28.46 0 017.72 4.45l1 .77.16.21v.05l.1.14.1.9-5 4.19s-8.32 2-10.33 5.5c3.78-7.24 2.8-2.34 12.31-9.69 1.23 0-5.38-4.75-6.52-5.56m15.71-2.26v-.16.13zm4.62-2.33c1.4.23 2.79.44 4.19.65q1.05.17 2.1.3c.69.1 1.4.2 2.07.25l-.19 1.23c-.72-.17-1.39-.37-2.08-.57s-1.36-.4-2-.6a273 273 0 01-4.06-1.26zm8.59 7.47h-2.35c-.78 0-1.56-.09-2.33-.19a14.64 14.64 0 01-2.28-.47 8.46 8.46 0 01-1.09-.42 4.22 4.22 0 01-1-.62 4.39 4.39 0 001 .48 10.34 10.34 0 001.1.26 15.37 15.37 0 002.25.15c.76 0 1.51 0 2.26-.12l1.12-.13c.37 0 .75-.11 1.11-.18l.15 1.24zm-.66 4l-.15.06-.14.05-.28.08a5.54 5.54 0 01-.55.14l-.55.11-.55.08a11 11 0 01-2.22.05h-.54c-.19 0-.37 0-.55-.08l-.53-.1h-.27l-.26-.07-.26-.07h-.26l-.51-.19a3 3 0 01-.49-.21l-.49-.22.51.15a4.39 4.39 0 00.52.13l.52.11H174a9.88 9.88 0 002-.34l.49-.15.48-.17.47-.19.22-.11.11-.05h.09l.54 1.11z"/><path class="cls-43" d="M227.08 288.35c1.76 3.11 7.53 13.72 8.28 20.26 1.15 8.2-3.44 11.3-8 11.34-2.88 0-5.74-1.18-7.11-3.1a115 115 0 01-9.68-11.7.56.56 0 000-.12 45.1 45.1 0 013-6.76l2.61-.25s.69-.62 1.79-1.47v-.06a21.24 21.24 0 01-1.83-2.13 23.41 23.41 0 01-3.77-7.09c1.78 2.11 4.77 5.51 5 5.77l.06-.08.06-.08"/><path class="cls-43" d="M217.88 292.63a21.75 21.75 0 018.9-4.21m-.38-1.69l.01.02"/><path class="cls-73" d="M232.9 303.81l-.15-.29.15.29z"/><path class="cls-44" d="M217.88 292.63a21.75 21.75 0 018.9-4.21c-1.61 1.15-7.47 5.37-6.3 5.37 9.48 7.38 8.52 2.48 12.27 9.73-2-3.49-10.31-5.53-10.31-5.53l-5-4.21.09-.74v-.13m8.87-6.18l.01.02m-15.06-.97v.16-.13zm-4.64-2.21l-4.06 1.24-2 .6c-.68.19-1.36.39-2.08.56l-.18-1.23c.67-.06 1.38-.15 2.07-.24l2.1-.3c1.4-.2 2.8-.41 4.19-.63zm-8.46 6.2c.36.07.74.13 1.11.18l1.12.13c.75.08 1.5.12 2.26.13a14.1 14.1 0 002.25-.15 8.33 8.33 0 001.1-.25 3.77 3.77 0 001-.48 4.2 4.2 0 01-1 .63 10.17 10.17 0 01-1.09.41 14.62 14.62 0 01-2.28.46 22.84 22.84 0 01-2.33.18h-2.35l.15-1.23zm1.04 4.12l.09.06.11.05.22.11.46.19.48.17.49.15a10 10 0 002 .35h2.65l.52-.1a4.84 4.84 0 00.51-.14l.52-.14-.49.22c-.17.07-.33.15-.5.21l-.51.18h-.26l-.26.07-.26.07h-.27l-.53.11a5 5 0 01-.54.07h-.55a11 11 0 01-2.22 0l-.55-.09-.55-.11a5.54 5.54 0 01-.55-.14l-.28-.08-.14-.05-.15-.06.55-1.12z"/><path class="cls-45" d="M165.87 290.73c-1 1.32-5.29 6.15-6 7l-.06-.05-.42-.36-1-.77v-.06l.2-.2c1.09-1.12 6.22-6.81 6.24-13.94a34.13 34.13 0 011.17 6.55c0 .51-.08 1.09-.08 1.74v.13zm3.67 39.17l3 6.63h-5.57a11.35 11.35 0 01-1.23-8.67 9.79 9.79 0 00.14-1.26v-.96a.66.66 0 010-.14v-6.08a2.35 2.35 0 000-.26v-1.33c0-.82 0-1.63.07-2.41v-1.2a.86.86 0 000-.16v-.94a2.35 2.35 0 000-.26v-.98a.28.28 0 000-.09v-.12a2.81 2.81 0 010-.3v-1.26l.22-.29c.54 8.51 2.18 17.24 7.56 24.74l-4.66-4.67zm41.01-1.97a12 12 0 01-.63 7.51 6.76 6.76 0 01-.47.92 2.41 2.41 0 01-.15.24l-5.57-.05.07-.16 2.93-6.46-4.68 4.66c6.59-9.15 7.63-20.12 7.9-30.32l.08.11-.12 5.62v1.36c.08 4 .34 15.47.61 16.56zm.93-43.46v-1.86c0-.44 0-.86-.06-1.27v-.76c0-.25 0-.49-.05-.73s0-.24 0-.36q.45-2.65 1-5.18a54.66 54.66 0 001.44 14.28c-1.37-1.61-1.49-1.61-2.24-2.48"/></g></svg>