<svg id="электрические" xmlns="http://www.w3.org/2000/svg" viewBox="0 0 600 490"><defs><clipPath id="clip-path"><path class="cls-1" d="M165.91 265.79h37.83v37.83h-37.83z"/></clipPath><clipPath id="clip-path-2"><path class="cls-1" d="M203.65 265.79h4.27v42.01h-4.27z"/></clipPath><clipPath id="clip-path-3"><path class="cls-1" d="M165.91 303.53h37.83v4.27h-37.83z"/></clipPath><clipPath id="clip-path-4"><path d="M206.41 307.72h-39.48c-.33-10.9-.39-22.6.43-29.76a.31.31 0 00-.6-.12c-.27.94-.53 1.89-.77 2.83v-14.8h41.85v15.64c-.22-1.27-.46-2.42-.72-3.4a.3.3 0 00-.29-.22.29.29 0 00-.31.32 227.86 227.86 0 01-.11 29.51" clip-path="url(#clip-path)" fill="none"/></clipPath><clipPath id="clip-path-7"><path class="cls-1" d="M207.84 307.72h-1.43a227.86 227.86 0 00.11-29.51.29.29 0 01.31-.32.3.3 0 01.29.22c.26 1 .5 2.13.72 3.4v26.21m-40.91 0H166v-27.05c.24-.94.5-1.89.77-2.83a.31.31 0 01.6.12c-.82 7.16-.76 18.86-.43 29.76"/></clipPath><linearGradient id="Безымянный_градиент_9" x1="300" x2="300" y2="438" gradientUnits="userSpaceOnUse"><stop offset="0" stop-color="#b5867c"/><stop offset="1" stop-color="#966f66"/></linearGradient><linearGradient id="Безымянный_градиент_29" x1="300" x2="300" y2="438" gradientUnits="userSpaceOnUse"><stop offset="0" stop-color="#4d4d4d"/><stop offset="1" stop-color="#b3b3b3"/></linearGradient><style>.cls-1,.cls-10,.cls-22{fill:none}.cls-6{fill:url(#Безымянный_градиент_9)}.cls-10{stroke:#3d2f2f;stroke-width:.5px}.cls-10,.cls-22{stroke-miterlimit:10}.cls-12{fill:#fff}.cls-16{fill:#626c70}.cls-19{fill:#4c403a}.cls-22{stroke:#4c403a;stroke-width:2px}.cls-24{fill:#bcbcbc}.cls-25{fill:#9b9b9b}.cls-31{fill:#e7ab6e}.cls-32{fill:#df9058}.cls-33{fill:#61b22f}.cls-40{fill:#e0985d}.cls-41{fill:#662e1d}.cls-43{fill:#4b2c1b}.cls-47{fill:#fbfdf9}.cls-48{fill:#423233}.cls-49{fill:#ebe6e6}</style></defs><g id="_1.1_сбоку_" data-name="1.1 (сбоку)"><g id="Слой_1_копия_3" data-name="Слой 1 копия 3"><g id="Фон"><path fill="#a1796d" d="M0 0h600v438H0z"/><path class="cls-6" d="M0 0h600v438H0z"/><path class="cls-6" d="M0 0h600v438H0z"/><path fill="url(#Безымянный_градиент_29)" d="M0 0h600v438H0z"/><path fill="#c9c9c9" d="M0 0h600v438H0z"/><g opacity=".25"><path class="cls-10" d="M9.92 0h38.09v13.44H9.92z"/><path class="cls-10" d="M48.01 0H86.1v13.44H48.01zM86.1 0h38.09v13.44H86.1zM30.09 13.44h38.09v13.44H30.09z"/><path class="cls-10" d="M-8 13.44h38.09v13.44H-8zm76.18 0h38.09v13.44H68.18zM124.19 0h38.09v13.44h-38.09zm38.09 0h38.09v13.44h-38.09zm38.09 0h38.09v13.44h-38.09zm-56.01 13.44h38.09v13.44h-38.09z"/><path class="cls-10" d="M106.27 13.44h38.09v13.44h-38.09zm76.18 0h38.09v13.44h-38.09zM238.46 0h38.09v13.44h-38.09z"/><path class="cls-10" d="M276.55 0h38.09v13.44h-38.09zm38.09 0h38.09v13.44h-38.09zm-56.01 13.44h38.09v13.44h-38.09zm-38.09 0h38.09v13.44h-38.09zm76.18 0h38.09v13.44h-38.09zM352.73 0h38.09v13.44h-38.09z"/><path class="cls-10" d="M390.82 0h38.09v13.44h-38.09zm38.09 0H467v13.44h-38.09zM372.9 13.44h38.09v13.44H372.9zm-38.09 0h38.09v13.44h-38.09zm76.18 0h38.09v13.44h-38.09z"/><path class="cls-10" d="M466.73 0h38.09v13.44h-38.09z"/><path class="cls-10" d="M504.82 0h38.09v13.44h-38.09zm38.09 0H581v13.44h-38.09zM486.9 13.44h38.09v13.44H486.9zm-38.09 0h38.09v13.44h-38.09zm76.18 0h38.09v13.44h-38.09z"/><path class="cls-10" d="M601 2v11.44h-20.27V0H600v2h1zm-38.19 11.44h38.09v13.44h-38.09zM9.92 27h38.09v13.44H9.92z"/><path class="cls-10" d="M48.01 27H86.1v13.44H48.01zm38.09 0h38.09v13.44H86.1zM30.09 40.44h38.09v13.44H30.09z"/><path class="cls-10" d="M-8 40.44h38.09v13.44H-8zm76.18 0h38.09v13.44H68.18zM124.19 27h38.09v13.44h-38.09zm38.09 0h38.09v13.44h-38.09zm38.09 0h38.09v13.44h-38.09zm-56.01 13.44h38.09v13.44h-38.09z"/><path class="cls-10" d="M106.27 40.44h38.09v13.44h-38.09zm76.18 0h38.09v13.44h-38.09zM238.46 27h38.09v13.44h-38.09z"/><path class="cls-10" d="M276.55 27h38.09v13.44h-38.09zm38.09 0h38.09v13.44h-38.09zm-56.01 13.44h38.09v13.44h-38.09zm-38.09 0h38.09v13.44h-38.09zm76.18 0h38.09v13.44h-38.09zM352.73 27h38.09v13.44h-38.09z"/><path class="cls-10" d="M390.82 27h38.09v13.44h-38.09zm38.09 0H467v13.44h-38.09zM372.9 40.44h38.09v13.44H372.9zm-38.09 0h38.09v13.44h-38.09zm76.18 0h38.09v13.44h-38.09z"/><path class="cls-10" d="M466.73 27h38.09v13.44h-38.09z"/><path class="cls-10" d="M504.82 27h38.09v13.44h-38.09zm38.09 0H581v13.44h-38.09zM486.9 40.44h38.09v13.44H486.9zm-38.09 0h38.09v13.44h-38.09zm76.18 0h38.09v13.44h-38.09z"/><path class="cls-10" d="M580.73 27H601v13.44h-20.27zm-17.92 13.44h38.09v13.44h-38.09zM9.92 54h38.09v13.44H9.92z"/><path class="cls-10" d="M48.01 54H86.1v13.44H48.01zm38.09 0h38.09v13.44H86.1zM30.09 67.44h38.09v13.44H30.09z"/><path class="cls-10" d="M-8 67.44h38.09v13.44H-8zm76.18 0h38.09v13.44H68.18zM124.19 54h38.09v13.44h-38.09zm38.09 0h38.09v13.44h-38.09zm38.09 0h38.09v13.44h-38.09zm-56.01 13.44h38.09v13.44h-38.09z"/><path class="cls-10" d="M106.27 67.44h38.09v13.44h-38.09zm76.18 0h38.09v13.44h-38.09zM238.46 54h38.09v13.44h-38.09z"/><path class="cls-10" d="M276.55 54h38.09v13.44h-38.09zm38.09 0h38.09v13.44h-38.09zm-56.01 13.44h38.09v13.44h-38.09zm-38.09 0h38.09v13.44h-38.09zm76.18 0h38.09v13.44h-38.09zM352.73 54h38.09v13.44h-38.09z"/><path class="cls-10" d="M390.82 54h38.09v13.44h-38.09zm38.09 0H467v13.44h-38.09zM372.9 67.44h38.09v13.44H372.9zm-38.09 0h38.09v13.44h-38.09zm76.18 0h38.09v13.44h-38.09z"/><path class="cls-10" d="M466.73 54h38.09v13.44h-38.09z"/><path class="cls-10" d="M504.82 54h38.09v13.44h-38.09zm38.09 0H581v13.44h-38.09zM486.9 67.44h38.09v13.44H486.9zm-38.09 0h38.09v13.44h-38.09zm76.18 0h38.09v13.44h-38.09z"/><path class="cls-10" d="M580.73 54H601v13.44h-20.27zm-17.92 13.44h38.09v13.44h-38.09zM9.92 81h38.09v13.44H9.92z"/><path class="cls-10" d="M48.01 81H86.1v13.44H48.01zm38.09 0h38.09v13.44H86.1zM30.09 94.44h38.09v13.44H30.09z"/><path class="cls-10" d="M-8 94.44h38.09v13.44H-8zm76.18 0h38.09v13.44H68.18zM124.19 81h38.09v13.44h-38.09zm38.09 0h38.09v13.44h-38.09zm38.09 0h38.09v13.44h-38.09zm-56.01 13.44h38.09v13.44h-38.09z"/><path class="cls-10" d="M106.27 94.44h38.09v13.44h-38.09zm76.18 0h38.09v13.44h-38.09zM238.46 81h38.09v13.44h-38.09z"/><path class="cls-10" d="M276.55 81h38.09v13.44h-38.09zm38.09 0h38.09v13.44h-38.09zm-56.01 13.44h38.09v13.44h-38.09zm-38.09 0h38.09v13.44h-38.09zm76.18 0h38.09v13.44h-38.09zM352.73 81h38.09v13.44h-38.09z"/><path class="cls-10" d="M390.82 81h38.09v13.44h-38.09zm38.09 0H467v13.44h-38.09zM372.9 94.44h38.09v13.44H372.9zm-38.09 0h38.09v13.44h-38.09zm76.18 0h38.09v13.44h-38.09z"/><path class="cls-10" d="M466.73 81h38.09v13.44h-38.09z"/><path class="cls-10" d="M504.82 81h38.09v13.44h-38.09zm38.09 0H581v13.44h-38.09zM486.9 94.44h38.09v13.44H486.9zm-38.09 0h38.09v13.44h-38.09zm76.18 0h38.09v13.44h-38.09z"/><path class="cls-10" d="M580.73 81H601v13.44h-20.27zm-17.92 13.44h38.09v13.44h-38.09zM9.92 108h38.09v13.44H9.92z"/><path class="cls-10" d="M48.01 108H86.1v13.44H48.01zm38.09 0h38.09v13.44H86.1zm-56.01 13.44h38.09v13.44H30.09z"/><path class="cls-10" d="M-8 121.44h38.09v13.44H-8zm76.18 0h38.09v13.44H68.18zM124.19 108h38.09v13.44h-38.09zm38.09 0h38.09v13.44h-38.09zm38.09 0h38.09v13.44h-38.09zm-56.01 13.44h38.09v13.44h-38.09z"/><path class="cls-10" d="M106.27 121.44h38.09v13.44h-38.09zm76.18 0h38.09v13.44h-38.09zM238.46 108h38.09v13.44h-38.09z"/><path class="cls-10" d="M276.55 108h38.09v13.44h-38.09zm38.09 0h38.09v13.44h-38.09zm-56.01 13.44h38.09v13.44h-38.09zm-38.09 0h38.09v13.44h-38.09zm76.18 0h38.09v13.44h-38.09zM352.73 108h38.09v13.44h-38.09z"/><path class="cls-10" d="M390.82 108h38.09v13.44h-38.09zm38.09 0H467v13.44h-38.09zm-56.01 13.44h38.09v13.44H372.9zm-38.09 0h38.09v13.44h-38.09zm76.18 0h38.09v13.44h-38.09z"/><path class="cls-10" d="M466.73 108h38.09v13.44h-38.09z"/><path class="cls-10" d="M504.82 108h38.09v13.44h-38.09zm38.09 0H581v13.44h-38.09zm-56.01 13.44h38.09v13.44H486.9zm-38.09 0h38.09v13.44h-38.09zm76.18 0h38.09v13.44h-38.09z"/><path class="cls-10" d="M580.73 108H601v13.44h-20.27zm-17.92 13.44h38.09v13.44h-38.09zM9.92 135h38.09v13.44H9.92z"/><path class="cls-10" d="M48.01 135H86.1v13.44H48.01zm38.09 0h38.09v13.44H86.1zm-56.01 13.44h38.09v13.44H30.09z"/><path class="cls-10" d="M-8 148.44h38.09v13.44H-8zm76.18 0h38.09v13.44H68.18zM124.19 135h38.09v13.44h-38.09zm38.09 0h38.09v13.44h-38.09zm38.09 0h38.09v13.44h-38.09zm-56.01 13.44h38.09v13.44h-38.09z"/><path class="cls-10" d="M106.27 148.44h38.09v13.44h-38.09zm76.18 0h38.09v13.44h-38.09zM238.46 135h38.09v13.44h-38.09z"/><path class="cls-10" d="M276.55 135h38.09v13.44h-38.09zm38.09 0h38.09v13.44h-38.09zm-56.01 13.44h38.09v13.44h-38.09zm-38.09 0h38.09v13.44h-38.09zm76.18 0h38.09v13.44h-38.09zM352.73 135h38.09v13.44h-38.09z"/><path class="cls-10" d="M390.82 135h38.09v13.44h-38.09zm38.09 0H467v13.44h-38.09zm-56.01 13.44h38.09v13.44H372.9zm-38.09 0h38.09v13.44h-38.09zm76.18 0h38.09v13.44h-38.09z"/><path class="cls-10" d="M466.73 135h38.09v13.44h-38.09z"/><path class="cls-10" d="M504.82 135h38.09v13.44h-38.09zm38.09 0H581v13.44h-38.09zm-56.01 13.44h38.09v13.44H486.9zm-38.09 0h38.09v13.44h-38.09zm76.18 0h38.09v13.44h-38.09z"/><path class="cls-10" d="M601 135v11h-1v2.44h-19.27V135H601zm-38.19 13.44h38.09v13.45h-38.09zM9.92 162h38.09v13.44H9.92z"/><path class="cls-10" d="M48.01 162H86.1v13.44H48.01zm38.09 0h38.09v13.44H86.1zm-56.01 13.44h38.09v13.44H30.09z"/><path class="cls-10" d="M-8 175.44h38.09v13.44H-8zm76.18 0h38.09v13.44H68.18zM124.19 162h38.09v13.44h-38.09zm38.09 0h38.09v13.44h-38.09zm38.09 0h38.09v13.44h-38.09zm-56.01 13.44h38.09v13.44h-38.09z"/><path class="cls-10" d="M106.27 175.44h38.09v13.44h-38.09zm76.18 0h38.09v13.44h-38.09zM238.46 162h38.09v13.44h-38.09z"/><path class="cls-10" d="M276.55 162h38.09v13.44h-38.09zm38.09 0h38.09v13.44h-38.09zm-56.01 13.44h38.09v13.44h-38.09zm-38.09 0h38.09v13.44h-38.09zm76.18 0h38.09v13.44h-38.09zM352.73 162h38.09v13.44h-38.09z"/><path class="cls-10" d="M390.82 162h38.09v13.44h-38.09zm38.09 0H467v13.44h-38.09zm-56.01 13.44h38.09v13.44H372.9zm-38.09 0h38.09v13.44h-38.09zm76.18 0h38.09v13.44h-38.09z"/><path class="cls-10" d="M466.73 162h38.09v13.44h-38.09z"/><path class="cls-10" d="M504.82 162h38.09v13.44h-38.09zm38.09 0H581v13.44h-38.09zm-56.01 13.44h38.09v13.44H486.9zm-38.09 0h38.09v13.44h-38.09zm76.18 0h38.09v13.44h-38.09z"/><path class="cls-10" d="M580.73 162H600v13.44h-19.27zm-17.92 13.44h38.09v13.45h-38.09zM9.92 189h38.09v13.44H9.92z"/><path class="cls-10" d="M48.01 189H86.1v13.44H48.01zm38.09 0h38.09v13.44H86.1zm-56.01 13.44h38.09v13.44H30.09z"/><path class="cls-10" d="M-8 202.44h38.09v13.44H-8zm76.18 0h38.09v13.44H68.18zM124.19 189h38.09v13.44h-38.09zm38.09 0h38.09v13.44h-38.09zm38.09 0h38.09v13.44h-38.09zm-56.01 13.44h38.09v13.44h-38.09z"/><path class="cls-10" d="M106.27 202.44h38.09v13.44h-38.09zm76.18 0h38.09v13.44h-38.09zM238.46 189h38.09v13.44h-38.09z"/><path class="cls-10" d="M276.55 189h38.09v13.44h-38.09zm38.09 0h38.09v13.44h-38.09zm-56.01 13.44h38.09v13.44h-38.09zm-38.09 0h38.09v13.44h-38.09zm76.18 0h38.09v13.44h-38.09zM352.73 189h38.09v13.44h-38.09z"/><path class="cls-10" d="M390.82 189h38.09v13.44h-38.09zm38.09 0H467v13.44h-38.09zm-56.01 13.44h38.09v13.44H372.9zm-38.09 0h38.09v13.44h-38.09zm76.18 0h38.09v13.44h-38.09z"/><path class="cls-10" d="M466.73 189h38.09v13.44h-38.09z"/><path class="cls-10" d="M504.82 189h38.09v13.44h-38.09zm38.09 0H581v13.44h-38.09zm-56.01 13.44h38.09v13.44H486.9zm-38.09 0h38.09v13.44h-38.09zm76.18 0h38.09v13.44h-38.09z"/><path class="cls-10" d="M580.73 189H600v13.44h-19.27zm-17.92 13.44h38.09v13.45h-38.09zM9.92 216h38.09v13.44H9.92z"/><path class="cls-10" d="M48.01 216H86.1v13.44H48.01zm38.09 0h38.09v13.44H86.1zm-56.01 13.44h38.09v13.44H30.09z"/><path class="cls-10" d="M-8 229.44h38.09v13.44H-8zm76.18 0h38.09v13.44H68.18zM124.19 216h38.09v13.44h-38.09zm38.09 0h38.09v13.44h-38.09zm38.09 0h38.09v13.44h-38.09zm-56.01 13.44h38.09v13.44h-38.09z"/><path class="cls-10" d="M106.27 229.44h38.09v13.44h-38.09zm76.18 0h38.09v13.44h-38.09zM238.46 216h38.09v13.44h-38.09z"/><path class="cls-10" d="M276.55 216h38.09v13.44h-38.09zm38.09 0h38.09v13.44h-38.09zm-56.01 13.44h38.09v13.44h-38.09zm-38.09 0h38.09v13.44h-38.09zm76.18 0h38.09v13.44h-38.09zM352.73 216h38.09v13.44h-38.09z"/><path class="cls-10" d="M390.82 216h38.09v13.44h-38.09zm38.09 0H467v13.44h-38.09zm-56.01 13.44h38.09v13.44H372.9zm-38.09 0h38.09v13.44h-38.09zm76.18 0h38.09v13.44h-38.09z"/><path class="cls-10" d="M466.73 216h38.09v13.44h-38.09z"/><path class="cls-10" d="M504.82 216h38.09v13.44h-38.09zm38.09 0H581v13.44h-38.09zm-56.01 13.44h38.09v13.44H486.9zm-38.09 0h38.09v13.44h-38.09zm76.18 0h38.09v13.44h-38.09z"/><path class="cls-10" d="M580.73 216H600v13.44h-19.27zm-17.92 13.44h38.09v13.45h-38.09zM9.92 243h38.09v13.44H9.92z"/><path class="cls-10" d="M48.01 243H86.1v13.44H48.01zm38.09 0h38.09v13.44H86.1zm-56.01 13.44h38.09v13.44H30.09z"/><path class="cls-10" d="M-8 256.44h38.09v13.44H-8zm76.18 0h38.09v13.44H68.18zM124.19 243h38.09v13.44h-38.09zm38.09 0h38.09v13.44h-38.09zm38.09 0h38.09v13.44h-38.09zm-56.01 13.44h38.09v13.44h-38.09z"/><path class="cls-10" d="M106.27 256.44h38.09v13.44h-38.09zm76.18 0h38.09v13.44h-38.09zM238.46 243h38.09v13.44h-38.09z"/><path class="cls-10" d="M276.55 243h38.09v13.44h-38.09zm38.09 0h38.09v13.44h-38.09zm-56.01 13.44h38.09v13.44h-38.09zm-38.09 0h38.09v13.44h-38.09zm76.18 0h38.09v13.44h-38.09zM352.73 243h38.09v13.44h-38.09z"/><path class="cls-10" d="M390.82 243h38.09v13.44h-38.09zm38.09 0H467v13.44h-38.09zm-56.01 13.44h38.09v13.44H372.9zm-38.09 0h38.09v13.44h-38.09zm76.18 0h38.09v13.44h-38.09z"/><path class="cls-10" d="M466.73 243h38.09v13.44h-38.09z"/><path class="cls-10" d="M504.82 243h38.09v13.44h-38.09zm38.09 0H581v13.44h-38.09zm-56.01 13.44h38.09v13.44H486.9zm-38.09 0h38.09v13.44h-38.09zm76.18 0h38.09v13.44h-38.09z"/><path class="cls-10" d="M580.73 243H600v13.44h-19.27zm-17.92 13.44h38.09v13.45h-38.09zM9.92 270h38.09v13.44H9.92z"/><path class="cls-10" d="M48.01 270H86.1v13.44H48.01zm38.09 0h38.09v13.44H86.1zm-56.01 13.44h38.09v13.44H30.09z"/><path class="cls-10" d="M-8 283.44h38.09v13.44H-8zm76.18 0h38.09v13.44H68.18zM124.19 270h38.09v13.44h-38.09zm38.09 0h38.09v13.44h-38.09zm38.09 0h38.09v13.44h-38.09zm-56.01 13.44h38.09v13.44h-38.09z"/><path class="cls-10" d="M106.27 283.44h38.09v13.44h-38.09zm76.18 0h38.09v13.44h-38.09zM238.46 270h38.09v13.44h-38.09z"/><path class="cls-10" d="M276.55 270h38.09v13.44h-38.09zm38.09 0h38.09v13.44h-38.09zm-56.01 13.44h38.09v13.44h-38.09zm-38.09 0h38.09v13.44h-38.09zm76.18 0h38.09v13.44h-38.09zM352.73 270h38.09v13.44h-38.09z"/><path class="cls-10" d="M390.82 270h38.09v13.44h-38.09zm38.09 0H467v13.44h-38.09zm-56.01 13.44h38.09v13.44H372.9zm-38.09 0h38.09v13.44h-38.09zm76.18 0h38.09v13.44h-38.09z"/><path class="cls-10" d="M466.73 270h38.09v13.44h-38.09z"/><path class="cls-10" d="M504.82 270h38.09v13.44h-38.09zm38.09 0H581v13.44h-38.09zm-56.01 13.44h38.09v13.44H486.9zm-38.09 0h38.09v13.44h-38.09zm76.18 0h38.09v13.44h-38.09z"/><path class="cls-10" d="M580.73 270H600v13.44h-19.27zm-17.92 13.44h38.09v13.45h-38.09zM9.92 297h38.09v13.44H9.92z"/><path class="cls-10" d="M48.01 297H86.1v13.44H48.01zm38.09 0h38.09v13.44H86.1zm-56.01 13.44h38.09v13.44H30.09z"/><path class="cls-10" d="M-8 310.44h38.09v13.44H-8zm76.18 0h38.09v13.44H68.18zM124.19 297h38.09v13.44h-38.09zm38.09 0h38.09v13.44h-38.09zm38.09 0h38.09v13.44h-38.09zm-56.01 13.44h38.09v13.44h-38.09z"/><path class="cls-10" d="M106.27 310.44h38.09v13.44h-38.09zm76.18 0h38.09v13.44h-38.09zM238.46 297h38.09v13.44h-38.09z"/><path class="cls-10" d="M276.55 297h38.09v13.44h-38.09zm38.09 0h38.09v13.44h-38.09zm-56.01 13.44h38.09v13.44h-38.09zm-38.09 0h38.09v13.44h-38.09zm76.18 0h38.09v13.44h-38.09zM352.73 297h38.09v13.44h-38.09z"/><path class="cls-10" d="M390.82 297h38.09v13.44h-38.09zm38.09 0H467v13.44h-38.09zm-56.01 13.44h38.09v13.44H372.9zm-38.09 0h38.09v13.44h-38.09zm76.18 0h38.09v13.44h-38.09z"/><path class="cls-10" d="M466.73 297h38.09v13.44h-38.09z"/><path class="cls-10" d="M504.82 297h38.09v13.44h-38.09zm38.09 0H581v13.44h-38.09zm-56.01 13.44h38.09v13.44H486.9zm-38.09 0h38.09v13.44h-38.09zm76.18 0h38.09v13.44h-38.09z"/><path class="cls-10" d="M580.73 297H601v13.44h-20.27zm-17.92 13.44h38.09v13.44h-38.09zM9.92 324h38.09v13.44H9.92z"/><path class="cls-10" d="M48.01 324H86.1v13.44H48.01zm38.09 0h38.09v13.44H86.1zm-56.01 13.44h38.09v13.44H30.09z"/><path class="cls-10" d="M-8 337.44h38.09v13.44H-8zm76.18 0h38.09v13.44H68.18zM124.19 324h38.09v13.44h-38.09zm38.09 0h38.09v13.44h-38.09zm38.09 0h38.09v13.44h-38.09zm-56.01 13.44h38.09v13.44h-38.09z"/><path class="cls-10" d="M106.27 337.44h38.09v13.44h-38.09zm76.18 0h38.09v13.44h-38.09zM238.46 324h38.09v13.44h-38.09z"/><path class="cls-10" d="M276.55 324h38.09v13.44h-38.09zm38.09 0h38.09v13.44h-38.09zm-56.01 13.44h38.09v13.44h-38.09zm-38.09 0h38.09v13.44h-38.09zm76.18 0h38.09v13.44h-38.09zM352.73 324h38.09v13.44h-38.09z"/><path class="cls-10" d="M390.82 324h38.09v13.44h-38.09zm38.09 0H467v13.44h-38.09zm-56.01 13.44h38.09v13.44H372.9zm-38.09 0h38.09v13.44h-38.09zm76.18 0h38.09v13.44h-38.09z"/><path class="cls-10" d="M466.73 324h38.09v13.44h-38.09z"/><path class="cls-10" d="M504.82 324h38.09v13.44h-38.09zm38.09 0H581v13.44h-38.09zm-56.01 13.44h38.09v13.44H486.9zm-38.09 0h38.09v13.44h-38.09zm76.18 0h38.09v13.44h-38.09z"/><path class="cls-10" d="M580.73 324H601v13.44h-20.27zm-17.92 13.44h38.09v13.44h-38.09zM9.92 351h38.09v13.44H9.92z"/><path class="cls-10" d="M48.01 351H86.1v13.44H48.01zm38.09 0h38.09v13.44H86.1zm-56.01 13.44h38.09v13.44H30.09z"/><path class="cls-10" d="M-8 364.44h38.09v13.44H-8zm76.18 0h38.09v13.44H68.18zM124.19 351h38.09v13.44h-38.09zm38.09 0h38.09v13.44h-38.09zm38.09 0h38.09v13.44h-38.09zm-56.01 13.44h38.09v13.44h-38.09z"/><path class="cls-10" d="M106.27 364.44h38.09v13.44h-38.09zm76.18 0h38.09v13.44h-38.09zM238.46 351h38.09v13.44h-38.09z"/><path class="cls-10" d="M276.55 351h38.09v13.44h-38.09zm38.09 0h38.09v13.44h-38.09zm-56.01 13.44h38.09v13.44h-38.09zm-38.09 0h38.09v13.44h-38.09zm76.18 0h38.09v13.44h-38.09zM352.73 351h38.09v13.44h-38.09z"/><path class="cls-10" d="M390.82 351h38.09v13.44h-38.09zm38.09 0H467v13.44h-38.09zm-56.01 13.44h38.09v13.44H372.9zm-38.09 0h38.09v13.44h-38.09zm76.18 0h38.09v13.44h-38.09z"/><path class="cls-10" d="M466.73 351h38.09v13.44h-38.09z"/><path class="cls-10" d="M504.82 351h38.09v13.44h-38.09zm38.09 0H581v13.44h-38.09zm-56.01 13.44h38.09v13.44H486.9zm-38.09 0h38.09v13.44h-38.09zm76.18 0h38.09v13.44h-38.09z"/><path class="cls-10" d="M580.73 351H601v13.44h-20.27zm-17.92 13.44h38.09v13.44h-38.09zM9.92 378h38.09v13.44H9.92z"/><path class="cls-10" d="M48.01 378H86.1v13.44H48.01zm38.09 0h38.09v13.44H86.1zm-56.01 13.44h38.09v13.44H30.09z"/><path class="cls-10" d="M-8 391.44h38.09v13.44H-8zm76.18 0h38.09v13.44H68.18zM124.19 378h38.09v13.44h-38.09zm38.09 0h38.09v13.44h-38.09zm38.09 0h38.09v13.44h-38.09zm-56.01 13.44h38.09v13.44h-38.09z"/><path class="cls-10" d="M106.27 391.44h38.09v13.44h-38.09zm76.18 0h38.09v13.44h-38.09zM238.46 378h38.09v13.44h-38.09z"/><path class="cls-10" d="M276.55 378h38.09v13.44h-38.09zm38.09 0h38.09v13.44h-38.09zm-56.01 13.44h38.09v13.44h-38.09zm-38.09 0h38.09v13.44h-38.09zm76.18 0h38.09v13.44h-38.09zM352.73 378h38.09v13.44h-38.09z"/><path class="cls-10" d="M390.82 378h38.09v13.44h-38.09zm38.09 0H467v13.44h-38.09zm-56.01 13.44h38.09v13.44H372.9zm-38.09 0h38.09v13.44h-38.09zm76.18 0h38.09v13.44h-38.09z"/><path class="cls-10" d="M466.73 378h38.09v13.44h-38.09z"/><path class="cls-10" d="M504.82 378h38.09v13.44h-38.09zm38.09 0H581v13.44h-38.09zm-56.01 13.44h38.09v13.44H486.9zm-38.09 0h38.09v13.44h-38.09zm76.18 0h38.09v13.44h-38.09z"/><path class="cls-10" d="M580.73 378H601v13.44h-20.27zm-17.92 13.44h38.09v13.44h-38.09zM9.92 405h38.09v13.44H9.92z"/><path class="cls-10" d="M48.01 405H86.1v13.44H48.01zm38.09 0h38.09v13.44H86.1zm-56.01 13.44h38.09v13.44H30.09z"/><path class="cls-10" d="M-8 418.44h38.09v13.44H-8zm76.18 0h38.09v13.44H68.18zM124.19 405h38.09v13.44h-38.09zm38.09 0h38.09v13.44h-38.09zm38.09 0h38.09v13.44h-38.09zm-56.01 13.44h38.09v13.44h-38.09z"/><path class="cls-10" d="M106.27 418.44h38.09v13.44h-38.09zm76.18 0h38.09v13.44h-38.09zM238.46 405h38.09v13.44h-38.09z"/><path class="cls-10" d="M276.55 405h38.09v13.44h-38.09zm38.09 0h38.09v13.44h-38.09zm-56.01 13.44h38.09v13.44h-38.09zm-38.09 0h38.09v13.44h-38.09zm76.18 0h38.09v13.44h-38.09zM352.73 405h38.09v13.44h-38.09z"/><path class="cls-10" d="M390.82 405h38.09v13.44h-38.09zm38.09 0H467v13.44h-38.09zm-56.01 13.44h38.09v13.44H372.9zm-38.09 0h38.09v13.44h-38.09zm76.18 0h38.09v13.44h-38.09z"/><path class="cls-10" d="M466.73 405h38.09v13.44h-38.09z"/><path class="cls-10" d="M504.82 405h38.09v13.44h-38.09zm38.09 0H581v13.44h-38.09zm-56.01 13.44h38.09v13.44H486.9zm-38.09 0h38.09v13.44h-38.09zm76.18 0h38.09v13.44h-38.09z"/><path class="cls-10" d="M580.73 405H601v13.44h-20.27zm-17.92 13.44h38.09v13.44h-38.09zM9.92 432h38.09v13.44H9.92z"/><path class="cls-10" d="M48.01 432H86.1v13.44H48.01zm38.09 0h38.09v13.44H86.1zm-56.01 13.44h38.09v13.44H30.09z"/><path class="cls-10" d="M-8 445.44h38.09v13.44H-8zm76.18 0h38.09v13.44H68.18zM124.19 432h38.09v13.44h-38.09zm38.09 0h38.09v13.44h-38.09zm38.09 0h38.09v13.44h-38.09zm-56.01 13.44h38.09v13.44h-38.09z"/><path class="cls-10" d="M106.27 445.44h38.09v13.44h-38.09zm76.18 0h38.09v13.44h-38.09zM238.46 432h38.09v13.44h-38.09z"/><path class="cls-10" d="M276.55 432h38.09v13.44h-38.09zm38.09 0h38.09v13.44h-38.09zm-56.01 13.44h38.09v13.44h-38.09zm-38.09 0h38.09v13.44h-38.09zm76.18 0h38.09v13.44h-38.09zM352.73 432h38.09v13.44h-38.09z"/><path class="cls-10" d="M390.82 432h38.09v13.44h-38.09zm38.09 0H467v13.44h-38.09zm-56.01 13.44h38.09v13.44H372.9zm-38.09 0h38.09v13.44h-38.09zm76.18 0h38.09v13.44h-38.09z"/><path class="cls-10" d="M466.73 432h38.09v13.44h-38.09z"/><path class="cls-10" d="M504.82 432h38.09v13.44h-38.09zm38.09 0H581v13.44h-38.09zm-56.01 13.44h38.09v13.44H486.9zm-38.09 0h38.09v13.44h-38.09zm76.18 0h38.09v13.44h-38.09z"/><path class="cls-10" d="M580.73 432H600v13.44h-19.27zm-17.92 13.44h38.09v13.45h-38.09zM9.92 459h38.09v13.44H9.92z"/><path class="cls-10" d="M48.01 459H86.1v13.44H48.01zm38.09 0h38.09v13.44H86.1zm-56.01 13.44h38.09v13.44H30.09z"/><path class="cls-10" d="M-8 472.44h38.09v13.44H-8zm76.18 0h38.09v13.44H68.18zM124.19 459h38.09v13.44h-38.09zm38.09 0h38.09v13.44h-38.09zm38.09 0h38.09v13.44h-38.09zm-56.01 13.44h38.09v13.44h-38.09z"/><path class="cls-10" d="M106.27 472.44h38.09v13.44h-38.09zm76.18 0h38.09v13.44h-38.09zM238.46 459h38.09v13.44h-38.09z"/><path class="cls-10" d="M276.55 459h38.09v13.44h-38.09zm38.09 0h38.09v13.44h-38.09zm-56.01 13.44h38.09v13.44h-38.09zm-38.09 0h38.09v13.44h-38.09zm76.18 0h38.09v13.44h-38.09zM352.73 459h38.09v13.44h-38.09z"/><path class="cls-10" d="M390.82 459h38.09v13.44h-38.09zm38.09 0H467v13.44h-38.09zm-56.01 13.44h38.09v13.44H372.9zm-38.09 0h38.09v13.44h-38.09zm76.18 0h38.09v13.44h-38.09z"/><path class="cls-10" d="M466.73 459h38.09v13.44h-38.09z"/><path class="cls-10" d="M504.82 459h38.09v13.44h-38.09zm38.09 0H581v13.44h-38.09zm-56.01 13.44h38.09v13.44H486.9zm-38.09 0h38.09v13.44h-38.09zm76.18 0h38.09v13.44h-38.09z"/><path class="cls-10" d="M580.73 459H600v13.44h-19.27zm-17.92 13.44h38.09v13.45h-38.09zM9.92 486h38.09v13.44H9.92z"/><path class="cls-10" d="M48.01 486H86.1v13.44H48.01zm38.09 0h38.09v13.44H86.1zm38.09 0h38.09v13.44h-38.09zm38.09 0h38.09v13.44h-38.09zm38.09 0h38.09v13.44h-38.09zm38.09 0h38.09v13.44h-38.09z"/><path class="cls-10" d="M276.55 486h38.09v13.44h-38.09zm38.09 0h38.09v4h-38.09zm38.09 0h38.09v4h-38.09z"/><path class="cls-10" d="M390.82 486h38.09v4h-38.09zm38.09 0H467v4h-38.09z"/><path class="cls-10" d="M466.73 486h38.09v4h-38.09z"/><path class="cls-10" d="M504.82 486h38.09v4h-38.09zm38.09 0H581v13.44h-38.09z"/><path class="cls-10" d="M600 486v4h-19v9.44h-.27V486H600z"/></g><path fill="#352a23" d="M0 432h600v6H0z"/></g><g id="Дверь"><path class="cls-12" d="M219 115h167v313H219z"/><path class="cls-12" d="M376 125v293H229V125h147m20-20H209v333h187V105z"/><path d="M378 123v297H227V123h151m18-18H209v333h187V105z" fill="#53463e"/><path d="M396 105v333H209V105h187m1-1H208v335h189V104z" fill="#1e0e05"/><path class="cls-12" d="M227 415h151v23H227z"/></g><path fill="#a3b4be" d="M0 438h600v52H0z"/><path class="cls-16" d="M0 464.54V438h130.33c7 2.93 12.24 5 12.91 5 1.93.06-111.74 16.88-143.24 21.54z"/><path fill="#dce5ea" d="M396 490H209l1.38-4 .04-.11 4.66-13.45 4.65-13.44.04-.11.77-2.23 3.88-11.22L227 438h151l2.58 7.44 4.65 13.45.04.11 4.65 13.44 4.66 13.45.04.11 1.38 4z"/><path fill="#b0c2cc" d="M226.12 438.42L209 490H0v-28l226.12-23.58z"/><path class="cls-19" d="M227 438L75 453V108l152 15v315z"/><path fill="#aeaaab" d="M221.5 127.47v306.05L81.55 446.9V114.1l139.95 13.37z"/><path fill="#dfdfdf" d="M221.5 157.9v275.62L95.52 445.56 221.5 157.9z"/><path class="cls-19" d="M144.41 315.73l-24.59.52V139.1l24.59 2.04v174.59z"/><path class="cls-22" d="M148.95 320.36l-33.82.8V133.9l33.82 2.9v183.56z"/><path class="cls-19" d="M189.62 314.79l-23.28.48V142.96l23.28 1.94v169.89z"/><path class="cls-22" d="M193.91 319.29l-32 .76V137.91l32 2.75v178.63z"/><path class="cls-19" d="M144.41 422.94l-24.59 2.08v-81.48l24.59-.91v80.31z"/><path class="cls-22" d="M148.95 426.3l-33.82 2.94v-89.35l33.82-1.18v87.59z"/><path class="cls-19" d="M189.62 419.1l-23.28 1.98v-79.27l23.28-.86v78.15z"/><path class="cls-22" d="M193.91 422.38l-32 2.79v-86.91l32-1.11v85.23z"/><path d="M95.56 314.59l-8.59.17v-30.45l8.59-.02v30.3zm0 16.24l-8.59.25v-8.7l8.59-.21v8.66z" fill="#d8d8d8"/><path class="cls-24" d="M94.49 301.62l-6.44.08v-7.61l6.44-.05v7.58z"/><path class="cls-25" d="M106.19 299.32l-15.99.18v-3.26l15.99-.14v3.22z"/><rect class="cls-24" x="95.56" y="298.35" width="1.07" transform="rotate(-.59 96.542 299.606)"/><path class="cls-25" d="M92.35 312.49l-2.15.04v-5.43l2.15-.03v5.42zm-3.77 13.65v-1.63l5.38-.13V326l-5.38.14zm0 2.18v-1.63l5.38-.15v1.63l-5.38.15z"/></g><path class="cls-16" d="M220.28 465.72l-75.99 33.72-7.57-3.44 54.78-37 28.78 6.72zM155.73 463L107 490.6l13.34 2.12 61.21-27-25.82-2.72z"/><path d="M162.21 454.67v.6c-9.38 4.3-10 5.67-9 9.8l23.37-.19-9-10.21zm49.52 0v.6c9.38 4.3 10 5.67 9 9.8l-23.37-.19 9-10.21z" fill="#463016"/><path d="M212.57 454.29s-12.12 10.93-15.72 10.81a36.8 36.8 0 00-4.65 0l-2.8-4.85s5.58-56.88 2.82-92.06a94.81 94.81 0 00-2.82-18.07l-5.09-.13s-1.84 3.15-2.81 17.68c-1 15.19-1.06 42.79 2.93 92.21a31.39 31.39 0 01-2.69 5.19l-6-.22s-12.42-10.56-14.65-10.56l2.36-3.47 2.36-.25s6-28.93-1.37-101.44c.75-2.36 1.12-3.36 1.12-3.36l-.17-6.92v-3.13s25.8 2.25 39.28 0a30.68 30.68 0 003.68-.84v10.88l1.12 3.27s-7.82 61.46-1.24 101.32a4.85 4.85 0 002.23.37l2.19 3.6z" fill="#23282e"/><path d="M192.62 352.75l4.73 1.22-5.09.74v13.48a94.81 94.81 0 00-2.82-18.07l-5.09-.13s-1.84 3.15-2.81 17.68c0-.15-1-11.72-1.29-11.72s-6.08-1.41-6.08-1.41l6.83-1.32s-5.59-1.41-6.83-3.87c5.83.77 5 .1 7.7 0l-1.52-3.62a15.66 15.66 0 006.08 2.59c2.84.3 5.41-3.43 5.49-3.54-.06.16-2.62 7.3 7.2 5.34a45.44 45.44 0 01-6.46 2.63z" fill="#1d1f25"/><path d="M208.27 335.3v2.51a328.59 328.59 0 01-42.88 1v-3.13s25.8 2.25 39.28 0c1.26-.11 2.48-.24 3.68-.39z" fill="#1d2125"/><path d="M186.12 336.66c0 1 .08 1.95.1 2.93v5.83c0 .97-.05 1.95-.09 2.92l-.8-.4c.42-.36.85-.76 1.26-1.16s.81-.81 1.2-1.22a30.34 30.34 0 002.19-2.64c.34-.47.66-.94 1-1.43.15-.24.29-.49.43-.74s.27-.51.38-.77a9.58 9.58 0 00.91-3.31 7.41 7.41 0 010 1.76c0 .15 0 .3-.07.45l-.09.43c0 .15-.08.29-.11.43l-.06.22-.08.21a11.92 11.92 0 01-.68 1.65c-.13.27-.27.53-.42.79s-.3.52-.46.77a22.75 22.75 0 01-2.16 2.83c-.39.44-.8.87-1.22 1.28s-.86.81-1.32 1.21l-.86.72.05-1.12c0-1 .1-1.94.17-2.92s.13-1.94.21-2.91c0-.48.08-1 .13-1.45s.08-1 .14-1.45c.1-1 .21-1.94.35-2.91zm22.15 9.07a9.65 9.65 0 01-1.67-.32 11.44 11.44 0 01-1.61-.58 10.78 10.78 0 01-2.9-1.88 8.58 8.58 0 01-1.15-1.33 6.93 6.93 0 01-.81-1.55 6.22 6.22 0 01-.25-.84c0-.14-.06-.28-.09-.42v-1.72l.06-.42.06.42v.41c0 .07.05.28.08.41s.07.27.1.4l.05.2.07.2.12.39.16.37a2.48 2.48 0 00.17.37 3.13 3.13 0 00.19.36l.2.35.22.33a4 4 0 00.24.33l.12.16.13.15.26.31c.1.09.18.19.28.29l.29.28a14.54 14.54 0 002.65 1.91c.48.27 1 .52 1.48.76s1 .45 1.54.66zm-42.62 0c.53-.21 1-.42 1.54-.66s1-.49 1.48-.76a14.54 14.54 0 002.65-1.91l.29-.28c.1-.1.18-.2.28-.29l.26-.31.13-.15.12-.16a4 4 0 00.24-.33l.22-.33.2-.35a3.13 3.13 0 00.19-.36 2.48 2.48 0 00.17-.37l.16-.37.12-.39.07-.2v-.2c0-.13.07-.26.1-.4s.05-.27.08-.41 0-.13 0-.2v-.21l.06-.42.06.42v.21a1.62 1.62 0 000 .22v1.34c0 .14 0 .28-.07.42a8.16 8.16 0 01-.26.84 6.93 6.93 0 01-.81 1.55 8.58 8.58 0 01-1.15 1.33 10.78 10.78 0 01-2.9 1.88 11.44 11.44 0 01-1.61.58 9.65 9.65 0 01-1.67.32z" fill="#3b424a"/><path class="cls-31" d="M192.07 266.37l-12.67-1.12-4.59-2.06v-3a1.69 1.69 0 00.43-.08c.77-.23 2.39-1.14 3.73-4.71a23.67 23.67 0 00.85-2.85 44.45 44.45 0 001-6.32c0-.5.08-1 .11-1.56h.09c8-2.19 12.11 0 12.11 0a24.73 24.73 0 00.5 7.9 16.06 16.06 0 00.76 2.35 10.11 10.11 0 004.52 5.27c7.23 3.85-6.8 6.21-6.8 6.21"/><path class="cls-32" d="M193.59 252.54c-5.7 4.09-10.51 2.43-13.77 0a44.45 44.45 0 001-6.32c.07-.51.14-1 .2-1.59 8-2.19 12.11 0 12.11 0a24.73 24.73 0 00.5 7.9z"/><path class="cls-33" d="M222.24 290.08c0 .1-.09.2-.26.28-1.64.78-10.5.66-13 .61h-.35a.3.3 0 00-.31.3L208 333a.43.43 0 000 .11 3 3 0 01.16 2.49 2 2 0 01-.31.43c-1.1 1.1-41.22.69-42.5.68h-.07a1.24 1.24 0 01-.65-.45c-.31-.42-.46-1.21.26-2.71s.91-4.66 1-7.43c0-2.24-.05-4.2-.08-4.72v-.15l.08-28.09v-2.05a.3.3 0 00-.29-.3l-1.42-.06-12.24-.5h-.06a.3.3 0 01-.29-.36c.6-3.08 5.18-26 9.46-28.68a.19.19 0 01.09 0c3.52-.85 3-1 13.56-2.2a.3.3 0 01.27.11c5 6.3 18.64 7.13 23.87 0a.3.3 0 01.26-.12c4.76.37 12.33 1.68 13.4 1.87a.34.34 0 01.2.13c.76 1.16 7.26 11.51 9.6 29.15"/><path d="M222 289.36c-1.64.78-10.5.66-13 .61h-.35a.3.3 0 00-.31.3L208 332a.3.3 0 000 .1v2a.35.35 0 000 .14 2.25 2.25 0 01.16.38 1.75 1.75 0 01-.31.42c-1.1 1.1-41.22.7-42.5.69h-.07a1.24 1.24 0 01-.65-.45 5 5 0 01.26-.6c.89-1.86 1-6.52 1-9.54 0-1.54-.08-2.65-.08-2.75v-2l.08-28.18v-2.06a.3.3 0 00-.29-.3l-1.78.28-12 .13C153 284 157.2 264.67 161 262.3a.19.19 0 01.09 0c3.52-.85 3-1 13.56-2.2a.27.27 0 01.27.11c5 6.29 18.64 7.13 23.87 0a.3.3 0 01.26-.12c4.76.36 12.33 1.68 13.4 1.87a.34.34 0 01.2.13c.73 1.12 6.81 10.79 9.34 27.31" fill="#71b62c"/><path class="cls-33" d="M208 333a.32.32 0 000 .14c.16.33.84 1.92-.15 2.92s-41.23.69-42.5.68h-.07c-.26-.07-1.63-.56-.39-3.16 1.34-2.81.88-12 .87-12.28l.08-30.14a.31.31 0 00-.29-.31h-1.09a.31.31 0 01-.29-.35 83.15 83.15 0 012.6-12.56.31.31 0 01.6.12c-1.39 12.07-.26 37 .43 49.27a8.53 8.53 0 008.39 8c6.52.1 15.66-.18 22-.42a8 8 0 007.7-7.8c.18-7.08.43-16.81.43-18a243.34 243.34 0 00.17-30.87.31.31 0 01.6-.1 84.06 84.06 0 011.91 12.49.31.31 0 01-.32.33.3.3 0 00-.31.3L208 333"/><path class="cls-32" d="M219.81 297.24a11 11 0 01-3.54 6.67c-2.87-.85-40 6.57-43.34 6.91-6.24-1.27-17.64-12.76-18.89-17.85a3.14 3.14 0 01-.1-1l7.57.12 7.77 6.82a11.85 11.85 0 008.6 2.91c18.48-1.35 27.5-5.91 27.5-5.91a21.29 21.29 0 011.1-5.31c0-.51 1.52-.76 3.63-1.61s3.37-3.29 4.13-4.72a1.94 1.94 0 011.38 1 5.52 5.52 0 01.65 1.91l-4.39 4.47 2.65-.87 4.78-1.57s.09.45.2 1.21a30 30 0 01.3 6.8z"/><path class="cls-31" d="M177.86 303c18.92-1.37 28.16-6 28.16-6a21.63 21.63 0 011.12-5.42c0-.51 1.56-.77 3.72-1.63s3.45-3.35 4.23-4.81a1.74 1.74 0 01.53.17c1.27.67 1.55 2.83 1.55 2.83l-2.64 2.68-1.86 1.88 6.84-2.24a30 30 0 01.3 6.8 11 11 0 01-3.54 6.67c-2.87-.85-40 6.57-43.34 6.91-2.86-.58-6.8-3.31-10.36-6.59l-.24-.22-.1-.1"/><path class="cls-32" d="M186.91 300.8l-.67.1-2.64.39c-5.35.78-14.12 2-21.33 2.61l.34.32c-.6-.08-1.17-.15-1.69-.2a12.44 12.44 0 00-3.33-.12 11 11 0 01-3.54-6.67 26.08 26.08 0 010-4.34c0-.33.05-.65.08-.95.07-.65.15-1.22.22-1.66.1-.67.18-1.06.18-1.06l5.31 1.74 2.12.7-4.39-4.47a5.74 5.74 0 01.31-1.19 2.43 2.43 0 011.72-1.76c.76 1.43 2 3.88 4.13 4.72s3.63 1.1 3.63 1.61a20.85 20.85 0 011.09 5.31s6.08 3.07 18.47 4.91z"/><path d="M162.23 303.91l.34.32c-.6-.08-1.17-.15-1.69-.2a12.44 12.44 0 00-3.33-.12 11 11 0 01-3.54-6.67 26.08 26.08 0 010-4.34c0-.33.05-.65.08-.95.07-.65.15-1.22.22-1.66l7.11 2.34-1.6-1.63-2.76-2.81a5.19 5.19 0 01.8-2.15 1.85 1.85 0 011.22-.8c.76 1.43 2 3.88 4.13 4.72s3.63 1.1 3.63 1.6a21.28 21.28 0 011.1 5.32s5.14 2.6 15.62 4.45c-5.35.78-14.12 2-21.33 2.61z" fill="#e7ac70"/><path class="cls-32" d="M211.24 304.23l-.92.84c-3.3 2.89-6.82 5.22-9.44 5.75-1.11-.11-5.92-1-12-2.11l-2-.36c8.34-1.53 18.37-3.33 24.33-4.12z"/><path class="cls-31" d="M210.32 305.07c-3.3 2.89-6.82 5.22-9.44 5.75-1.11-.11-5.92-1-12-2.11 7.34-1.34 15.71-2.83 21.4-3.64z"/><path class="cls-32" d="M154 293.92q.6.31 1.23.57c.42.17.84.32 1.27.45a12.08 12.08 0 001.29.31 8.37 8.37 0 001.31.11v.62a8.65 8.65 0 01-1.38-.28 11.14 11.14 0 01-1.3-.47q-.63-.27-1.23-.6c-.4-.22-.79-.46-1.16-.71zm.09 3.72c.4.21.81.4 1.22.57s.84.32 1.27.45a11.69 11.69 0 001.3.31 8.16 8.16 0 001.3.12v.62a9.12 9.12 0 01-1.38-.28 11.74 11.74 0 01-1.29-.48q-.63-.27-1.23-.6a12.4 12.4 0 01-1.16-.71zm65.67-3.35a12.4 12.4 0 01-1.16.71q-.6.33-1.23.6a11.14 11.14 0 01-1.3.47 7.67 7.67 0 01-1.38.28v-.62a7.32 7.32 0 001.31-.11 12.08 12.08 0 001.29-.31 14.752 14.752 0 002.5-1.02zm-.13 3.71a10.59 10.59 0 01-1.16.71c-.4.22-.81.42-1.22.61s-.86.33-1.3.47a9.12 9.12 0 01-1.38.28v-.62a7.15 7.15 0 001.3-.12 9.78 9.78 0 001.3-.3c.43-.14.85-.29 1.27-.46a12.21 12.21 0 001.22-.57z"/><path d="M166.23 211.21c.36 3.79-.92 7-2.87 7.2s-3.82-2.73-4.18-6.52.92-7 2.87-7.2 3.81 2.73 4.18 6.52zm48.4.5c-.58 3.76-2.61 6.57-4.54 6.28s-3-3.59-2.46-7.35 2.61-6.57 4.54-6.28 3 3.59 2.46 7.35z" fill="#e5a46b"/><path fill="#e8b075" d="M166.12 225.39l-3.35-14.03v-14.45l2.48-9.26 2.48-3.85 7.08-.17 12.16.13 22.04 2.06 1.93 7.54 1.67 8.91-1.32 5.77-2.55 17.35-12.57 14.16-18.13-4.35-11.92-9.81z"/><path class="cls-40" d="M186.85 224.59c5.84 8.5-14.28 4.53-14.28 4.53l-6.08-2.86-3.17-12.73-1.8-12.65 1.53-13.36 7.91-5.34 19.49 5.34s-13.08.46-7.83 23.64c.14.64.3 1.31.48 2l-.62 5.44a1.86 1.86 0 00.6 1.6 5 5 0 002.61 1.27c.07.21.14.42.22.63.3.81.61 1.65.94 2.5z"/><path class="cls-41" d="M192.32 231.73h-10.69c2.79-2.27 4.48-.38 10.69 0zm20.24-25.09c-.26-1.19-1.37.5-2.11 1.37-.24 1.19-1.38 9.14-1.46 9.88-.68 6.46-5.16 10.17-11.54 9.37a28.11 28.11 0 01-5.86-1.4 13.62 13.62 0 00-9.46-.05 29.88 29.88 0 01-5.61 1.39c-6.47 1-10.93-2.38-11.91-8.87-.13-.84-.13-9.09-.35-10.44-1-3-2.72-5-2.74-3.48 0 .37.22 7.82.41 12.86.09 2.46.18 4.34.24 4.54 1 3.39 1.12 6.9 3 10.18 2.74 4.74 5 9.7 10.53 11.75 2 .73 3.79 1.89 6.31 1.42a33.89 33.89 0 018.88.1c2.33.2 4.38-.57 6.52-1.16 4.41-1.23 6.5-5 8.93-8.33a29.32 29.32 0 004.81-12 2.21 2.21 0 00.05-.25c.3-1.58 1.67-15.32 1.34-16.88z"/><path d="M211.17 223.77a29.32 29.32 0 01-4.81 12c-2.43 3.28-4.52 7.1-8.93 8.33-2.14.59-4.19 1.36-6.52 1.16a33.89 33.89 0 00-8.88-.1c-2.52.47-4.33-.69-6.31-1.42-5.53-2.05-7.79-7-10.53-11.75-1.9-3.28-2.06-6.79-3-10.18-.06-.2-.15-2.08-.24-4.54 1.6 4.33 4.26 11.08 5.92 12.78 2.49 2.55 3.73 8.26 8.14 9.5s14.49 3 18.33 1.74c3.63-1.18 8.53-1.7 16.85-17.52z" fill="#512217"/><path class="cls-43" d="M169 197.32a1.32 1.32 0 01.32-.86c.3-.26 9.06-3.49 10.83-4.88.12-.09.22 0 .32.13.59.74-.24 2.88-.54 3.43s-1.92 1.5-3.79 1.84a63.1 63.1 0 01-7.14.34z"/><path class="cls-41" d="M216.56 195.82c-1 4.51-1.76 8.92-5.27 12.22l-.79-.07v-9.36a11.7 11.7 0 00-3.35-8.22c-2.77-2.81-5.82-4.29-9.9-3.27-3.82.95-7.71 1.6-11.57 2.38l.06.53H194v.59h-13.16l1.12.85 2 1.51a21.12 21.12 0 01-2.36-.39c-4.67-1-8.18-3.5-11.44-6.68-5.82 5.22-6.65 11.61-6.25 18.37.08 1.31.21 2.63.35 4-5.22-6.87-9.74-13.9-7.36-23.49l-1.86.94c-1.18-2.41 3-7.2 10.26-11.62l-3.56-1.53v-.34a22.29 22.29 0 012.46.27c.79.17 1.56.48 2.52.79-.12-1.11-.21-2-.31-2.82l.26-.07c.32.66.64 1.31 1.12 2.27 1.71-3.24 3.41-6.1 6.55-7.86s6.42-1.55 10.29-.95l-2.47 1.5c0 .13.06.26.08.4 2.48 0 5 .11 7.43 0s4.94-.55 8.11-.92l-3.1 2.33c4.81.91 9.68 1.34 12.77 5.09 2.89 3.51 6 7.22 7.53 11.37 3.16 8.36 2.39 8.43 1.58 12.25z"/><path d="M184.15 203.89l-1.67 14.7a1.86 1.86 0 00.6 1.6c1.14 1 3.6 2.43 6.88-.14-1.49 1.83-2.76 4.41-7.08 2.36-.72-.34-3.56-1.31-3.48-2.11.61-6 4.75-16.41 4.75-16.41z" fill="#d6703f"/><path d="M190 220.05a4.44 4.44 0 01-4.05 2 9.93 9.93 0 01-3.46-1.06 1.89 1.89 0 01-1.08-1.89c.25-2.41.74-5.34 1.25-8 .73-3.85 1.49-7.09 1.53-7.26l-1.05 9.25-.62 5.44a1.86 1.86 0 00.6 1.6 5 5 0 002.61 1.27 5.54 5.54 0 004.27-1.41z" fill="#e97546"/><path class="cls-40" d="M195.19 233.23a1 1 0 01-.65.46c-1.53.4-5-1.1-7.79-1.35-3.37-.29-6.74 2.37-7.59 1.48a1.45 1.45 0 01-.21-.22c-1-1.25 0-3.63.53-4.63a.72.72 0 01.75-.4c2.55.37 4.46 1.41 7.37 1.41 2.42.26 5.27-1.69 6.18-1.84.15 0 .24 0 .28.07.28.59 2 3.54 1.13 5z"/><path d="M195 233.43a1 1 0 01-.63.42c-1.47.36-4.78-1-7.51-1.24-3.26-.27-6.51 2.17-7.33 1.36l-.2-.2c-.95-1.15 0-3.34.51-4.26a.67.67 0 01.24-.26.73.73 0 01.48-.11c2.47.34 4.31 1.3 7.11 1.3 2.34.24 5.09-1.55 6-1.69q.21 0 .27.06c.27.55 1.9 3.26 1.09 4.62z" fill="#5c2523"/><path class="cls-12" d="M194.32 233.85c-1.47.36-4.78-1-7.51-1.24-3.26-.27-6.51 2.17-7.33 1.36l-.2-.2.75-2.15v-2.37a.73.73 0 01.48-.11c2.47.34 4.31 1.3 7.11 1.3 2.34.24 5.09-1.55 6-1.69v2.78l.54 2.17.19.15z"/><path class="cls-43" d="M168.38 203c1-2.54 9.83-7.93 11.25 1.32"/><path class="cls-47" d="M179.26 205.42a5.43 5.43 0 01-1.91.66 16 16 0 01-4.85.07c-2-.27-3.83-.93-4.55-2.06a.65.65 0 01.05-.77c1.43-1.66 7.71-5.84 11.55.85a.94.94 0 01-.29 1.25z"/><path class="cls-48" d="M177.35 206.08a16 16 0 01-4.85.07c0-.22.07-.44.12-.67a5.3 5.3 0 01.58-1.44 2.56 2.56 0 012.58-1.55c1.16.28 1.81 1.84 1.56 3.62z"/><path class="cls-49" d="M174.06 205.38a2.47 2.47 0 01-1.43.07 5.3 5.3 0 01.58-1.44 2 2 0 01.37-.15c.87-.27 1.68-.16 1.82.26s-.47 1-1.34 1.26z"/><path class="cls-43" d="M191.7 203.55c1-2.54 9.83-7.93 11.25 1.32"/><path class="cls-47" d="M202.58 205.93a5.42 5.42 0 01-1.92.66 15.43 15.43 0 01-1.64.19 16.41 16.41 0 01-3.2-.12 9 9 0 01-.93-.16 5.57 5.57 0 01-3.62-1.9.65.65 0 010-.77c1.43-1.66 7.71-5.84 11.55.85a.94.94 0 01-.29 1.25z"/><path class="cls-48" d="M199 206.78a16.41 16.41 0 01-3.2-.12 9 9 0 01-.93-.16 4.86 4.86 0 01.08-.64 7.07 7.07 0 01.48-1.68c.56-1.31 1.4-2.06 2.18-1.81.94.32 1.52 2.45 1.38 4.45z"/><path class="cls-49" d="M196.18 205.73a1.48 1.48 0 01-1.2.09 7.21 7.21 0 01.48-1.68 2 2 0 01.32-.17c.73-.32 1.42-.2 1.53.29s-.39 1.15-1.13 1.47z"/><path class="cls-43" d="M191.2 191.66s-1.44 2.87-.36 3.73 5.77 2.58 15.51 1.43c-1.44-2-11.54-2.58-15.15-5.16z"/><path d="M159.16 248.12c-.89.17-1.76.39-2.61.63a21.7 21.7 0 00-2.46.88 12.28 12.28 0 00-4.16 2.77 10 10 0 00-2.35 4.32c-.05.21-.11.41-.16.62s-.08.42-.12.64l-.06.32a3.06 3.06 0 00-.05.32l-.08.65c0 .22 0 .44-.05.67l-.06.66c0 .45 0 .9-.06 1.36-.14-.43-.27-.87-.38-1.32-.05-.22-.09-.45-.13-.67s-.09-.46-.11-.69a10.8 10.8 0 01-.08-1.39v-.71c0-.24 0-.47.07-.71a9.44 9.44 0 01.79-2.76 5 5 0 01.34-.65l.18-.32c.06-.1.13-.2.2-.3l.21-.3.11-.15.12-.14c.15-.19.31-.38.47-.56a9.76 9.76 0 012.29-1.77 11.75 11.75 0 012.63-1.08 13.64 13.64 0 012.75-.47 10.92 10.92 0 012.74.15zm-.99-10.43a36.24 36.24 0 00-4.54.81 32.14 32.14 0 00-4.34 1.36 20.25 20.25 0 00-7.41 4.79 16.09 16.09 0 00-1.4 1.69l-.31.45-.29.47q-.28.47-.54 1a18.11 18.11 0 00-1.53 4.15 24.8 24.8 0 00-.63 4.48c-.05.76-.05 1.53-.06 2.3v2.31c-.1-.37-.19-.75-.28-1.13s-.16-.76-.23-1.14l-.09-.58c0-.19-.06-.39-.08-.58 0-.39-.09-.78-.11-1.17a20.82 20.82 0 01.17-4.73c0-.2.06-.4.11-.59l.12-.59c0-.19.1-.39.14-.58s.11-.39.17-.58a16 16 0 01.87-2.26 14.64 14.64 0 011.21-2.1 15.42 15.42 0 011.53-1.89 16.25 16.25 0 011.79-1.63 18.94 18.94 0 012-1.35 20.45 20.45 0 014.38-1.9 25.24 25.24 0 014.62-.94c.78-.08 1.56-.13 2.34-.14h1.17c.39 0 .77 0 1.16.09zm-1.44-14.53c-.61 0-1.21.1-1.82.17s-1.21.14-1.81.24-1.2.18-1.79.29-1.19.23-1.78.36a48.44 48.44 0 00-6.94 2 36.8 36.8 0 00-6.43 3.14 29.29 29.29 0 00-2.9 2.06 23.62 23.62 0 00-2.6 2.4 24.44 24.44 0 00-2.24 2.73c-.17.24-.34.48-.5.73l-.47.75c-.3.51-.6 1-.86 1.55a25.39 25.39 0 00-1.4 3.26 28.62 28.62 0 00-1 3.43 37.87 37.87 0 00-.86 7.15 61.26 61.26 0 00.23 7.28 42.27 42.27 0 01-1-7.28A33.45 33.45 0 01123 246l.08-.46a3.58 3.58 0 01.09-.45l.2-.92c0-.15.07-.3.11-.45l.12-.45.13-.45c0-.15.09-.3.14-.45a24.94 24.94 0 011.38-3.5 24.36 24.36 0 014.27-6.18 27.25 27.25 0 015.88-4.66 33.27 33.27 0 016.8-3 40.9 40.9 0 017.22-1.61c1.22-.15 2.45-.27 3.67-.32a29.94 29.94 0 013.67 0zm60.46 24.96a10.92 10.92 0 012.74-.15 13.64 13.64 0 012.75.47 11.75 11.75 0 012.63 1.08 9.76 9.76 0 012.29 1.77l.48.56.11.14.11.15.21.3c.07.1.14.2.2.3l.18.32a5 5 0 01.34.65 9.44 9.44 0 01.79 2.76c0 .24 0 .48.07.71s0 .47 0 .71a10.8 10.8 0 01-.08 1.39c0 .23-.07.46-.1.69s-.09.45-.14.67c-.11.45-.24.89-.38 1.32 0-.46 0-.91-.06-1.36l-.06-.66v-.67l-.08-.65a3.06 3.06 0 000-.32l-.06-.32c0-.22-.07-.43-.12-.64s-.11-.41-.16-.62a10 10 0 00-2.35-4.32 12.28 12.28 0 00-4.16-2.77 21.7 21.7 0 00-2.46-.88c-.85-.24-1.72-.46-2.61-.63zm.99-10.43c.39-.05.77-.07 1.16-.09s.78 0 1.17 0c.78 0 1.56.06 2.34.14a25.24 25.24 0 014.62.94 20.45 20.45 0 014.38 1.9 18.94 18.94 0 012 1.35 16.25 16.25 0 011.79 1.63 15.42 15.42 0 011.53 1.89 14.64 14.64 0 011.21 2.1 16 16 0 01.87 2.26c.06.19.12.38.17.58s.1.39.14.58l.12.59c0 .19.07.39.11.59a20.82 20.82 0 01.17 4.73c0 .39-.07.78-.11 1.17 0 .19 0 .39-.08.58l-.09.58c-.07.38-.15.76-.23 1.14s-.18.76-.28 1.13v-2.31c0-.77 0-1.54-.06-2.3a24.8 24.8 0 00-.63-4.48 18.11 18.11 0 00-1.53-4.15q-.25-.5-.54-1l-.29-.47-.31-.45a16.09 16.09 0 00-1.4-1.69 20.25 20.25 0 00-7.41-4.79 32.14 32.14 0 00-4.34-1.36 36.24 36.24 0 00-4.54-.81zm1.44-14.53a29.94 29.94 0 013.67 0c1.22 0 2.45.17 3.67.32a40.9 40.9 0 017.22 1.61 33.27 33.27 0 016.8 3 27.25 27.25 0 015.88 4.66 24.36 24.36 0 014.27 6.18 24.94 24.94 0 011.38 3.5c.05.15.1.3.14.45l.13.45.12.45c0 .15.08.3.11.45l.21.92c0 .15.06.3.08.45l.09.46a34.06 34.06 0 01.41 7.4 42.27 42.27 0 01-1 7.28 61.26 61.26 0 00.23-7.28 37.87 37.87 0 00-.86-7.15 28.62 28.62 0 00-1-3.43 25.39 25.39 0 00-1.4-3.26c-.26-.53-.56-1-.85-1.55l-.48-.75c-.16-.25-.33-.49-.5-.73a24.44 24.44 0 00-2.24-2.73 23.62 23.62 0 00-2.6-2.4 29.29 29.29 0 00-2.9-2.06 36.8 36.8 0 00-6.43-3.14 48.44 48.44 0 00-6.94-2c-.59-.13-1.18-.25-1.78-.36s-1.19-.2-1.79-.29-1.21-.17-1.81-.24-1.21-.13-1.82-.17z" fill="#eaeaea"/></g></svg>