<svg id="электрические" xmlns="http://www.w3.org/2000/svg" viewBox="0 0 600 490"><defs><clipPath id="clip-path"><path class="cls-1" d="M252.8 318.64h26.5v26.5h-26.5z"/></clipPath><clipPath id="clip-path-2"><path class="cls-1" d="M279.25 318.64h2.99v29.44h-2.99z"/></clipPath><clipPath id="clip-path-3"><path class="cls-1" d="M252.8 345.09h26.5v2.99h-26.5z"/></clipPath><clipPath id="clip-path-4"><path d="M281.18 348h-27.66c-.24-7.64-.28-15.83.3-20.86a.21.21 0 00-.22-.23.19.19 0 00-.2.15c-.2.66-.38 1.33-.54 2V318.7h29.32v10.95c-.16-.88-.32-1.69-.51-2.38a.2.2 0 00-.2-.15.21.21 0 00-.22.23 160.56 160.56 0 01-.07 20.67" clip-path="url(#clip-path)" fill="none"/></clipPath><clipPath id="clip-path-7"><path class="cls-1" d="M282.18 348h-1a160.56 160.56 0 00.07-20.67.21.21 0 01.22-.23.2.2 0 01.2.15c.19.69.35 1.5.51 2.38V348m-28.66 0h-.66v-19c.16-.65.34-1.32.54-2a.19.19 0 01.2-.15.21.21 0 01.22.23c-.58 5-.54 13.22-.3 20.86"/></clipPath><linearGradient id="Безымянный_градиент_9" x1="300" x2="300" y2="438" gradientUnits="userSpaceOnUse"><stop offset="0" stop-color="#b5867c"/><stop offset="1" stop-color="#966f66"/></linearGradient><linearGradient id="Безымянный_градиент_29" x1="300" x2="300" y2="438" gradientUnits="userSpaceOnUse"><stop offset="0" stop-color="#4d4d4d"/><stop offset="1" stop-color="#b3b3b3"/></linearGradient><style>.cls-1,.cls-11{fill:none}.cls-5{fill:#545454}.cls-7{fill:url(#Безымянный_градиент_9)}.cls-11{stroke:#3d2f2f;stroke-miterlimit:10;stroke-width:.5px}.cls-13{fill:#fff}.cls-16{fill:#e8e8e8}.cls-17{fill:#b5b5b5}.cls-18{fill:#7c7c7c}.cls-19{fill:#8e8e8e}.cls-20{fill:#919191}.cls-21{fill:#707070}.cls-30{fill:#e7ab6e}.cls-31{fill:#df9058}.cls-32{fill:#61b22f}.cls-39{fill:#e0985d}.cls-40{fill:#662e1d}.cls-42{fill:#4b2c1b}.cls-46{fill:#fbfdf9}.cls-47{fill:#423233}.cls-48{fill:#ebe6e6}</style></defs><g id="Раздвижные_сбоку" data-name="Раздвижные сбоку"><g id="Слой_1_копия7_" data-name="Слой 1 (копия7)"><path class="cls-5" d="M297 111h8v4h-8z"/><g id="Фон"><path fill="#a1796d" d="M0 0h600v438H0z"/><path class="cls-7" d="M0 0h600v438H0z"/><path class="cls-7" d="M0 0h600v438H0z"/><path fill="url(#Безымянный_градиент_29)" d="M0 0h600v438H0z"/><path fill="#c9c9c9" d="M1 0h600v438H1z"/><g opacity=".25"><path class="cls-11" d="M9.92 0h38.09v13.44H9.92z"/><path class="cls-11" d="M48.01 0H86.1v13.44H48.01zM86.1 0h38.09v13.44H86.1zM30.09 13.44h38.09v13.44H30.09z"/><path class="cls-11" d="M-8 13.44h38.09v13.44H-8zm76.18 0h38.09v13.44H68.18zM124.19 0h38.09v13.44h-38.09zm38.09 0h38.09v13.44h-38.09zm38.09 0h38.09v13.44h-38.09zm-56.01 13.44h38.09v13.44h-38.09z"/><path class="cls-11" d="M106.27 13.44h38.09v13.44h-38.09zm76.18 0h38.09v13.44h-38.09zM238.46 0h38.09v13.44h-38.09z"/><path class="cls-11" d="M276.55 0h38.09v13.44h-38.09zm38.09 0h38.09v13.44h-38.09zm-56.01 13.44h38.09v13.44h-38.09zm-38.09 0h38.09v13.44h-38.09zm76.18 0h38.09v13.44h-38.09zM352.73 0h38.09v13.44h-38.09z"/><path class="cls-11" d="M390.82 0h38.09v13.44h-38.09zm38.09 0H467v13.44h-38.09zM372.9 13.44h38.09v13.44H372.9zm-38.09 0h38.09v13.44h-38.09zm76.18 0h38.09v13.44h-38.09z"/><path class="cls-11" d="M466.73 0h38.09v13.44h-38.09z"/><path class="cls-11" d="M504.82 0h38.09v13.44h-38.09zm38.09 0H581v13.44h-38.09zM486.9 13.44h38.09v13.44H486.9zm-38.09 0h38.09v13.44h-38.09zm76.18 0h38.09v13.44h-38.09z"/><path class="cls-11" d="M601 2v11.44h-20.27V0H600v2h1zm-38.19 11.44h38.09v13.44h-38.09zM9.92 27h38.09v13.44H9.92z"/><path class="cls-11" d="M48.01 27H86.1v13.44H48.01zm38.09 0h38.09v13.44H86.1zM30.09 40.44h38.09v13.44H30.09z"/><path class="cls-11" d="M-8 40.44h38.09v13.44H-8zm76.18 0h38.09v13.44H68.18zM124.19 27h38.09v13.44h-38.09zm38.09 0h38.09v13.44h-38.09zm38.09 0h38.09v13.44h-38.09zm-56.01 13.44h38.09v13.44h-38.09z"/><path class="cls-11" d="M106.27 40.44h38.09v13.44h-38.09zm76.18 0h38.09v13.44h-38.09zM238.46 27h38.09v13.44h-38.09z"/><path class="cls-11" d="M276.55 27h38.09v13.44h-38.09zm38.09 0h38.09v13.44h-38.09zm-56.01 13.44h38.09v13.44h-38.09zm-38.09 0h38.09v13.44h-38.09zm76.18 0h38.09v13.44h-38.09zM352.73 27h38.09v13.44h-38.09z"/><path class="cls-11" d="M390.82 27h38.09v13.44h-38.09zm38.09 0H467v13.44h-38.09zM372.9 40.44h38.09v13.44H372.9zm-38.09 0h38.09v13.44h-38.09zm76.18 0h38.09v13.44h-38.09z"/><path class="cls-11" d="M466.73 27h38.09v13.44h-38.09z"/><path class="cls-11" d="M504.82 27h38.09v13.44h-38.09zm38.09 0H581v13.44h-38.09zM486.9 40.44h38.09v13.44H486.9zm-38.09 0h38.09v13.44h-38.09zm76.18 0h38.09v13.44h-38.09z"/><path class="cls-11" d="M580.73 27H601v13.44h-20.27zm-17.92 13.44h38.09v13.44h-38.09zM9.92 54h38.09v13.44H9.92z"/><path class="cls-11" d="M48.01 54H86.1v13.44H48.01zm38.09 0h38.09v13.44H86.1zM30.09 67.44h38.09v13.44H30.09z"/><path class="cls-11" d="M-8 67.44h38.09v13.44H-8zm76.18 0h38.09v13.44H68.18zM124.19 54h38.09v13.44h-38.09zm38.09 0h38.09v13.44h-38.09zm38.09 0h38.09v13.44h-38.09zm-56.01 13.44h38.09v13.44h-38.09z"/><path class="cls-11" d="M106.27 67.44h38.09v13.44h-38.09zm76.18 0h38.09v13.44h-38.09zM238.46 54h38.09v13.44h-38.09z"/><path class="cls-11" d="M276.55 54h38.09v13.44h-38.09zm38.09 0h38.09v13.44h-38.09zm-56.01 13.44h38.09v13.44h-38.09zm-38.09 0h38.09v13.44h-38.09zm76.18 0h38.09v13.44h-38.09zM352.73 54h38.09v13.44h-38.09z"/><path class="cls-11" d="M390.82 54h38.09v13.44h-38.09zm38.09 0H467v13.44h-38.09zM372.9 67.44h38.09v13.44H372.9zm-38.09 0h38.09v13.44h-38.09zm76.18 0h38.09v13.44h-38.09z"/><path class="cls-11" d="M466.73 54h38.09v13.44h-38.09z"/><path class="cls-11" d="M504.82 54h38.09v13.44h-38.09zm38.09 0H581v13.44h-38.09zM486.9 67.44h38.09v13.44H486.9zm-38.09 0h38.09v13.44h-38.09zm76.18 0h38.09v13.44h-38.09z"/><path class="cls-11" d="M580.73 54H601v13.44h-20.27zm-17.92 13.44h38.09v13.44h-38.09zM9.92 81h38.09v13.44H9.92z"/><path class="cls-11" d="M48.01 81H86.1v13.44H48.01zm38.09 0h38.09v13.44H86.1zM30.09 94.44h38.09v13.44H30.09z"/><path class="cls-11" d="M-8 94.44h38.09v13.44H-8zm76.18 0h38.09v13.44H68.18zM124.19 81h38.09v13.44h-38.09zm38.09 0h38.09v13.44h-38.09zm38.09 0h38.09v13.44h-38.09zm-56.01 13.44h38.09v13.44h-38.09z"/><path class="cls-11" d="M106.27 94.44h38.09v13.44h-38.09zm76.18 0h38.09v13.44h-38.09zM238.46 81h38.09v13.44h-38.09z"/><path class="cls-11" d="M276.55 81h38.09v13.44h-38.09zm38.09 0h38.09v13.44h-38.09zm-56.01 13.44h38.09v13.44h-38.09zm-38.09 0h38.09v13.44h-38.09zm76.18 0h38.09v13.44h-38.09zM352.73 81h38.09v13.44h-38.09z"/><path class="cls-11" d="M390.82 81h38.09v13.44h-38.09zm38.09 0H467v13.44h-38.09zM372.9 94.44h38.09v13.44H372.9zm-38.09 0h38.09v13.44h-38.09zm76.18 0h38.09v13.44h-38.09z"/><path class="cls-11" d="M466.73 81h38.09v13.44h-38.09z"/><path class="cls-11" d="M504.82 81h38.09v13.44h-38.09zm38.09 0H581v13.44h-38.09zM486.9 94.44h38.09v13.44H486.9zm-38.09 0h38.09v13.44h-38.09zm76.18 0h38.09v13.44h-38.09z"/><path class="cls-11" d="M580.73 81H601v13.44h-20.27zm-17.92 13.44h38.09v13.44h-38.09zM9.92 108h38.09v13.44H9.92z"/><path class="cls-11" d="M48.01 108H86.1v13.44H48.01zm38.09 0h38.09v13.44H86.1zm-56.01 13.44h38.09v13.44H30.09z"/><path class="cls-11" d="M-8 121.44h38.09v13.44H-8zm76.18 0h38.09v13.44H68.18zM124.19 108h38.09v13.44h-38.09zm38.09 0h38.09v13.44h-38.09zm38.09 0h38.09v13.44h-38.09zm-56.01 13.44h38.09v13.44h-38.09z"/><path class="cls-11" d="M106.27 121.44h38.09v13.44h-38.09zm76.18 0h38.09v13.44h-38.09zM238.46 108h38.09v13.44h-38.09z"/><path class="cls-11" d="M276.55 108h38.09v13.44h-38.09zm38.09 0h38.09v13.44h-38.09zm-56.01 13.44h38.09v13.44h-38.09zm-38.09 0h38.09v13.44h-38.09zm76.18 0h38.09v13.44h-38.09zM352.73 108h38.09v13.44h-38.09z"/><path class="cls-11" d="M390.82 108h38.09v13.44h-38.09zm38.09 0H467v13.44h-38.09zm-56.01 13.44h38.09v13.44H372.9zm-38.09 0h38.09v13.44h-38.09zm76.18 0h38.09v13.44h-38.09z"/><path class="cls-11" d="M466.73 108h38.09v13.44h-38.09z"/><path class="cls-11" d="M504.82 108h38.09v13.44h-38.09zm38.09 0H581v13.44h-38.09zm-56.01 13.44h38.09v13.44H486.9zm-38.09 0h38.09v13.44h-38.09zm76.18 0h38.09v13.44h-38.09z"/><path class="cls-11" d="M580.73 108H601v13.44h-20.27zm-17.92 13.44h38.09v13.44h-38.09zM9.92 135h38.09v13.44H9.92z"/><path class="cls-11" d="M48.01 135H86.1v13.44H48.01zm38.09 0h38.09v13.44H86.1zm-56.01 13.44h38.09v13.44H30.09z"/><path class="cls-11" d="M-8 148.44h38.09v13.44H-8zm76.18 0h38.09v13.44H68.18zM124.19 135h38.09v13.44h-38.09zm38.09 0h38.09v13.44h-38.09zm38.09 0h38.09v13.44h-38.09zm-56.01 13.44h38.09v13.44h-38.09z"/><path class="cls-11" d="M106.27 148.44h38.09v13.44h-38.09zm76.18 0h38.09v13.44h-38.09zM238.46 135h38.09v13.44h-38.09z"/><path class="cls-11" d="M276.55 135h38.09v13.44h-38.09zm38.09 0h38.09v13.44h-38.09zm-56.01 13.44h38.09v13.44h-38.09zm-38.09 0h38.09v13.44h-38.09zm76.18 0h38.09v13.44h-38.09zM352.73 135h38.09v13.44h-38.09z"/><path class="cls-11" d="M390.82 135h38.09v13.44h-38.09zm38.09 0H467v13.44h-38.09zm-56.01 13.44h38.09v13.44H372.9zm-38.09 0h38.09v13.44h-38.09zm76.18 0h38.09v13.44h-38.09z"/><path class="cls-11" d="M466.73 135h38.09v13.44h-38.09z"/><path class="cls-11" d="M504.82 135h38.09v13.44h-38.09zm38.09 0H581v13.44h-38.09zm-56.01 13.44h38.09v13.44H486.9zm-38.09 0h38.09v13.44h-38.09zm76.18 0h38.09v13.44h-38.09z"/><path class="cls-11" d="M601 135v11h-1v2.44h-19.27V135H601zm-38.19 13.44h38.09v13.45h-38.09zM9.92 162h38.09v13.44H9.92z"/><path class="cls-11" d="M48.01 162H86.1v13.44H48.01zm38.09 0h38.09v13.44H86.1zm-56.01 13.44h38.09v13.44H30.09z"/><path class="cls-11" d="M-8 175.44h38.09v13.44H-8zm76.18 0h38.09v13.44H68.18zM124.19 162h38.09v13.44h-38.09zm38.09 0h38.09v13.44h-38.09zm38.09 0h38.09v13.44h-38.09zm-56.01 13.44h38.09v13.44h-38.09z"/><path class="cls-11" d="M106.27 175.44h38.09v13.44h-38.09zm76.18 0h38.09v13.44h-38.09zM238.46 162h38.09v13.44h-38.09z"/><path class="cls-11" d="M276.55 162h38.09v13.44h-38.09zm38.09 0h38.09v13.44h-38.09zm-56.01 13.44h38.09v13.44h-38.09zm-38.09 0h38.09v13.44h-38.09zm76.18 0h38.09v13.44h-38.09zM352.73 162h38.09v13.44h-38.09z"/><path class="cls-11" d="M390.82 162h38.09v13.44h-38.09zm38.09 0H467v13.44h-38.09zm-56.01 13.44h38.09v13.44H372.9zm-38.09 0h38.09v13.44h-38.09zm76.18 0h38.09v13.44h-38.09z"/><path class="cls-11" d="M466.73 162h38.09v13.44h-38.09z"/><path class="cls-11" d="M504.82 162h38.09v13.44h-38.09zm38.09 0H581v13.44h-38.09zm-56.01 13.44h38.09v13.44H486.9zm-38.09 0h38.09v13.44h-38.09zm76.18 0h38.09v13.44h-38.09z"/><path class="cls-11" d="M580.73 162H600v13.44h-19.27zm-17.92 13.44h38.09v13.45h-38.09zM9.92 189h38.09v13.44H9.92z"/><path class="cls-11" d="M48.01 189H86.1v13.44H48.01zm38.09 0h38.09v13.44H86.1zm-56.01 13.44h38.09v13.44H30.09z"/><path class="cls-11" d="M-8 202.44h38.09v13.44H-8zm76.18 0h38.09v13.44H68.18zM124.19 189h38.09v13.44h-38.09zm38.09 0h38.09v13.44h-38.09zm38.09 0h38.09v13.44h-38.09zm-56.01 13.44h38.09v13.44h-38.09z"/><path class="cls-11" d="M106.27 202.44h38.09v13.44h-38.09zm76.18 0h38.09v13.44h-38.09zM238.46 189h38.09v13.44h-38.09z"/><path class="cls-11" d="M276.55 189h38.09v13.44h-38.09zm38.09 0h38.09v13.44h-38.09zm-56.01 13.44h38.09v13.44h-38.09zm-38.09 0h38.09v13.44h-38.09zm76.18 0h38.09v13.44h-38.09zM352.73 189h38.09v13.44h-38.09z"/><path class="cls-11" d="M390.82 189h38.09v13.44h-38.09zm38.09 0H467v13.44h-38.09zm-56.01 13.44h38.09v13.44H372.9zm-38.09 0h38.09v13.44h-38.09zm76.18 0h38.09v13.44h-38.09z"/><path class="cls-11" d="M466.73 189h38.09v13.44h-38.09z"/><path class="cls-11" d="M504.82 189h38.09v13.44h-38.09zm38.09 0H581v13.44h-38.09zm-56.01 13.44h38.09v13.44H486.9zm-38.09 0h38.09v13.44h-38.09zm76.18 0h38.09v13.44h-38.09z"/><path class="cls-11" d="M580.73 189H600v13.44h-19.27zm-17.92 13.44h38.09v13.45h-38.09zM9.92 216h38.09v13.44H9.92z"/><path class="cls-11" d="M48.01 216H86.1v13.44H48.01zm38.09 0h38.09v13.44H86.1zm-56.01 13.44h38.09v13.44H30.09z"/><path class="cls-11" d="M-8 229.44h38.09v13.44H-8zm76.18 0h38.09v13.44H68.18zM124.19 216h38.09v13.44h-38.09zm38.09 0h38.09v13.44h-38.09zm38.09 0h38.09v13.44h-38.09zm-56.01 13.44h38.09v13.44h-38.09z"/><path class="cls-11" d="M106.27 229.44h38.09v13.44h-38.09zm76.18 0h38.09v13.44h-38.09zM238.46 216h38.09v13.44h-38.09z"/><path class="cls-11" d="M276.55 216h38.09v13.44h-38.09zm38.09 0h38.09v13.44h-38.09zm-56.01 13.44h38.09v13.44h-38.09zm-38.09 0h38.09v13.44h-38.09zm76.18 0h38.09v13.44h-38.09zM352.73 216h38.09v13.44h-38.09z"/><path class="cls-11" d="M390.82 216h38.09v13.44h-38.09zm38.09 0H467v13.44h-38.09zm-56.01 13.44h38.09v13.44H372.9zm-38.09 0h38.09v13.44h-38.09zm76.18 0h38.09v13.44h-38.09z"/><path class="cls-11" d="M466.73 216h38.09v13.44h-38.09z"/><path class="cls-11" d="M504.82 216h38.09v13.44h-38.09zm38.09 0H581v13.44h-38.09zm-56.01 13.44h38.09v13.44H486.9zm-38.09 0h38.09v13.44h-38.09zm76.18 0h38.09v13.44h-38.09z"/><path class="cls-11" d="M580.73 216H600v13.44h-19.27zm-17.92 13.44h38.09v13.45h-38.09zM9.92 243h38.09v13.44H9.92z"/><path class="cls-11" d="M48.01 243H86.1v13.44H48.01zm38.09 0h38.09v13.44H86.1zm-56.01 13.44h38.09v13.44H30.09z"/><path class="cls-11" d="M-8 256.44h38.09v13.44H-8zm76.18 0h38.09v13.44H68.18zM124.19 243h38.09v13.44h-38.09zm38.09 0h38.09v13.44h-38.09zm38.09 0h38.09v13.44h-38.09zm-56.01 13.44h38.09v13.44h-38.09z"/><path class="cls-11" d="M106.27 256.44h38.09v13.44h-38.09zm76.18 0h38.09v13.44h-38.09zM238.46 243h38.09v13.44h-38.09z"/><path class="cls-11" d="M276.55 243h38.09v13.44h-38.09zm38.09 0h38.09v13.44h-38.09zm-56.01 13.44h38.09v13.44h-38.09zm-38.09 0h38.09v13.44h-38.09zm76.18 0h38.09v13.44h-38.09zM352.73 243h38.09v13.44h-38.09z"/><path class="cls-11" d="M390.82 243h38.09v13.44h-38.09zm38.09 0H467v13.44h-38.09zm-56.01 13.44h38.09v13.44H372.9zm-38.09 0h38.09v13.44h-38.09zm76.18 0h38.09v13.44h-38.09z"/><path class="cls-11" d="M466.73 243h38.09v13.44h-38.09z"/><path class="cls-11" d="M504.82 243h38.09v13.44h-38.09zm38.09 0H581v13.44h-38.09zm-56.01 13.44h38.09v13.44H486.9zm-38.09 0h38.09v13.44h-38.09zm76.18 0h38.09v13.44h-38.09z"/><path class="cls-11" d="M580.73 243H600v13.44h-19.27zm-17.92 13.44h38.09v13.45h-38.09zM9.92 270h38.09v13.44H9.92z"/><path class="cls-11" d="M48.01 270H86.1v13.44H48.01zm38.09 0h38.09v13.44H86.1zm-56.01 13.44h38.09v13.44H30.09z"/><path class="cls-11" d="M-8 283.44h38.09v13.44H-8zm76.18 0h38.09v13.44H68.18zM124.19 270h38.09v13.44h-38.09zm38.09 0h38.09v13.44h-38.09zm38.09 0h38.09v13.44h-38.09zm-56.01 13.44h38.09v13.44h-38.09z"/><path class="cls-11" d="M106.27 283.44h38.09v13.44h-38.09zm76.18 0h38.09v13.44h-38.09zM238.46 270h38.09v13.44h-38.09z"/><path class="cls-11" d="M276.55 270h38.09v13.44h-38.09zm38.09 0h38.09v13.44h-38.09zm-56.01 13.44h38.09v13.44h-38.09zm-38.09 0h38.09v13.44h-38.09zm76.18 0h38.09v13.44h-38.09zM352.73 270h38.09v13.44h-38.09z"/><path class="cls-11" d="M390.82 270h38.09v13.44h-38.09zm38.09 0H467v13.44h-38.09zm-56.01 13.44h38.09v13.44H372.9zm-38.09 0h38.09v13.44h-38.09zm76.18 0h38.09v13.44h-38.09z"/><path class="cls-11" d="M466.73 270h38.09v13.44h-38.09z"/><path class="cls-11" d="M504.82 270h38.09v13.44h-38.09zm38.09 0H581v13.44h-38.09zm-56.01 13.44h38.09v13.44H486.9zm-38.09 0h38.09v13.44h-38.09zm76.18 0h38.09v13.44h-38.09z"/><path class="cls-11" d="M580.73 270H600v13.44h-19.27zm-17.92 13.44h38.09v13.45h-38.09zM9.92 297h38.09v13.44H9.92z"/><path class="cls-11" d="M48.01 297H86.1v13.44H48.01zm38.09 0h38.09v13.44H86.1zm-56.01 13.44h38.09v13.44H30.09z"/><path class="cls-11" d="M-8 310.44h38.09v13.44H-8zm76.18 0h38.09v13.44H68.18zM124.19 297h38.09v13.44h-38.09zm38.09 0h38.09v13.44h-38.09zm38.09 0h38.09v13.44h-38.09zm-56.01 13.44h38.09v13.44h-38.09z"/><path class="cls-11" d="M106.27 310.44h38.09v13.44h-38.09zm76.18 0h38.09v13.44h-38.09zM238.46 297h38.09v13.44h-38.09z"/><path class="cls-11" d="M276.55 297h38.09v13.44h-38.09zm38.09 0h38.09v13.44h-38.09zm-56.01 13.44h38.09v13.44h-38.09zm-38.09 0h38.09v13.44h-38.09zm76.18 0h38.09v13.44h-38.09zM352.73 297h38.09v13.44h-38.09z"/><path class="cls-11" d="M390.82 297h38.09v13.44h-38.09zm38.09 0H467v13.44h-38.09zm-56.01 13.44h38.09v13.44H372.9zm-38.09 0h38.09v13.44h-38.09zm76.18 0h38.09v13.44h-38.09z"/><path class="cls-11" d="M466.73 297h38.09v13.44h-38.09z"/><path class="cls-11" d="M504.82 297h38.09v13.44h-38.09zm38.09 0H581v13.44h-38.09zm-56.01 13.44h38.09v13.44H486.9zm-38.09 0h38.09v13.44h-38.09zm76.18 0h38.09v13.44h-38.09z"/><path class="cls-11" d="M580.73 297H601v13.44h-20.27zm-17.92 13.44h38.09v13.44h-38.09zM9.92 324h38.09v13.44H9.92z"/><path class="cls-11" d="M48.01 324H86.1v13.44H48.01zm38.09 0h38.09v13.44H86.1zm-56.01 13.44h38.09v13.44H30.09z"/><path class="cls-11" d="M-8 337.44h38.09v13.44H-8zm76.18 0h38.09v13.44H68.18zM124.19 324h38.09v13.44h-38.09zm38.09 0h38.09v13.44h-38.09zm38.09 0h38.09v13.44h-38.09zm-56.01 13.44h38.09v13.44h-38.09z"/><path class="cls-11" d="M106.27 337.44h38.09v13.44h-38.09zm76.18 0h38.09v13.44h-38.09zM238.46 324h38.09v13.44h-38.09z"/><path class="cls-11" d="M276.55 324h38.09v13.44h-38.09zm38.09 0h38.09v13.44h-38.09zm-56.01 13.44h38.09v13.44h-38.09zm-38.09 0h38.09v13.44h-38.09zm76.18 0h38.09v13.44h-38.09zM352.73 324h38.09v13.44h-38.09z"/><path class="cls-11" d="M390.82 324h38.09v13.44h-38.09zm38.09 0H467v13.44h-38.09zm-56.01 13.44h38.09v13.44H372.9zm-38.09 0h38.09v13.44h-38.09zm76.18 0h38.09v13.44h-38.09z"/><path class="cls-11" d="M466.73 324h38.09v13.44h-38.09z"/><path class="cls-11" d="M504.82 324h38.09v13.44h-38.09zm38.09 0H581v13.44h-38.09zm-56.01 13.44h38.09v13.44H486.9zm-38.09 0h38.09v13.44h-38.09zm76.18 0h38.09v13.44h-38.09z"/><path class="cls-11" d="M580.73 324H601v13.44h-20.27zm-17.92 13.44h38.09v13.44h-38.09zM9.92 351h38.09v13.44H9.92z"/><path class="cls-11" d="M48.01 351H86.1v13.44H48.01zm38.09 0h38.09v13.44H86.1zm-56.01 13.44h38.09v13.44H30.09z"/><path class="cls-11" d="M-8 364.44h38.09v13.44H-8zm76.18 0h38.09v13.44H68.18zM124.19 351h38.09v13.44h-38.09zm38.09 0h38.09v13.44h-38.09zm38.09 0h38.09v13.44h-38.09zm-56.01 13.44h38.09v13.44h-38.09z"/><path class="cls-11" d="M106.27 364.44h38.09v13.44h-38.09zm76.18 0h38.09v13.44h-38.09zM238.46 351h38.09v13.44h-38.09z"/><path class="cls-11" d="M276.55 351h38.09v13.44h-38.09zm38.09 0h38.09v13.44h-38.09zm-56.01 13.44h38.09v13.44h-38.09zm-38.09 0h38.09v13.44h-38.09zm76.18 0h38.09v13.44h-38.09zM352.73 351h38.09v13.44h-38.09z"/><path class="cls-11" d="M390.82 351h38.09v13.44h-38.09zm38.09 0H467v13.44h-38.09zm-56.01 13.44h38.09v13.44H372.9zm-38.09 0h38.09v13.44h-38.09zm76.18 0h38.09v13.44h-38.09z"/><path class="cls-11" d="M466.73 351h38.09v13.44h-38.09z"/><path class="cls-11" d="M504.82 351h38.09v13.44h-38.09zm38.09 0H581v13.44h-38.09zm-56.01 13.44h38.09v13.44H486.9zm-38.09 0h38.09v13.44h-38.09zm76.18 0h38.09v13.44h-38.09z"/><path class="cls-11" d="M580.73 351H601v13.44h-20.27zm-17.92 13.44h38.09v13.44h-38.09zM9.92 378h38.09v13.44H9.92z"/><path class="cls-11" d="M48.01 378H86.1v13.44H48.01zm38.09 0h38.09v13.44H86.1zm-56.01 13.44h38.09v13.44H30.09z"/><path class="cls-11" d="M-8 391.44h38.09v13.44H-8zm76.18 0h38.09v13.44H68.18zM124.19 378h38.09v13.44h-38.09zm38.09 0h38.09v13.44h-38.09zm38.09 0h38.09v13.44h-38.09zm-56.01 13.44h38.09v13.44h-38.09z"/><path class="cls-11" d="M106.27 391.44h38.09v13.44h-38.09zm76.18 0h38.09v13.44h-38.09zM238.46 378h38.09v13.44h-38.09z"/><path class="cls-11" d="M276.55 378h38.09v13.44h-38.09zm38.09 0h38.09v13.44h-38.09zm-56.01 13.44h38.09v13.44h-38.09zm-38.09 0h38.09v13.44h-38.09zm76.18 0h38.09v13.44h-38.09zM352.73 378h38.09v13.44h-38.09z"/><path class="cls-11" d="M390.82 378h38.09v13.44h-38.09zm38.09 0H467v13.44h-38.09zm-56.01 13.44h38.09v13.44H372.9zm-38.09 0h38.09v13.44h-38.09zm76.18 0h38.09v13.44h-38.09z"/><path class="cls-11" d="M466.73 378h38.09v13.44h-38.09z"/><path class="cls-11" d="M504.82 378h38.09v13.44h-38.09zm38.09 0H581v13.44h-38.09zm-56.01 13.44h38.09v13.44H486.9zm-38.09 0h38.09v13.44h-38.09zm76.18 0h38.09v13.44h-38.09z"/><path class="cls-11" d="M580.73 378H601v13.44h-20.27zm-17.92 13.44h38.09v13.44h-38.09zM9.92 405h38.09v13.44H9.92z"/><path class="cls-11" d="M48.01 405H86.1v13.44H48.01zm38.09 0h38.09v13.44H86.1zm-56.01 13.44h38.09v13.44H30.09z"/><path class="cls-11" d="M-8 418.44h38.09v13.44H-8zm76.18 0h38.09v13.44H68.18zM124.19 405h38.09v13.44h-38.09zm38.09 0h38.09v13.44h-38.09zm38.09 0h38.09v13.44h-38.09zm-56.01 13.44h38.09v13.44h-38.09z"/><path class="cls-11" d="M106.27 418.44h38.09v13.44h-38.09zm76.18 0h38.09v13.44h-38.09zM238.46 405h38.09v13.44h-38.09z"/><path class="cls-11" d="M276.55 405h38.09v13.44h-38.09zm38.09 0h38.09v13.44h-38.09zm-56.01 13.44h38.09v13.44h-38.09zm-38.09 0h38.09v13.44h-38.09zm76.18 0h38.09v13.44h-38.09zM352.73 405h38.09v13.44h-38.09z"/><path class="cls-11" d="M390.82 405h38.09v13.44h-38.09zm38.09 0H467v13.44h-38.09zm-56.01 13.44h38.09v13.44H372.9zm-38.09 0h38.09v13.44h-38.09zm76.18 0h38.09v13.44h-38.09z"/><path class="cls-11" d="M466.73 405h38.09v13.44h-38.09z"/><path class="cls-11" d="M504.82 405h38.09v13.44h-38.09zm38.09 0H581v13.44h-38.09zm-56.01 13.44h38.09v13.44H486.9zm-38.09 0h38.09v13.44h-38.09zm76.18 0h38.09v13.44h-38.09z"/><path class="cls-11" d="M580.73 405H601v13.44h-20.27zm-17.92 13.44h38.09v13.44h-38.09zM9.92 432h38.09v13.44H9.92z"/><path class="cls-11" d="M48.01 432H86.1v13.44H48.01zm38.09 0h38.09v13.44H86.1zm-56.01 13.44h38.09v13.44H30.09z"/><path class="cls-11" d="M-8 445.44h38.09v13.44H-8zm76.18 0h38.09v13.44H68.18zM124.19 432h38.09v13.44h-38.09zm38.09 0h38.09v13.44h-38.09zm38.09 0h38.09v13.44h-38.09zm-56.01 13.44h38.09v13.44h-38.09z"/><path class="cls-11" d="M106.27 445.44h38.09v13.44h-38.09zm76.18 0h38.09v13.44h-38.09zM238.46 432h38.09v13.44h-38.09z"/><path class="cls-11" d="M276.55 432h38.09v13.44h-38.09zm38.09 0h38.09v13.44h-38.09zm-56.01 13.44h38.09v13.44h-38.09zm-38.09 0h38.09v13.44h-38.09zm76.18 0h38.09v13.44h-38.09zM352.73 432h38.09v13.44h-38.09z"/><path class="cls-11" d="M390.82 432h38.09v13.44h-38.09zm38.09 0H467v13.44h-38.09zm-56.01 13.44h38.09v13.44H372.9zm-38.09 0h38.09v13.44h-38.09zm76.18 0h38.09v13.44h-38.09z"/><path class="cls-11" d="M466.73 432h38.09v13.44h-38.09z"/><path class="cls-11" d="M504.82 432h38.09v13.44h-38.09zm38.09 0H581v13.44h-38.09zm-56.01 13.44h38.09v13.44H486.9zm-38.09 0h38.09v13.44h-38.09zm76.18 0h38.09v13.44h-38.09z"/><path class="cls-11" d="M580.73 432H600v13.44h-19.27zm-17.92 13.44h38.09v13.45h-38.09zM9.92 459h38.09v13.44H9.92z"/><path class="cls-11" d="M48.01 459H86.1v13.44H48.01zm38.09 0h38.09v13.44H86.1zm-56.01 13.44h38.09v13.44H30.09z"/><path class="cls-11" d="M-8 472.44h38.09v13.44H-8zm76.18 0h38.09v13.44H68.18zM124.19 459h38.09v13.44h-38.09zm38.09 0h38.09v13.44h-38.09zm38.09 0h38.09v13.44h-38.09zm-56.01 13.44h38.09v13.44h-38.09z"/><path class="cls-11" d="M106.27 472.44h38.09v13.44h-38.09zm76.18 0h38.09v13.44h-38.09zM238.46 459h38.09v13.44h-38.09z"/><path class="cls-11" d="M276.55 459h38.09v13.44h-38.09zm38.09 0h38.09v13.44h-38.09zm-56.01 13.44h38.09v13.44h-38.09zm-38.09 0h38.09v13.44h-38.09zm76.18 0h38.09v13.44h-38.09zM352.73 459h38.09v13.44h-38.09z"/><path class="cls-11" d="M390.82 459h38.09v13.44h-38.09zm38.09 0H467v13.44h-38.09zm-56.01 13.44h38.09v13.44H372.9zm-38.09 0h38.09v13.44h-38.09zm76.18 0h38.09v13.44h-38.09z"/><path class="cls-11" d="M466.73 459h38.09v13.44h-38.09z"/><path class="cls-11" d="M504.82 459h38.09v13.44h-38.09zm38.09 0H581v13.44h-38.09zm-56.01 13.44h38.09v13.44H486.9zm-38.09 0h38.09v13.44h-38.09zm76.18 0h38.09v13.44h-38.09z"/><path class="cls-11" d="M580.73 459H600v13.44h-19.27zm-17.92 13.44h38.09v13.45h-38.09zM9.92 486h38.09v13.44H9.92z"/><path class="cls-11" d="M48.01 486H86.1v13.44H48.01zm38.09 0h38.09v13.44H86.1zm38.09 0h38.09v13.44h-38.09zm38.09 0h38.09v13.44h-38.09zm38.09 0h38.09v13.44h-38.09zm38.09 0h38.09v13.44h-38.09z"/><path class="cls-11" d="M276.55 486h38.09v13.44h-38.09zm38.09 0h38.09v4h-38.09zm38.09 0h38.09v4h-38.09z"/><path class="cls-11" d="M390.82 486h38.09v4h-38.09zm38.09 0H467v4h-38.09z"/><path class="cls-11" d="M466.73 486h38.09v4h-38.09z"/><path class="cls-11" d="M504.82 486h38.09v4h-38.09zm38.09 0H581v13.44h-38.09z"/><path class="cls-11" d="M600 486v4h-19v9.44h-.27V486H600z"/></g><path fill="#352a23" d="M0 432h600v6H0z"/></g><g id="Дверь"><path class="cls-13" d="M129 115h347v313H129z"/><path class="cls-13" d="M466 125v293H139V125h327m20-20H119v333h367V105z"/><path d="M475 116v311H130V116h345m11-11H119v333h367V105z" fill="#53463e"/><path d="M486 105v333H119V105h367m1-1H118v335h369V104z" fill="#1e0e05"/><path class="cls-13" d="M130 415h345v23H130z"/><path class="cls-16" transform="rotate(90 207.5 276)" d="M47.5 273.5h320v5h-320z"/><path class="cls-17" transform="rotate(90 202.5 276)" d="M42.5 273.5h320v5h-320z"/><path class="cls-17" transform="rotate(90 192.5 276)" d="M32.5 273.5h320v5h-320z"/><path class="cls-16" transform="rotate(90 197.5 276)" d="M37.5 273.5h320v5h-320z"/><path class="cls-16" transform="rotate(90 187.5 276)" d="M27.5 273.5h320v5h-320z"/><path class="cls-17" transform="rotate(90 182.5 276)" d="M22.5 273.5h320v5h-320z"/><path class="cls-17" transform="rotate(90 172.5 276)" d="M12.5 273.5h320v5h-320z"/><path class="cls-16" transform="rotate(90 177.5 276)" d="M17.5 273.5h320v5h-320z"/><path class="cls-16" transform="rotate(90 87.5 276)" d="M-72.5 273.5h320v5h-320z"/><path class="cls-17" transform="rotate(90 82.5 276)" d="M-77.5 273.5h320v5h-320z"/><path class="cls-17" transform="rotate(90 72.5 276)" d="M-87.5 273.5h320v5h-320z"/><path class="cls-16" transform="rotate(90 77.5 276)" d="M-82.5 273.5h320v5h-320z"/><path class="cls-16" transform="rotate(90 67.5 276)" d="M-92.5 273.5h320v5h-320z"/><path class="cls-17" transform="rotate(90 62.5 276)" d="M-97.5 273.5h320v5h-320z"/><path class="cls-17" transform="rotate(90 52.5 276)" d="M-107.5 273.5h320v5h-320z"/><path class="cls-16" transform="rotate(90 57.5 276)" d="M-102.5 273.5h320v5h-320z"/><path class="cls-16" transform="rotate(90 127.5 276)" d="M-32.5 273.5h320v5h-320z"/><path class="cls-17" transform="rotate(90 122.5 276)" d="M-37.5 273.5h320v5h-320z"/><path class="cls-17" transform="rotate(90 112.5 276)" d="M-47.5 273.5h320v5h-320z"/><path class="cls-16" transform="rotate(90 117.5 276)" d="M-42.5 273.5h320v5h-320z"/><path class="cls-16" transform="rotate(90 107.5 276)" d="M-52.5 273.5h320v5h-320z"/><path class="cls-17" transform="rotate(90 102.5 276)" d="M-57.5 273.5h320v5h-320z"/><path class="cls-17" transform="rotate(90 92.5 276)" d="M-67.5 273.5h320v5h-320z"/><path class="cls-16" transform="rotate(90 97.5 276)" d="M-62.5 273.5h320v5h-320z"/><path class="cls-16" transform="rotate(90 247.5 276)" d="M87.5 273.5h320v5h-320z"/><path class="cls-17" transform="rotate(90 242.5 276)" d="M82.5 273.5h320v5h-320z"/><path class="cls-17" transform="rotate(90 232.5 276)" d="M72.5 273.5h320v5h-320z"/><path class="cls-16" transform="rotate(90 237.5 276)" d="M77.5 273.5h320v5h-320z"/><path class="cls-16" transform="rotate(90 227.5 276)" d="M67.5 273.5h320v5h-320z"/><path class="cls-17" transform="rotate(90 222.5 276)" d="M62.5 273.5h320v5h-320z"/><path class="cls-17" transform="rotate(90 212.5 276)" d="M52.5 273.5h320v5h-320z"/><path class="cls-16" transform="rotate(90 217.5 276)" d="M57.5 273.5h320v5h-320z"/><path class="cls-16" transform="rotate(90 47.5 276)" d="M-112.5 273.5h320v5h-320z"/><path class="cls-17" transform="rotate(90 42.5 276)" d="M-117.5 273.5h320v5h-320z"/><path class="cls-17" transform="rotate(90 32.5 276)" d="M-127.5 273.5h320v5h-320z"/><path class="cls-16" transform="rotate(90 37.5 276)" d="M-122.5 273.5h320v5h-320z"/><path class="cls-16" transform="rotate(90 27.5 276)" d="M-132.5 273.5h320v5h-320z"/><path class="cls-17" transform="rotate(90 22.5 276)" d="M-137.5 273.5h320v5h-320z"/><path class="cls-17" transform="rotate(90 12.5 276)" d="M-147.5 273.5h320v5h-320z"/><path class="cls-16" transform="rotate(90 17.5 276)" d="M-142.5 273.5h320v5h-320z"/><path class="cls-16" transform="rotate(90 167.5 276)" d="M7.5 273.5h320v5H7.5z"/><path class="cls-17" transform="rotate(90 162.5 276)" d="M2.5 273.5h320v5H2.5z"/><path class="cls-17" transform="rotate(90 152.5 276)" d="M-7.5 273.5h320v5h-320z"/><path class="cls-16" transform="rotate(90 157.5 276)" d="M-2.5 273.5h320v5h-320z"/><path class="cls-16" transform="rotate(90 147.5 276)" d="M-12.5 273.5h320v5h-320z"/><path class="cls-17" transform="rotate(90 142.5 276)" d="M-17.5 273.5h320v5h-320z"/><path class="cls-17" transform="rotate(90 132.5 276)" d="M-27.5 273.5h320v5h-320z"/><path class="cls-16" transform="rotate(90 137.5 276)" d="M-22.5 273.5h320v5h-320z"/><path class="cls-5" transform="rotate(90 130 121)" d="M125 1h10v240h-10z"/><path class="cls-5" transform="rotate(90 130 431)" d="M125 311h10v240h-10z"/><path class="cls-5" d="M10 116h10v315H10zm230 0h10v315h-10z"/><circle class="cls-18" cx="467" cy="115" r="1"/><circle class="cls-18" cx="469" cy="115" r="1"/><circle class="cls-18" cx="471" cy="115" r="1"/><circle class="cls-18" cx="473" cy="115" r="1"/><circle class="cls-18" cx="455" cy="115" r="1"/><circle class="cls-18" cx="457" cy="115" r="1"/><circle class="cls-18" cx="459" cy="115" r="1"/><circle class="cls-18" cx="461" cy="115" r="1"/><circle class="cls-18" cx="463" cy="115" r="1"/><circle class="cls-18" cx="465" cy="115" r="1"/><circle class="cls-18" cx="443" cy="115" r="1"/><circle class="cls-18" cx="445" cy="115" r="1"/><circle class="cls-18" cx="447" cy="115" r="1"/><circle class="cls-18" cx="449" cy="115" r="1"/><circle class="cls-18" cx="451" cy="115" r="1"/><circle class="cls-18" cx="453" cy="115" r="1"/><circle class="cls-18" cx="431" cy="115" r="1"/><circle class="cls-18" cx="433" cy="115" r="1"/><circle class="cls-18" cx="435" cy="115" r="1"/><circle class="cls-18" cx="437" cy="115" r="1"/><circle class="cls-18" cx="439" cy="115" r="1"/><circle class="cls-18" cx="441" cy="115" r="1"/><circle class="cls-18" cx="419" cy="115" r="1"/><circle class="cls-18" cx="421" cy="115" r="1"/><circle class="cls-18" cx="423" cy="115" r="1"/><circle class="cls-18" cx="425" cy="115" r="1"/><circle class="cls-18" cx="427" cy="115" r="1"/><circle class="cls-18" cx="429" cy="115" r="1"/><circle class="cls-18" cx="407" cy="115" r="1"/><circle class="cls-18" cx="409" cy="115" r="1"/><circle class="cls-18" cx="411" cy="115" r="1"/><circle class="cls-18" cx="413" cy="115" r="1"/><circle class="cls-18" cx="415" cy="115" r="1"/><circle class="cls-18" cx="417" cy="115" r="1"/><circle class="cls-18" cx="395" cy="115" r="1"/><circle class="cls-18" cx="397" cy="115" r="1"/><circle class="cls-18" cx="399" cy="115" r="1"/><circle class="cls-18" cx="401" cy="115" r="1"/><circle class="cls-18" cx="403" cy="115" r="1"/><circle class="cls-18" cx="405" cy="115" r="1"/><circle class="cls-18" cx="383" cy="115" r="1"/><circle class="cls-18" cx="385" cy="115" r="1"/><circle class="cls-18" cx="387" cy="115" r="1"/><circle class="cls-18" cx="389" cy="115" r="1"/><circle class="cls-18" cx="391" cy="115" r="1"/><circle class="cls-18" cx="393" cy="115" r="1"/><circle class="cls-18" cx="371" cy="115" r="1"/><circle class="cls-18" cx="373" cy="115" r="1"/><circle class="cls-18" cx="375" cy="115" r="1"/><circle class="cls-18" cx="377" cy="115" r="1"/><circle class="cls-18" cx="379" cy="115" r="1"/><circle class="cls-18" cx="381" cy="115" r="1"/><circle class="cls-18" cx="359" cy="115" r="1"/><circle class="cls-18" cx="361" cy="115" r="1"/><circle class="cls-18" cx="363" cy="115" r="1"/><circle class="cls-18" cx="365" cy="115" r="1"/><circle class="cls-18" cx="367" cy="115" r="1"/><circle class="cls-18" cx="369" cy="115" r="1"/><circle class="cls-18" cx="347" cy="115" r="1"/><circle class="cls-18" cx="349" cy="115" r="1"/><circle class="cls-18" cx="351" cy="115" r="1"/><circle class="cls-18" cx="353" cy="115" r="1"/><circle class="cls-18" cx="355" cy="115" r="1"/><circle class="cls-18" cx="357" cy="115" r="1"/><circle class="cls-18" cx="335" cy="115" r="1"/><circle class="cls-18" cx="337" cy="115" r="1"/><circle class="cls-18" cx="339" cy="115" r="1"/><circle class="cls-18" cx="341" cy="115" r="1"/><circle class="cls-18" cx="343" cy="115" r="1"/><circle class="cls-18" cx="345" cy="115" r="1"/><circle class="cls-18" cx="323" cy="115" r="1"/><circle class="cls-18" cx="325" cy="115" r="1"/><circle class="cls-18" cx="327" cy="115" r="1"/><circle class="cls-18" cx="329" cy="115" r="1"/><circle class="cls-18" cx="331" cy="115" r="1"/><circle class="cls-18" cx="333" cy="115" r="1"/><circle class="cls-18" cx="311" cy="115" r="1"/><circle class="cls-18" cx="313" cy="115" r="1"/><circle class="cls-18" cx="315" cy="115" r="1"/><circle class="cls-18" cx="317" cy="115" r="1"/><circle class="cls-18" cx="319" cy="115" r="1"/><circle class="cls-18" cx="321" cy="115" r="1"/><circle class="cls-18" cx="299" cy="115" r="1"/><circle class="cls-18" cx="301" cy="115" r="1"/><circle class="cls-18" cx="303" cy="115" r="1"/><circle class="cls-18" cx="305" cy="115" r="1"/><circle class="cls-18" cx="307" cy="115" r="1"/><circle class="cls-18" cx="309" cy="115" r="1"/><circle class="cls-18" cx="287" cy="115" r="1"/><circle class="cls-18" cx="289" cy="115" r="1"/><circle class="cls-18" cx="291" cy="115" r="1"/><circle class="cls-18" cx="293" cy="115" r="1"/><circle class="cls-18" cx="295" cy="115" r="1"/><circle class="cls-18" cx="297" cy="115" r="1"/><circle class="cls-18" cx="275" cy="115" r="1"/><circle class="cls-18" cx="277" cy="115" r="1"/><circle class="cls-18" cx="279" cy="115" r="1"/><circle class="cls-18" cx="281" cy="115" r="1"/><circle class="cls-18" cx="283" cy="115" r="1"/><circle class="cls-18" cx="285" cy="115" r="1"/><circle class="cls-18" cx="263" cy="115" r="1"/><circle class="cls-18" cx="265" cy="115" r="1"/><circle class="cls-18" cx="267" cy="115" r="1"/><circle class="cls-18" cx="269" cy="115" r="1"/><circle class="cls-18" cx="271" cy="115" r="1"/><circle class="cls-18" cx="273" cy="115" r="1"/><circle class="cls-18" cx="251" cy="115" r="1"/><circle class="cls-18" cx="253" cy="115" r="1"/><circle class="cls-18" cx="255" cy="115" r="1"/><circle class="cls-18" cx="257" cy="115" r="1"/><circle class="cls-18" cx="259" cy="115" r="1"/><circle class="cls-18" cx="261" cy="115" r="1"/><circle class="cls-18" cx="239" cy="115" r="1"/><circle class="cls-18" cx="241" cy="115" r="1"/><circle class="cls-18" cx="243" cy="115" r="1"/><circle class="cls-18" cx="245" cy="115" r="1"/><circle class="cls-18" cx="247" cy="115" r="1"/><circle class="cls-18" cx="249" cy="115" r="1"/><circle class="cls-18" cx="227" cy="115" r="1"/><circle class="cls-18" cx="229" cy="115" r="1"/><circle class="cls-18" cx="231" cy="115" r="1"/><circle class="cls-18" cx="233" cy="115" r="1"/><circle class="cls-18" cx="235" cy="115" r="1"/><circle class="cls-18" cx="237" cy="115" r="1"/><circle class="cls-18" cx="215" cy="115" r="1"/><circle class="cls-18" cx="217" cy="115" r="1"/><circle class="cls-18" cx="219" cy="115" r="1"/><circle class="cls-18" cx="221" cy="115" r="1"/><circle class="cls-18" cx="223" cy="115" r="1"/><circle class="cls-18" cx="225" cy="115" r="1"/><circle class="cls-18" cx="203" cy="115" r="1"/><circle class="cls-18" cx="205" cy="115" r="1"/><circle class="cls-18" cx="207" cy="115" r="1"/><circle class="cls-18" cx="209" cy="115" r="1"/><circle class="cls-18" cx="211" cy="115" r="1"/><circle class="cls-18" cx="213" cy="115" r="1"/><circle class="cls-19" cx="191" cy="115" r="1"/><circle class="cls-19" cx="193" cy="115" r="1"/><circle class="cls-19" cx="195" cy="115" r="1"/><circle class="cls-19" cx="197" cy="115" r="1"/><circle class="cls-19" cx="199" cy="115" r="1"/><circle class="cls-19" cx="201" cy="115" r="1"/><circle class="cls-19" cx="179" cy="115" r="1"/><circle class="cls-19" cx="181" cy="115" r="1"/><circle class="cls-19" cx="183" cy="115" r="1"/><circle class="cls-19" cx="185" cy="115" r="1"/><circle class="cls-19" cx="187" cy="115" r="1"/><circle class="cls-19" cx="189" cy="115" r="1"/><circle class="cls-19" cx="167" cy="115" r="1"/><circle class="cls-19" cx="169" cy="115" r="1"/><circle class="cls-19" cx="171" cy="115" r="1"/><circle class="cls-19" cx="173" cy="115" r="1"/><circle class="cls-19" cx="175" cy="115" r="1"/><circle class="cls-19" cx="177" cy="115" r="1"/><circle class="cls-19" cx="155" cy="115" r="1"/><circle class="cls-19" cx="157" cy="115" r="1"/><circle class="cls-19" cx="159" cy="115" r="1"/><circle class="cls-19" cx="161" cy="115" r="1"/><circle class="cls-19" cx="163" cy="115" r="1"/><circle class="cls-19" cx="165" cy="115" r="1"/><circle class="cls-19" cx="143" cy="115" r="1"/><circle class="cls-19" cx="145" cy="115" r="1"/><circle class="cls-19" cx="147" cy="115" r="1"/><circle class="cls-19" cx="149" cy="115" r="1"/><circle class="cls-19" cx="151" cy="115" r="1"/><circle class="cls-19" cx="153" cy="115" r="1"/><circle class="cls-19" cx="131" cy="115" r="1"/><circle class="cls-19" cx="133" cy="115" r="1"/><circle class="cls-19" cx="135" cy="115" r="1"/><circle class="cls-19" cx="137" cy="115" r="1"/><circle class="cls-19" cx="139" cy="115" r="1"/><circle class="cls-19" cx="141" cy="115" r="1"/><circle class="cls-19" cx="119" cy="115" r="1"/><circle class="cls-19" cx="121" cy="115" r="1"/><circle class="cls-19" cx="123" cy="115" r="1"/><circle class="cls-19" cx="125" cy="115" r="1"/><circle class="cls-19" cx="127" cy="115" r="1"/><circle class="cls-19" cx="129" cy="115" r="1"/><circle class="cls-19" cx="107" cy="115" r="1"/><circle class="cls-19" cx="109" cy="115" r="1"/><circle class="cls-19" cx="111" cy="115" r="1"/><circle class="cls-19" cx="113" cy="115" r="1"/><circle class="cls-19" cx="115" cy="115" r="1"/><circle class="cls-19" cx="117" cy="115" r="1"/><circle class="cls-19" cx="95" cy="115" r="1"/><circle class="cls-19" cx="97" cy="115" r="1"/><circle class="cls-19" cx="99" cy="115" r="1"/><circle class="cls-19" cx="101" cy="115" r="1"/><circle class="cls-19" cx="103" cy="115" r="1"/><circle class="cls-19" cx="105" cy="115" r="1"/><circle class="cls-19" cx="83" cy="115" r="1"/><circle class="cls-19" cx="85" cy="115" r="1"/><circle class="cls-19" cx="87" cy="115" r="1"/><circle class="cls-19" cx="89" cy="115" r="1"/><circle class="cls-19" cx="91" cy="115" r="1"/><circle class="cls-19" cx="93" cy="115" r="1"/><circle class="cls-19" cx="71" cy="115" r="1"/><circle class="cls-19" cx="73" cy="115" r="1"/><circle class="cls-19" cx="75" cy="115" r="1"/><circle class="cls-19" cx="77" cy="115" r="1"/><circle class="cls-19" cx="79" cy="115" r="1"/><circle class="cls-19" cx="81" cy="115" r="1"/><circle class="cls-19" cx="59" cy="115" r="1"/><circle class="cls-19" cx="61" cy="115" r="1"/><circle class="cls-19" cx="63" cy="115" r="1"/><circle class="cls-19" cx="65" cy="115" r="1"/><circle class="cls-19" cx="67" cy="115" r="1"/><circle class="cls-19" cx="69" cy="115" r="1"/><circle class="cls-19" cx="47" cy="115" r="1"/><circle class="cls-19" cx="49" cy="115" r="1"/><circle class="cls-19" cx="51" cy="115" r="1"/><circle class="cls-19" cx="53" cy="115" r="1"/><circle class="cls-19" cx="55" cy="115" r="1"/><circle class="cls-19" cx="57" cy="115" r="1"/><circle class="cls-19" cx="35" cy="115" r="1"/><circle class="cls-19" cx="37" cy="115" r="1"/><circle class="cls-19" cx="39" cy="115" r="1"/><circle class="cls-19" cx="41" cy="115" r="1"/><circle class="cls-19" cx="43" cy="115" r="1"/><circle class="cls-19" cx="45" cy="115" r="1"/><circle class="cls-19" cx="23" cy="115" r="1"/><circle class="cls-19" cx="25" cy="115" r="1"/><circle class="cls-19" cx="27" cy="115" r="1"/><circle class="cls-19" cx="29" cy="115" r="1"/><circle class="cls-19" cx="31" cy="115" r="1"/><circle class="cls-19" cx="33" cy="115" r="1"/><circle class="cls-19" cx="11" cy="115" r="1"/><circle class="cls-19" cx="13" cy="115" r="1"/><circle class="cls-19" cx="15" cy="115" r="1"/><circle class="cls-19" cx="17" cy="115" r="1"/><circle class="cls-19" cx="19" cy="115" r="1"/><circle class="cls-19" cx="21" cy="115" r="1"/><path class="cls-19" d="M10 112h465v3H10z"/><circle class="cls-20" cx="246" cy="434" r="4"/><circle class="cls-21" cx="246" cy="434" r="1"/><circle class="cls-20" cx="14" cy="434" r="4"/><circle class="cls-21" cx="14" cy="434" r="1"/></g><path fill="#a3b4be" d="M0 438h600v52H0z"/><path fill="#dce5ea" d="M503 490H223l2.07-4 .06-.11 6.97-13.45 6.97-13.44.06-.11 1.15-2.23 5.81-11.22 3.86-7.44h226.1l3.86 7.44 6.96 13.45.06.11 6.97 13.44 6.97 13.45.06.11 2.07 4z"/></g><path d="M290.9 458.73l-24.25 42.62-5.3-2.41 9.38-44.92 20.17 4.71zm-45.23-1.91l-11.15 39.34 9.35 1.48L264 458l-18.33-1.18z" fill="#626c70"/><path d="M250.21 451v.42c-6.57 3-7 4-6.29 6.87l16.38-.13L254 451zm34.69 0v.42c6.57 3 7 4 6.29 6.87l-16.38-.13 6.29-7.16z" fill="#463016"/><path d="M285.49 450.72s-8.49 7.66-11 7.57a26.17 26.17 0 00-3.26 0l-2-3.39s3.91-39.86 2-64.51a67.19 67.19 0 00-2-12.66l-3.57-.09s-1.29 2.21-2 12.39c-.7 10.64-.74 30 2.06 64.61a22.46 22.46 0 01-1.89 3.63l-4.2-.15s-8.7-7.4-10.27-7.4l1.66-2.44 1.65-.17s4.17-20.27-1-71.08c.52-1.65.78-2.35.78-2.35l-.12-4.85v-2.21s18.08 1.57 27.52 0a20.35 20.35 0 002.58-.58v7.62l.79 2.29s-5.49 43.07-.87 71a3.57 3.57 0 001.56.26l1.53 2.52z" fill="#23282e"/><path d="M271.51 379.57l3.32.85-3.57.53v9.44a67.19 67.19 0 00-2-12.66l-3.57-.09s-1.29 2.21-2 12.39c0-.11-.73-8.21-.9-8.21s-4.26-1-4.26-1l4.78-.92s-3.91-1-4.78-2.71c4.09.54 3.48.07 5.39 0l-1.06-2.54a11 11 0 004.26 1.82c2 .21 3.79-2.4 3.85-2.48 0 .11-1.84 5.11 5 3.74a31.69 31.69 0 01-4.53 1.84z" fill="#1d1f25"/><path d="M282.48 367.34v1.77a231.54 231.54 0 01-30.05.72v-2.21s18.08 1.57 27.52 0q1.32-.11 2.58-.27z" fill="#1d2125"/><path d="M267 368.3c0 .68.06 1.37.07 2.05v4.05c0 .68 0 1.36-.06 2l-.56-.28c.29-.25.59-.53.88-.81l.84-.86a21 21 0 001.54-1.85c.23-.32.46-.66.66-1 .11-.17.2-.34.3-.52s.19-.35.27-.54a6.77 6.77 0 00.63-2.32 5.14 5.14 0 010 1.24c0 .1 0 .21-.05.31l-.06.31c0 .1-.06.2-.08.3v.3c-.14.39-.3.78-.48 1.16-.09.18-.2.36-.3.55s-.21.36-.32.53a16.27 16.27 0 01-1.51 2c-.28.31-.56.61-.86.9s-.6.57-.93.84l-.6.51v-.79q0-1 .12-2t.15-2q0-.51.09-1l.09-1c.08-.68.15-1.35.25-2zm15.48 6.35a6.7 6.7 0 01-1.17-.22 9.56 9.56 0 01-1.13-.41 7.23 7.23 0 01-2-1.32 5.46 5.46 0 01-.8-.93 4.47 4.47 0 01-.57-1.08 4 4 0 01-.18-.59l-.06-.3v-1.5.59a2.74 2.74 0 01.05.28l.08.29v.27c0 .09.05.18.09.27l.1.27c0 .09.09.17.12.25s.09.18.14.26.09.16.14.24l.15.24a1.84 1.84 0 00.17.22l.08.12.09.1c.07.08.12.15.19.22l.19.2.21.2a10.41 10.41 0 001.85 1.34c.34.19.69.36 1 .53s.71.32 1.08.46zm-29.86 0c.37-.14.73-.29 1.08-.46s.7-.34 1-.53a10.49 10.49 0 001.86-1.34l.2-.2.2-.2a1.92 1.92 0 00.18-.22l.09-.1.09-.12c0-.07.12-.14.17-.22l.15-.24c.05-.08.1-.16.14-.24a2.1 2.1 0 00.13-.26 1.92 1.92 0 00.12-.25l.11-.27.09-.27.05-.14v-.13c0-.1.05-.19.07-.29l.06-.28v-.59 1.5l-.06.3a4 4 0 01-.18.59 4.47 4.47 0 01-.57 1.08 5.46 5.46 0 01-.8.93 7.23 7.23 0 01-2 1.32 9.56 9.56 0 01-1.13.41 6.88 6.88 0 01-1.17.22z" fill="#3b424a"/><path class="cls-30" d="M271.13 319.05l-8.87-.79-3.26-1.44v-2.12a1.11 1.11 0 00.3-.06c.53-.16 1.67-.8 2.61-3.3a18.21 18.21 0 00.6-2 32.09 32.09 0 00.67-4.43c0-.35.06-.71.08-1.09h.06c5.62-1.53 8.49 0 8.49 0a17.4 17.4 0 00.34 5.54 12.52 12.52 0 00.53 1.64 7.1 7.1 0 003.18 3.7c5.06 2.69-4.77 4.35-4.77 4.35"/><path class="cls-31" d="M272.19 309.36c-4 2.86-7.36 1.7-9.64 0a32.09 32.09 0 00.67-4.43c0-.35.1-.72.14-1.11 5.62-1.53 8.49 0 8.49 0a17.4 17.4 0 00.34 5.54z"/><path class="cls-32" d="M292.27 335.66c0 .07-.06.14-.18.19-1.15.55-7.36.47-9.11.43h-.24a.21.21 0 00-.22.21l-.25 29.22a.22.22 0 000 .08 2.15 2.15 0 01.11 1.75 1.48 1.48 0 01-.22.29c-.77.77-28.88.49-29.78.48h-.05a.81.81 0 01-.45-.31c-.22-.29-.33-.85.18-1.9a15.88 15.88 0 00.66-5.2c0-1.58 0-3-.05-3.32v-.1l.05-19.68v-1.44a.21.21 0 00-.21-.21h-1l-8.57-.36a.2.2 0 01-.2-.25c.42-2.17 3.63-18.23 6.62-20.1h.06c2.48-.59 2.1-.69 9.51-1.54a.21.21 0 01.19.08c3.52 4.41 13.05 5 16.72 0a.21.21 0 01.18-.09c3.34.26 8.64 1.18 9.39 1.32a.19.19 0 01.14.09c.53.81 5.09 8.06 6.73 20.42"/><path d="M292.09 335.16c-1.15.54-7.36.46-9.11.43h-.24a.22.22 0 00-.22.21l-.25 29.2a.17.17 0 000 .07v1.41a.15.15 0 000 .09l.11.27a1.91 1.91 0 01-.22.3c-.77.77-28.88.49-29.78.48h-.05a.87.87 0 01-.45-.31 2.41 2.41 0 01.18-.42c.62-1.31.69-4.57.66-6.69 0-1.07-.05-1.85-.05-1.92v-1.38l.06-19.75v-1.43a.22.22 0 00-.21-.22l-1.25.2-8.44.09c.9-4.39 3.84-17.9 6.5-19.56h.06c2.48-.6 2.1-.69 9.51-1.55a.21.21 0 01.19.08c3.52 4.41 13.05 5 16.72 0a.21.21 0 01.18-.08c3.34.25 8.64 1.18 9.39 1.31a.19.19 0 01.14.09c.51.78 4.78 7.56 6.55 19.14" fill="#71b62c"/><path class="cls-32" d="M282.27 365.71a.16.16 0 000 .1c.11.23.59 1.35-.11 2s-28.89.49-29.78.48h-.05c-.18 0-1.14-.39-.27-2.21.94-2 .62-8.4.61-8.6l.06-21.12a.21.21 0 00-.21-.21h-.76a.22.22 0 01-.21-.24 58.38 58.38 0 011.83-8.81.21.21 0 01.42.08c-1 8.46-.19 25.92.3 34.53a6 6 0 005.88 5.64c4.56.07 11-.12 15.44-.3a5.6 5.6 0 005.39-5.46c.13-5 .3-11.78.3-12.6a168.12 168.12 0 00.12-21.62.21.21 0 01.42-.08A56.87 56.87 0 01283 336a.22.22 0 01-.22.24.21.21 0 00-.22.21l-.25 29.22"/><path class="cls-31" d="M290.57 340.68a7.7 7.7 0 01-2.49 4.67c-2-.59-28 4.61-30.36 4.84-4.37-.89-12.36-8.94-13.24-12.5a2.37 2.37 0 01-.07-.72l5.31.08 5.44 4.78a8.27 8.27 0 006 2c12.94-.95 19.27-4.14 19.27-4.14a14.62 14.62 0 01.77-3.72c0-.36 1.06-.53 2.54-1.13s2.36-2.3 2.9-3.31a1.39 1.39 0 011 .74 3.8 3.8 0 01.45 1.33l-3.09 3.18 1.85-.62 3.35-1.1s.07.32.15.85a21.76 21.76 0 01.21 4.77z"/><path class="cls-30" d="M261.17 344.71c13.26-1 19.74-4.22 19.74-4.22a14.74 14.74 0 01.78-3.79c0-.36 1.09-.54 2.6-1.14s2.43-2.35 3-3.38a1.08 1.08 0 01.37.13c.89.46 1.08 2 1.08 2l-1.85 1.87-1.29 1.32 4.79-1.57a21.76 21.76 0 01.21 4.77 7.7 7.7 0 01-2.49 4.67c-2-.59-28 4.61-30.36 4.84-2-.41-4.77-2.32-7.26-4.61a1.29 1.29 0 00-.17-.16l-.07-.07"/><path class="cls-31" d="M267.51 343.17l-.47.07-1.85.27c-3.75.55-9.9 1.39-15 1.83l.24.23-1.18-.15a8.89 8.89 0 00-2.34-.08 7.71 7.71 0 01-2.48-4.67 19.2 19.2 0 010-3c0-.24 0-.46.06-.67.05-.46.11-.85.16-1.17s.13-.74.13-.74l3.71 1.23 1.49.49-3.08-3.14a4 4 0 01.22-.83 1.71 1.71 0 011.2-1.24c.53 1 1.42 2.72 2.9 3.31s2.54.77 2.54 1.13a14.62 14.62 0 01.77 3.72s4.26 2.15 12.94 3.44z"/><path d="M250.22 345.35l.24.23-1.18-.15a8.89 8.89 0 00-2.34-.08 7.71 7.71 0 01-2.48-4.67 19.2 19.2 0 010-3c0-.24 0-.46.06-.67.05-.46.11-.85.16-1.17l5 1.65-1.14-1.16-1.93-2a3.72 3.72 0 01.56-1.5 1.31 1.31 0 01.85-.57c.54 1 1.42 2.72 2.9 3.32s2.54.76 2.54 1.12a14.62 14.62 0 01.77 3.72s3.61 1.82 11 3.12c-3.75.55-9.9 1.39-15 1.83z" fill="#e7ac70"/><path class="cls-31" d="M284.56 345.58l-.64.58c-2.32 2-4.78 3.66-6.61 4-.79-.08-4.16-.7-8.39-1.47l-1.41-.26c5.84-1.07 12.87-2.33 17.05-2.88z"/><path class="cls-30" d="M283.92 346.16c-2.32 2-4.78 3.66-6.61 4-.79-.08-4.16-.7-8.39-1.47 5.14-.94 11-2 15-2.56z"/><path class="cls-31" d="M244.43 338.35c.28.15.57.28.86.4a9.37 9.37 0 00.89.31 5.74 5.74 0 00.91.22 5.59 5.59 0 00.91.08v.44a7.57 7.57 0 01-1-.2c-.31-.1-.61-.2-.91-.33s-.58-.27-.86-.42-.55-.32-.81-.5zm.08 2.65c.29.15.57.28.87.4a9.18 9.18 0 00.88.31 6 6 0 00.91.22 5.69 5.69 0 00.91.08v.44a7.42 7.42 0 01-1-.2 8.92 8.92 0 01-.91-.33c-.3-.13-.58-.27-.86-.42s-.55-.32-.82-.5zm46.02-2.39a9.747 9.747 0 01-1.67.92 7.62 7.62 0 01-.91.33 6.42 6.42 0 01-1 .2v-.44a5.59 5.59 0 00.91-.08 5.74 5.74 0 00.91-.22 9.37 9.37 0 00.89-.31c.29-.12.58-.25.86-.4zm-.09 2.61a9.747 9.747 0 01-1.67.92 7.62 7.62 0 01-.91.33 6.3 6.3 0 01-1 .2v-.44a5.82 5.82 0 00.92-.08 5.9 5.9 0 00.9-.22 9.37 9.37 0 00.89-.31c.29-.12.58-.25.86-.4z"/><path d="M253 280.4c.26 2.65-.64 4.91-2 5s-2.67-1.91-2.92-4.57.64-4.91 2-5 2.68 1.91 2.93 4.57zm33.93.35c-.4 2.63-1.82 4.6-3.18 4.4s-2.12-2.51-1.72-5.15 1.83-4.61 3.18-4.4 2.13 2.51 1.72 5.15z" fill="#e5a46b"/><path fill="#e8b075" d="M252.95 290.34l-2.35-9.84v-10.12l1.74-6.49 1.74-2.7 4.96-.12 8.52.1 15.44 1.44 1.35 5.28 1.17 6.24-.92 4.05-1.79 12.16-8.81 9.91-12.7-3.04-8.35-6.87z"/><path class="cls-39" d="M267.48 289.77c4.08 6-10 3.18-10 3.18l-4.26-2L251 282l-1.26-8.86 1.07-9.36 5.54-3.74L270 263.8s-9.17.32-5.49 16.56c.1.45.21.92.33 1.4l-.43 3.81a1.31 1.31 0 00.42 1.12 3.54 3.54 0 001.83.89l.15.44c.21.57.43 1.16.67 1.75z"/><path class="cls-40" d="M271.3 294.77h-7.48c1.95-1.58 3.13-.26 7.48 0zm14.18-17.57c-.17-.84-1 .35-1.47 1-.17.83-1 6.4-1 6.92-.48 4.53-3.62 7.12-8.09 6.57a20.67 20.67 0 01-4.11-1 9.49 9.49 0 00-6.62 0 20.62 20.62 0 01-3.94 1c-4.53.7-7.66-1.67-8.34-6.21-.09-.59-.1-6.37-.25-7.32-.69-2.09-1.9-3.5-1.91-2.44 0 .26.15 5.48.28 9 .07 1.73.13 3.05.17 3.19.67 2.37.79 4.83 2.12 7.13 1.92 3.32 3.5 6.8 7.37 8.23 1.39.51 2.66 1.32 4.42 1a23.65 23.65 0 016.23.06 12.32 12.32 0 004.56-.81c3.09-.86 4.56-3.53 6.26-5.84a20.55 20.55 0 003.38-8.4v-.18c.21-1.11 1.17-10.73.93-11.82z"/><path d="M284.52 289.2a20.55 20.55 0 01-3.38 8.4c-1.7 2.31-3.17 5-6.26 5.84a12.32 12.32 0 01-4.56.81 23.65 23.65 0 00-6.23-.06c-1.76.32-3-.49-4.42-1-3.87-1.43-5.45-4.91-7.37-8.23-1.33-2.3-1.45-4.76-2.12-7.13 0-.14-.1-1.46-.17-3.19 1.12 3 3 7.77 4.15 9 1.74 1.78 2.61 5.78 5.7 6.65s10.16 2.1 12.84 1.23 6-1.19 11.82-12.28z" fill="#512217"/><path class="cls-42" d="M255 270.67a1 1 0 01.22-.61c.21-.18 6.34-2.44 7.58-3.41.09-.07.16 0 .23.08.41.52-.16 2-.38 2.41a4.54 4.54 0 01-2.65 1.29 45.69 45.69 0 01-5 .24z"/><path class="cls-40" d="M288.29 269.62c-.68 3.15-1.23 6.25-3.69 8.56l-.56-.05v-6.54a8.2 8.2 0 00-2.35-5.76c-1.94-2-4.08-3-6.94-2.29-2.67.66-5.4 1.12-8.1 1.67v.36h5.77v.43h-9.2l.79.6 1.4 1.06a15.36 15.36 0 01-9.67-5c-4.08 3.66-4.66 8.14-4.38 12.87.06.92.14 1.85.24 2.78-3.66-4.81-6.82-9.74-5.15-16.46l-1.31.66c-.83-1.68 2.13-5 7.19-8.14l-2.5-1.07v-.24a16.15 16.15 0 011.72.19c.56.12 1.09.34 1.77.56-.09-.78-.15-1.38-.22-2l.18-.05c.23.46.45.92.79 1.59 1.19-2.27 2.39-4.28 4.58-5.51s4.5-1.08 7.22-.67l-1.74 1.06.06.28c1.74 0 3.48.08 5.21 0s3.46-.38 5.68-.65L273 249.5c3.37.64 6.78.94 9 3.57 2 2.45 4.17 5.05 5.27 8 2.22 5.86 1.68 5.91 1.11 8.59z"/><path d="M265.58 275.27l-1.17 10.3a1.31 1.31 0 00.42 1.12c.8.71 2.52 1.71 4.82-.09-1 1.28-1.93 3.08-5 1.65-.51-.24-2.49-.92-2.43-1.48.42-4.2 3.32-11.5 3.32-11.5z" fill="#d6703f"/><path d="M269.65 286.6a3.11 3.11 0 01-2.84 1.42 6.94 6.94 0 01-2.42-.74 1.31 1.31 0 01-.75-1.33c.17-1.68.51-3.74.87-5.59.51-2.69 1-5 1.07-5.08l-.74 6.48-.43 3.81a1.31 1.31 0 00.42 1.12 3.54 3.54 0 001.83.89 3.9 3.9 0 003-1z" fill="#e97546"/><path class="cls-39" d="M273.31 295.83a.69.69 0 01-.45.32c-1.07.28-3.47-.77-5.46-.94-2.36-.21-4.72 1.65-5.31 1l-.15-.15c-.7-.88 0-2.55.37-3.25a.55.55 0 01.17-.2.48.48 0 01.35-.08c1.79.26 3.13 1 5.17 1 1.7.18 3.69-1.18 4.33-1.29.1 0 .17 0 .2.05.19.41 1.38 2.48.78 3.52z"/><path d="M273.15 296a.69.69 0 01-.45.3c-1 .26-3.34-.71-5.26-.87-2.28-.19-4.56 1.52-5.13.95a.93.93 0 01-.14-.14c-.67-.8 0-2.34.36-3a.4.4 0 01.16-.18.51.51 0 01.31-.06c1.73.24 3 .91 5 .91 1.64.17 3.57-1.08 4.19-1.18h.19c.19.38 1.33 2.28.76 3.23z" fill="#5c2523"/><path class="cls-13" d="M272.7 296.26c-1 .26-3.34-.71-5.26-.87-2.28-.19-4.56 1.52-5.13.95a.93.93 0 01-.14-.14l.52-1.5V293a.51.51 0 01.31 0c1.73.24 3 .91 5 .91 1.64.17 3.57-1.08 4.19-1.18v1.94l.38 1.52.12.11z"/><path class="cls-42" d="M254.53 274.67c.67-1.77 6.89-5.55 7.89.93"/><path class="cls-46" d="M262.15 276.34a3.66 3.66 0 01-1.34.46 11.22 11.22 0 01-3.39.05 4.56 4.56 0 01-3.19-1.44.44.44 0 010-.54c1-1.16 5.4-4.09 8.09.59a.66.66 0 01-.21.88z"/><path class="cls-47" d="M260.81 276.8a11.22 11.22 0 01-3.39.05 3.69 3.69 0 01.08-.46 3.94 3.94 0 01.4-1 1.79 1.79 0 011.81-1.08c.82.2 1.27 1.29 1.09 2.53z"/><path class="cls-48" d="M258.51 276.31a1.67 1.67 0 01-1 .05 3.94 3.94 0 01.4-1l.26-.1c.62-.19 1.18-.12 1.28.18s-.33.68-.94.88z"/><path class="cls-42" d="M270.87 275c.67-1.78 6.89-5.55 7.88.92"/><path class="cls-46" d="M278.49 276.7a3.85 3.85 0 01-1.34.46 7.91 7.91 0 01-1.15.13 11.25 11.25 0 01-2.24-.08c-.22 0-.44-.06-.66-.11a3.94 3.94 0 01-2.53-1.33.45.45 0 010-.54c1-1.17 5.4-4.09 8.1.59a.67.67 0 01-.21.88z"/><path class="cls-47" d="M276 277.29a11.25 11.25 0 01-2.24-.08c-.22 0-.44-.06-.66-.11 0-.15 0-.3.06-.45a5 5 0 01.34-1.18c.39-.92 1-1.44 1.52-1.26s1.07 1.71 1 3.11z"/><path class="cls-48" d="M274 276.56a1.05 1.05 0 01-.84.06 4.82 4.82 0 01.34-1.18l.22-.12c.51-.22 1-.13 1.07.21s-.27.8-.79 1z"/><path class="cls-42" d="M270.52 266.7s-1 2-.25 2.61 4 1.81 10.86 1c-1-1.41-8.08-1.81-10.61-3.62z"/><path d="M248.07 306.26c-.62.12-1.23.27-1.83.44a16.91 16.91 0 00-1.73.62 8.59 8.59 0 00-2.91 1.94 7.12 7.12 0 00-1.65 3c0 .14-.07.29-.11.43s-.05.3-.08.45v.22a1.81 1.81 0 000 .23l-.06.45a3.73 3.73 0 000 .47v1.42c-.1-.31-.19-.61-.27-.93l-.09-.47a4 4 0 01-.08-.48 7.94 7.94 0 010-1v-.49c0-.16 0-.33.05-.5a6.36 6.36 0 01.56-1.93 4 4 0 01.23-.46l.13-.22c0-.08.09-.14.14-.22l.15-.21.07-.1.08-.1.34-.39a6.81 6.81 0 011.6-1.24 8.61 8.61 0 011.84-.76 9.85 9.85 0 011.93-.32 7.72 7.72 0 011.92.1zm-.69-7.26a25.79 25.79 0 00-3.18.57 22.34 22.34 0 00-3 1 14.19 14.19 0 00-5.2 3.36 10.85 10.85 0 00-1 1.18l-.22.32-.21.33c-.13.22-.26.44-.38.67a12.22 12.22 0 00-1.07 2.91 17.21 17.21 0 00-.44 3.14v3.23c-.07-.26-.13-.53-.2-.79s-.11-.54-.15-.81l-.07-.4-.06-.41c0-.27-.06-.54-.08-.82a14.71 14.71 0 01.13-3.31c0-.14 0-.28.07-.41l.08-.42c0-.13.07-.27.11-.4s.07-.28.11-.41a11.21 11.21 0 01.61-1.58 10.89 10.89 0 01.85-1.48 11.22 11.22 0 011.07-1.32 11.37 11.37 0 011.26-1.14 11.89 11.89 0 011.4-1 15.16 15.16 0 013.07-1.33 18 18 0 013.23-.66c.55-.05 1.1-.09 1.64-.09h.82a7.54 7.54 0 01.82.06zm-1.01-10.23c-.43 0-.85.07-1.28.12s-.84.1-1.26.17l-1.26.2-1.25.25a33.48 33.48 0 00-4.86 1.42 25.34 25.34 0 00-4.5 2.2 19.55 19.55 0 00-2 1.44 17.41 17.41 0 00-3.4 3.6c-.12.17-.24.33-.35.51l-.33.52c-.21.36-.42.72-.6 1.09a17 17 0 00-1 2.28 22.12 22.12 0 00-.69 2.41 26.9 26.9 0 00-.6 5 41.61 41.61 0 00.16 5.11 29.14 29.14 0 01-.72-5.1 23.68 23.68 0 01.29-5.18l.06-.33c0-.1 0-.21.06-.32l.14-.64c0-.1.05-.21.08-.32l.09-.31.08-.32.1-.31a16.64 16.64 0 011-2.45 17 17 0 013-4.34 19.34 19.34 0 014.12-3.26 23.61 23.61 0 014.77-2.12 28.42 28.42 0 015.06-1.12c.85-.11 1.71-.19 2.57-.23a22 22 0 012.57 0zm42.36 17.49a7.72 7.72 0 011.92-.1 9.85 9.85 0 011.93.32 8.61 8.61 0 011.84.76 6.81 6.81 0 011.6 1.24l.34.39.08.1.07.1.15.21c0 .08.1.14.14.22l.13.22c.08.15.17.3.24.46a6.64 6.64 0 01.55 1.93v.99a7.94 7.94 0 010 1 4 4 0 01-.08.48l-.09.47c-.08.32-.17.62-.27.93v-1.42a3.73 3.73 0 000-.47l-.06-.45a1.81 1.81 0 000-.23v-.22c0-.15-.05-.3-.08-.45s-.08-.29-.11-.43a6.91 6.91 0 00-1.65-3 8.59 8.59 0 00-2.91-1.94 16.91 16.91 0 00-1.73-.62c-.6-.17-1.21-.32-1.83-.44zm.69-7.26a7.54 7.54 0 01.82-.06h.82c.55 0 1.09 0 1.64.09a18.26 18.26 0 013.24.66A15.08 15.08 0 01299 301a11.89 11.89 0 011.4 1 11.37 11.37 0 011.26 1.14 11.22 11.22 0 011.07 1.32 10.89 10.89 0 01.85 1.48 11.21 11.21 0 01.61 1.58c0 .13.08.27.11.41s.08.27.11.4l.08.42c0 .13.05.27.07.41a14.71 14.71 0 01.13 3.31c0 .28-.05.55-.08.82l-.06.41-.06.4c-.05.27-.11.54-.16.81s-.13.53-.2.79v-3.23a17.21 17.21 0 00-.44-3.14 12.22 12.22 0 00-1.07-2.91c-.12-.23-.25-.45-.38-.67l-.21-.33c-.06-.11-.14-.21-.21-.32a12.26 12.26 0 00-1-1.18 14.19 14.19 0 00-5.2-3.36 22.34 22.34 0 00-3-1 25.79 25.79 0 00-3.18-.57zm1.01-10.23a22 22 0 012.57 0c.86 0 1.72.12 2.57.23a28.42 28.42 0 015.06 1.12 23.61 23.61 0 014.77 2.12 19.34 19.34 0 014.12 3.26 17 17 0 013 4.34 16.64 16.64 0 011 2.45l.1.31.08.32.09.31c0 .11.06.22.08.32l.14.64a2 2 0 01.06.32l.06.33a23.68 23.68 0 01.29 5.18 29.14 29.14 0 01-.72 5.1 41.61 41.61 0 00.16-5.11 26.9 26.9 0 00-.6-5 20.09 20.09 0 00-.69-2.41 17 17 0 00-1-2.28c-.18-.37-.39-.73-.6-1.09l-.33-.52c-.11-.18-.23-.34-.35-.51a17.06 17.06 0 00-1.57-1.92 18.11 18.11 0 00-1.82-1.68 20.81 20.81 0 00-2-1.44 25.34 25.34 0 00-4.5-2.2 33.48 33.48 0 00-4.86-1.42l-1.25-.25-1.26-.2c-.42-.07-.84-.12-1.26-.17s-.85-.09-1.28-.12z" fill="#eaeaea"/></g></svg>